<?xml version="1.0" encoding="UTF-8" standalone="no"?>
<!-- Created with Inkscape (http://www.inkscape.org/) -->

<svg
   xmlns:dc="http://purl.org/dc/elements/1.1/"
   xmlns:cc="http://creativecommons.org/ns#"
   xmlns:rdf="http://www.w3.org/1999/02/22-rdf-syntax-ns#"
   xmlns:svg="http://www.w3.org/2000/svg"
   xmlns="http://www.w3.org/2000/svg"
   xmlns:xlink="http://www.w3.org/1999/xlink"
   xmlns:sodipodi="http://sodipodi.sourceforge.net/DTD/sodipodi-0.dtd"
   xmlns:inkscape="http://www.inkscape.org/namespaces/inkscape"
   width="129.743mm"
   height="52.381001mm"
   viewBox="0 0 129.743 52.381001"
   version="1.1"
   id="svg3880"
   inkscape:version="0.92.5 (2060ec1f9f, 2020-04-08)"
   sodipodi:docname="linuxv1.svg">
  <defs
     id="defs3874">
    <linearGradient
       inkscape:collect="always"
       xlink:href="#linearGradient2359"
       id="linearGradient2533"
       gradientUnits="userSpaceOnUse"
       x1="104.28743"
       y1="300.14343"
       x2="189.87849"
       y2="363.42557" />
    <linearGradient
       id="linearGradient2359"
       inkscape:collect="always">
      <stop
         id="stop2355"
         offset="0"
         style="stop-color:#ebc80e;stop-opacity:1" />
      <stop
         id="stop2357"
         offset="1"
         style="stop-color:#d4aa00;stop-opacity:1" />
    </linearGradient>
    <inkscape:path-effect
       is_visible="true"
       id="path-effect4669-1-5"
       effect="spiro" />
  </defs>
  <sodipodi:namedview
     id="base"
     pagecolor="#ffffff"
     bordercolor="#666666"
     borderopacity="1.0"
     inkscape:pageopacity="0.0"
     inkscape:pageshadow="2"
     inkscape:zoom="0.98994949"
     inkscape:cx="315.06322"
     inkscape:cy="69.329899"
     inkscape:document-units="mm"
     inkscape:current-layer="layer1"
     showgrid="false"
     inkscape:snap-page="true"
     inkscape:snap-bbox="true"
     inkscape:bbox-paths="true"
     inkscape:bbox-nodes="true"
     inkscape:snap-bbox-edge-midpoints="true"
     inkscape:snap-bbox-midpoints="true"
     inkscape:window-width="1280"
     inkscape:window-height="650"
     inkscape:window-x="0"
     inkscape:window-y="0"
     inkscape:window-maximized="1" />
  <metadata
     id="metadata3877">
    <rdf:RDF>
      <cc:Work
         rdf:about="">
        <dc:format>image/svg+xml</dc:format>
        <dc:type
           rdf:resource="http://purl.org/dc/dcmitype/StillImage" />
        <dc:title></dc:title>
      </cc:Work>
    </rdf:RDF>
  </metadata>
  <g
     inkscape:label="Layer 1"
     inkscape:groupmode="layer"
     id="layer1"
     transform="translate(0,-244.619)">
    <g
       id="g4475"
       transform="translate(-39.449995,169.60117)">
      <path
         inkscape:original-d="m 137.57703,281.0191 c 6.32494,-1.3585 11.99755,4.87308 16.86679,9.13228 6.42572,5.62067 -8.54781,26.01622 13.24488,19.8293 5.86081,-1.66388 2.54214,20.39665 5.81101,25.53786 4.09971,6.44793 15.93889,4.59788 18.00545,11.95401 1.58383,5.63779 1.34339,10.90606 -1.62666,15.95302 -3.57124,6.06857 -11.7907,10.42929 -18.78877,11.20919 -5.73056,0.63864 -11.87822,-3.8351 -17.38362,-5.54906 -12.31617,-3.83432 -23.77946,-5.82074 -36.09666,-9.65174 -2.50091,-0.77785 -8.28361,-2.638 -10.96988,-3.42629 -4.51043,-1.3236 -6.46556,-0.99271 -8.72046,-4.76819 -2.68251,-4.49147 0.68051,-9.72669 3.16379,-14.79408 4.06995,-8.30524 1.91195,-17.82603 0.46203,-25.51057 -0.92235,-4.8884 -0.66071,-7.92707 2.7425,-10.79139 4.99476,-4.20385 14.53027,-1.53186 20.35272,-4.08305 5.82246,-2.55119 6.66365,-13.6939 12.93688,-15.04129 z"
         inkscape:path-effect="#path-effect4669-1-5"
         sodipodi:nodetypes="ssssssssssssssss"
         inkscape:connector-curvature="0"
         id="path4635-1-3"
         d="m 137.57703,281.0191 c 1.599,-0.62199 3.38559,-0.69129 5.0642,-0.33639 1.67862,0.3549 3.25353,1.12006 4.66089,2.1014 2.81472,1.96267 4.93861,4.73646 7.1417,7.36727 2.57482,3.07471 5.31863,6.01255 7.72265,9.22257 2.40403,3.21002 4.48027,6.73402 5.52223,10.60673 1.15454,4.29116 0.99451,8.8084 1.36802,13.23644 0.18676,2.21401 0.5115,4.42842 1.19332,6.5431 0.68181,2.11468 1.73348,4.13415 3.24967,5.75832 2.48899,2.66625 6.0016,4.07146 9.33007,5.56318 1.66423,0.74586 3.31756,1.53642 4.82882,2.55724 1.51126,1.02082 2.88401,2.28457 3.84656,3.83359 1.48896,2.39616 1.90579,5.3632 1.49445,8.15414 -0.41134,2.79095 -1.60319,5.42096 -3.12111,7.79888 -2.04941,3.21054 -4.73605,6.04224 -7.96618,8.06063 -3.23013,2.0184 -7.01405,3.20092 -10.82259,3.14856 -3.06232,-0.0421 -6.06608,-0.86701 -8.92924,-1.95415 -2.86317,-1.08714 -5.61833,-2.43888 -8.45438,-3.59491 -11.54497,-4.70593 -24.15457,-6.07144 -36.09666,-9.65174 -3.66974,-1.10021 -7.27611,-2.40968 -10.96988,-3.42629 -1.64109,-0.45167 -3.30842,-0.84872 -4.8585,-1.55189 -1.55008,-0.70316 -2.999645,-1.74879 -3.86196,-3.2163 -0.666537,-1.13433 -0.948658,-2.46997 -0.930536,-3.78552 0.01812,-1.31554 0.325779,-2.61459 0.773711,-3.85166 0.895864,-2.47413 2.343425,-4.71374 3.320615,-7.1569 1.59557,-3.98923 1.88303,-8.38827 1.66823,-12.67939 -0.2148,-4.29111 -0.91071,-8.54487 -1.2062,-12.83118 -0.13197,-1.91424 -0.18252,-3.853 0.18265,-5.73672 0.36518,-1.88371 1.17623,-3.72526 2.55985,-5.05467 1.27554,-1.22556 2.96812,-1.9508 4.70045,-2.30862 1.73233,-0.35783 3.51624,-0.3706 5.28464,-0.32877 1.76841,0.0418 3.54099,0.13673 5.30374,-0.0106 1.76275,-0.14734 3.53306,-0.54874 5.06389,-1.43505 1.45673,-0.84341 2.64248,-2.09472 3.6222,-3.46349 0.97972,-1.36877 1.76911,-2.86205 2.5839,-4.33497 0.8148,-1.47292 1.66391,-2.93881 2.74592,-4.22825 1.08201,-1.28943 2.4161,-2.40435 3.98486,-3.01458 z"
         style="fill:url(#linearGradient2533);fill-opacity:1;stroke:none"
         transform="matrix(0.55625169,0,0,0.55625169,-14.499608,-80.993315)" />
      <g
         transform="matrix(1.1254573,0,0,1.1254573,-240.72653,-104.94346)"
         id="text919"
         style="font-style:italic;font-variant:normal;font-weight:bold;font-stretch:normal;font-size:34.67523575px;line-height:1.25;font-family:Cabin;-inkscape-font-specification:'Cabin Bold Italic';letter-spacing:0px;word-spacing:0px;fill:#000000;fill-opacity:1;stroke:#ffffff;stroke-width:5.80000019;stroke-miterlimit:4;stroke-dasharray:none"
         aria-label="Linux">
        <path
           id="path925"
           style="stroke:#ffffff;stroke-width:5.80000019;stroke-miterlimit:4;stroke-dasharray:none"
           d="m 279.02753,194.05785 4.26506,-24.27267 h 4.43843 l -3.5022,19.97294 h 8.53011 l -0.76286,4.29973 z"
           inkscape:connector-curvature="0" />
        <path
           id="path927"
           style="stroke:#ffffff;stroke-width:5.80000019;stroke-miterlimit:4;stroke-dasharray:none"
           d="m 298.89644,174.08491 0.72818,-4.29973 h 4.3344 l -0.76286,4.29973 z m -3.53688,19.97294 3.05142,-17.33762 h 4.33441 l -3.05142,17.33762 z"
           inkscape:connector-curvature="0" />
        <path
           id="path929"
           style="stroke:#ffffff;stroke-width:5.80000019;stroke-miterlimit:4;stroke-dasharray:none"
           d="m 313.18259,194.05785 1.62973,-9.32764 q 0.20805,-1.17896 0.20805,-2.08052 0,-2.66999 -2.08051,-2.66999 -0.83221,0 -1.42168,0.4161 -0.58948,0.38143 -1.21364,1.07494 l -2.21921,12.58711 h -4.33441 l 3.05142,-17.33762 h 4.23038 l -0.20805,1.04026 q 0.48545,-0.55481 1.31766,-0.93624 0.83221,-0.38142 1.62974,-0.38142 1.52571,0 2.56596,0.4161 1.07494,0.38143 1.73376,1.10961 0.69351,0.72818 1.00559,1.76843 0.31207,1.04026 0.31207,2.32324 0,0.62416 -0.0693,1.31766 -0.0347,0.65883 -0.17337,1.35234 l -1.62974,9.32764 z"
           inkscape:connector-curvature="0" />
        <path
           id="path931"
           style="stroke:#ffffff;stroke-width:5.80000019;stroke-miterlimit:4;stroke-dasharray:none"
           d="m 332.1152,194.05785 0.20806,-1.04026 q -0.76286,0.58948 -1.73377,1.00558 -0.93623,0.38143 -1.62973,0.38143 -1.62974,0 -2.73935,-0.38143 -1.1096,-0.4161 -1.80311,-1.14428 -0.65883,-0.72818 -0.9709,-1.73376 -0.31208,-1.04026 -0.31208,-2.28857 0,-1.21363 0.2774,-2.80869 l 1.62974,-9.32764 h 4.3344 l -1.62974,9.32764 q -0.20805,1.14428 -0.20805,2.04584 0,2.70466 2.25389,2.70466 0.90156,0 1.56039,-0.38142 0.6935,-0.38143 1.35233,-1.07494 l 2.25389,-12.62178 h 4.29973 l -3.05142,17.33762 z"
           inkscape:connector-curvature="0" />
        <path
           id="path933"
           style="stroke:#ffffff;stroke-width:5.80000019;stroke-miterlimit:4;stroke-dasharray:none"
           d="m 349.93822,194.05785 -1.87246,-5.13194 -3.57155,5.13194 h -5.16661 l 6.83102,-8.66881 -3.7796,-8.66881 h 5.16661 l 1.80311,5.58271 3.67558,-5.58271 h 5.16661 l -6.93505,8.66881 3.84895,8.66881 z"
           inkscape:connector-curvature="0" />
      </g>
      <path
         inkscape:connector-curvature="0"
         d="m 73.307004,113.46035 4.80014,-27.317847 h 4.99527 l -3.94158,22.478687 h 9.600271 l -0.858559,4.83916 z"
         style="font-style:italic;font-variant:normal;font-weight:bold;font-stretch:normal;font-size:34.67523575px;line-height:1.25;font-family:Cabin;-inkscape-font-specification:'Cabin Bold Italic';letter-spacing:0px;word-spacing:0px;fill:#000000;fill-opacity:1;stroke:none;stroke-width:2.81364322;stroke-miterlimit:4;stroke-dasharray:none"
         id="path925-5" />
      <path
         inkscape:connector-curvature="0"
         d="m 95.668614,90.981663 0.819531,-4.83916 h 4.878185 l -0.85857,4.83916 z m -3.980609,22.478687 3.434239,-19.512747 h 4.878196 l -3.434246,19.512747 z"
         style="font-style:italic;font-variant:normal;font-weight:bold;font-stretch:normal;font-size:34.67523575px;line-height:1.25;font-family:Cabin;-inkscape-font-specification:'Cabin Bold Italic';letter-spacing:0px;word-spacing:0px;fill:#000000;fill-opacity:1;stroke:none;stroke-width:2.81364322;stroke-miterlimit:4;stroke-dasharray:none"
         id="path927-3" />
      <path
         inkscape:connector-curvature="0"
         d="m 111.74707,113.46035 1.83419,-10.49786 q 0.23415,-1.32687 0.23415,-2.34153 0,-3.004957 -2.34152,-3.004957 -0.93663,0 -1.60005,0.4683 -0.66344,0.42928 -1.3659,1.2098 l -2.49763,14.166247 h -4.87818 l 3.43423,-19.512747 h 4.76112 l -0.23416,1.17077 q 0.54637,-0.62441 1.48298,-1.0537 0.93661,-0.42927 1.83421,-0.42927 1.71712,0 2.88786,0.4683 1.2098,0.42929 1.95129,1.24882 0.78051,0.81954 1.13174,1.99029 0.35122,1.17077 0.35122,2.61471 0,0.702467 -0.078,1.482967 -0.0391,0.74149 -0.19511,1.522 l -1.8342,10.49786 z"
         style="font-style:italic;font-variant:normal;font-weight:bold;font-stretch:normal;font-size:34.67523575px;line-height:1.25;font-family:Cabin;-inkscape-font-specification:'Cabin Bold Italic';letter-spacing:0px;word-spacing:0px;fill:#000000;fill-opacity:1;stroke:none;stroke-width:2.81364322;stroke-miterlimit:4;stroke-dasharray:none"
         id="path929-5" />
      <path
         inkscape:connector-curvature="0"
         d="m 133.05491,113.46035 0.23417,-1.17076 q -0.85857,0.66343 -1.9513,1.13173 -1.05368,0.42929 -1.83419,0.42929 -1.8342,0 -3.08302,-0.42929 -1.24881,-0.4683 -2.02932,-1.28784 -0.74148,-0.81953 -1.09271,-1.95127 -0.35123,-1.17077 -0.35123,-2.57569 0,-1.36588 0.31221,-3.16106 l 1.8342,-10.497857 h 4.87817 l -1.83419,10.497857 q -0.23415,1.28784 -0.23415,2.30251 0,3.04398 2.53666,3.04398 1.01466,0 1.75614,-0.42927 0.7805,-0.42929 1.522,-1.2098 L 136.255,93.947603 h 4.83917 l -3.43424,19.512747 z"
         style="font-style:italic;font-variant:normal;font-weight:bold;font-stretch:normal;font-size:34.67523575px;line-height:1.25;font-family:Cabin;-inkscape-font-specification:'Cabin Bold Italic';letter-spacing:0px;word-spacing:0px;fill:#000000;fill-opacity:1;stroke:none;stroke-width:2.81364322;stroke-miterlimit:4;stroke-dasharray:none"
         id="path931-6" />
      <path
         inkscape:connector-curvature="0"
         d="m 153.11396,113.46035 -2.10737,-5.77578 -4.01963,5.77578 h -5.8148 l 7.68802,-9.75637 -4.25377,-9.756377 h 5.81479 l 2.02933,6.283097 4.13671,-6.283097 h 5.8148 l -7.80511,9.756377 4.33183,9.75637 z"
         style="font-style:italic;font-variant:normal;font-weight:bold;font-stretch:normal;font-size:34.67523575px;line-height:1.25;font-family:Cabin;-inkscape-font-specification:'Cabin Bold Italic';letter-spacing:0px;word-spacing:0px;fill:#000000;fill-opacity:1;stroke:none;stroke-width:2.81364322;stroke-miterlimit:4;stroke-dasharray:none"
         id="path933-2" />
    </g>
  </g>
</svg>
