<?xml version="1.0" encoding="UTF-8" standalone="no"?>
<!-- Created with Inkscape (http://www.inkscape.org/) -->

<svg
   xmlns:dc="http://purl.org/dc/elements/1.1/"
   xmlns:cc="http://creativecommons.org/ns#"
   xmlns:rdf="http://www.w3.org/1999/02/22-rdf-syntax-ns#"
   xmlns:svg="http://www.w3.org/2000/svg"
   xmlns="http://www.w3.org/2000/svg"
   xmlns:sodipodi="http://sodipodi.sourceforge.net/DTD/sodipodi-0.dtd"
   xmlns:inkscape="http://www.inkscape.org/namespaces/inkscape"
   width="210mm"
   height="148.16299mm"
   viewBox="0 0 210 148.16299"
   version="1.1"
   id="svg2783"
   inkscape:version="0.92.5 (2060ec1f9f, 2020-04-08)"
   sodipodi:docname="linuxinsidemonochrome.svg">
  <defs
     id="defs2777">
    <inkscape:path-effect
       is_visible="true"
       id="path-effect4669-1-5-26"
       effect="spiro" />
  </defs>
  <sodipodi:namedview
     id="base"
     pagecolor="#ffffff"
     bordercolor="#666666"
     borderopacity="1.0"
     inkscape:pageopacity="0.0"
     inkscape:pageshadow="2"
     inkscape:zoom="0.24748737"
     inkscape:cx="-399.00926"
     inkscape:cy="79.075255"
     inkscape:document-units="mm"
     inkscape:current-layer="g1978"
     showgrid="false"
     inkscape:snap-page="true"
     inkscape:window-width="1280"
     inkscape:window-height="650"
     inkscape:window-x="0"
     inkscape:window-y="0"
     inkscape:window-maximized="1" />
  <metadata
     id="metadata2780">
    <rdf:RDF>
      <cc:Work
         rdf:about="">
        <dc:format>image/svg+xml</dc:format>
        <dc:type
           rdf:resource="http://purl.org/dc/dcmitype/StillImage" />
        <dc:title></dc:title>
      </cc:Work>
    </rdf:RDF>
  </metadata>
  <g
     inkscape:label="Layer 1"
     inkscape:groupmode="layer"
     id="layer1"
     transform="translate(0,-148.837)">
    <g
       transform="matrix(2.6544802,0,0,2.6544802,-131.96057,-354.04254)"
       id="g2081">
      <rect
         ry="6.8922634"
         rx="6.8922634"
         y="189.44559"
         x="49.712143"
         height="55.8162"
         width="79.111786"
         id="rect1813"
         style="fill:#000000;fill-opacity:1;stroke:none;stroke-width:4.1700635;stroke-linecap:round;stroke-miterlimit:4;stroke-dasharray:none;stroke-opacity:1" />
      <g
         id="g2059"
         transform="translate(4.2104732e-8,2.5516791)">
        <g
           transform="translate(-4.5239245,-10.443568)"
           id="g1978">
          <path
             inkscape:original-d="m 137.57703,281.0191 c 6.32494,-1.3585 11.99755,4.87308 16.86679,9.13228 6.42572,5.62067 -8.54781,26.01622 13.24488,19.8293 5.86081,-1.66388 -4.39086,25.75711 -1.12199,30.89832 4.09971,6.44793 22.87189,-0.76258 24.93845,6.59355 1.58383,5.63779 1.34339,10.90606 -1.62666,15.95302 -3.57124,6.06857 -11.7907,10.42929 -18.78877,11.20919 -5.73056,0.63864 -11.87822,-3.8351 -17.38362,-5.54906 -12.31617,-3.83432 -23.77946,-5.82074 -36.09666,-9.65174 -2.50091,-0.77785 -8.28361,-2.638 -10.96988,-3.42629 -4.51043,-1.3236 -6.46556,-0.99271 -8.72046,-4.76819 -2.68251,-4.49147 0.68051,-9.72669 3.16379,-14.79408 4.06995,-8.30524 1.91195,-17.82603 0.46203,-25.51057 -0.92235,-4.8884 -0.66071,-7.92707 2.7425,-10.79139 4.99476,-4.20385 14.53027,-1.53186 20.35272,-4.08305 5.82246,-2.55119 6.66365,-13.6939 12.93688,-15.04129 z"
             inkscape:path-effect="#path-effect4669-1-5-26"
             sodipodi:nodetypes="ssssssssssssssss"
             inkscape:connector-curvature="0"
             id="path4635-1-3-1"
             d="m 137.57703,281.0191 c 1.59907,-0.5979 3.37841,-0.63675 5.04296,-0.25755 1.66455,0.37921 3.21957,1.16211 4.61272,2.14884 2.7863,1.97347 4.91242,4.71629 7.21111,7.24099 2.73086,2.99936 5.75445,5.73682 8.28543,8.90666 2.53098,3.16984 4.58691,6.88346 4.95945,10.92264 0.24838,2.693 -0.26203,5.40347 -1.01234,8.00174 -0.7503,2.59826 -1.7408,5.1224 -2.48779,7.72161 -0.74699,2.59922 -1.25055,5.31162 -0.99188,8.00365 0.25867,2.69203 1.34575,5.37793 3.37002,7.17132 1.6572,1.46819 3.8285,2.25121 6.01483,2.60023 2.18634,0.34902 4.41391,0.29512 6.62788,0.27901 2.21396,-0.0161 4.44974,0.009 6.60633,0.50993 2.15659,0.501 4.25317,1.51942 5.68941,3.20438 0.93492,1.09683 1.55968,2.44365 1.86671,3.85179 0.30703,1.40813 0.30197,2.87605 0.0596,4.29674 -0.48469,2.8414 -1.89344,5.44773 -3.553,7.80449 -2.18284,3.09987 -4.86099,5.88723 -8.05981,7.9223 -3.19883,2.03507 -6.93766,3.29387 -10.72896,3.28689 -3.06442,-0.006 -6.07581,-0.82539 -8.93858,-1.91868 -2.86277,-1.09329 -5.61198,-2.46227 -8.44504,-3.63038 -11.5267,-4.75261 -24.15193,-6.07747 -36.09666,-9.65174 -3.67032,-1.09828 -7.27625,-2.40917 -10.96988,-3.42629 -1.64101,-0.45189 -3.3083,-0.84899 -4.85838,-1.55211 -1.55007,-0.70313 -2.999686,-1.74864 -3.86208,-3.21608 -0.666612,-1.1343 -0.9488,-2.46995 -0.930721,-3.7855 0.01808,-1.31556 0.325717,-2.61463 0.773651,-3.85171 0.895866,-2.47416 2.34351,-4.71375 3.32086,-7.15687 1.59584,-3.98916 1.88382,-8.3882 1.66921,-12.67937 -0.21461,-4.29116 -0.91066,-8.54492 -1.20718,-12.8312 -0.13243,-1.91435 -0.18363,-3.85326 0.18139,-5.73716 0.36501,-1.88389 1.17649,-3.72566 2.56111,-5.05423 1.27642,-1.22475 2.97004,-1.94812 4.70285,-2.30393 1.73281,-0.35582 3.51678,-0.36652 5.28523,-0.32351 1.76844,0.043 3.54117,0.13821 5.30387,-0.0106 1.7627,-0.1488 3.53282,-0.55361 5.06077,-1.44502 1.45483,-0.84876 2.63544,-2.10683 3.60937,-3.48101 0.97393,-1.37419 1.75717,-2.87185 2.56898,-4.34762 0.81182,-1.47576 1.66133,-2.94329 2.74862,-4.22966 1.08729,-1.28636 2.43226,-2.39312 4.00991,-2.983 z"
             style="fill:#ffffff;fill-opacity:1;stroke:none"
             transform="matrix(0.22158125,0,0,0.22158125,46.660566,144.78226)" />
          <g
             transform="matrix(0.44832266,0,0,0.44832266,-43.857595,135.24179)"
             id="text919-8"
             style="font-style:italic;font-variant:normal;font-weight:bold;font-stretch:normal;font-size:34.67523575px;line-height:1.25;font-family:Cabin;-inkscape-font-specification:'Cabin Bold Italic';letter-spacing:0px;word-spacing:0px;fill:#000000;fill-opacity:1;stroke:#000000;stroke-width:5.80000019;stroke-miterlimit:4;stroke-dasharray:none"
             aria-label="Linux">
            <path
               id="path925-7"
               style="stroke:#000000;stroke-width:5.80000019;stroke-miterlimit:4;stroke-dasharray:none;fill:#000000"
               d="m 279.02753,194.05785 4.26506,-24.27267 h 4.43843 l -3.5022,19.97294 h 8.53011 l -0.76286,4.29973 z"
               inkscape:connector-curvature="0" />
            <path
               id="path927-9"
               style="stroke:#000000;stroke-width:5.80000019;stroke-miterlimit:4;stroke-dasharray:none;fill:#000000"
               d="m 298.89644,174.08491 0.72818,-4.29973 h 4.3344 l -0.76286,4.29973 z m -3.53688,19.97294 3.05142,-17.33762 h 4.33441 l -3.05142,17.33762 z"
               inkscape:connector-curvature="0" />
            <path
               id="path929-2"
               style="stroke:#000000;stroke-width:5.80000019;stroke-miterlimit:4;stroke-dasharray:none;fill:#000000"
               d="m 313.18259,194.05785 1.62973,-9.32764 q 0.20805,-1.17896 0.20805,-2.08052 0,-2.66999 -2.08051,-2.66999 -0.83221,0 -1.42168,0.4161 -0.58948,0.38143 -1.21364,1.07494 l -2.21921,12.58711 h -4.33441 l 3.05142,-17.33762 h 4.23038 l -0.20805,1.04026 q 0.48545,-0.55481 1.31766,-0.93624 0.83221,-0.38142 1.62974,-0.38142 1.52571,0 2.56596,0.4161 1.07494,0.38143 1.73376,1.10961 0.69351,0.72818 1.00559,1.76843 0.31207,1.04026 0.31207,2.32324 0,0.62416 -0.0693,1.31766 -0.0347,0.65883 -0.17337,1.35234 l -1.62974,9.32764 z"
               inkscape:connector-curvature="0" />
            <path
               id="path931-0"
               style="stroke:#000000;stroke-width:5.80000019;stroke-miterlimit:4;stroke-dasharray:none;fill:#000000"
               d="m 332.1152,194.05785 0.20806,-1.04026 q -0.76286,0.58948 -1.73377,1.00558 -0.93623,0.38143 -1.62973,0.38143 -1.62974,0 -2.73935,-0.38143 -1.1096,-0.4161 -1.80311,-1.14428 -0.65883,-0.72818 -0.9709,-1.73376 -0.31208,-1.04026 -0.31208,-2.28857 0,-1.21363 0.2774,-2.80869 l 1.62974,-9.32764 h 4.3344 l -1.62974,9.32764 q -0.20805,1.14428 -0.20805,2.04584 0,2.70466 2.25389,2.70466 0.90156,0 1.56039,-0.38142 0.6935,-0.38143 1.35233,-1.07494 l 2.25389,-12.62178 h 4.29973 l -3.05142,17.33762 z"
               inkscape:connector-curvature="0" />
            <path
               id="path933-23"
               style="stroke:#000000;stroke-width:5.80000019;stroke-miterlimit:4;stroke-dasharray:none;fill:#000000"
               d="m 349.93822,194.05785 -1.87246,-5.13194 -3.57155,5.13194 h -5.16661 l 6.83102,-8.66881 -3.7796,-8.66881 h 5.16661 l 1.80311,5.58271 3.67558,-5.58271 h 5.16661 l -6.93505,8.66881 3.84895,8.66881 z"
               inkscape:connector-curvature="0" />
          </g>
          <g
             transform="matrix(0.44832266,0,0,0.44832266,-43.857595,135.24179)"
             id="text919-7-7"
             style="font-style:italic;font-variant:normal;font-weight:bold;font-stretch:normal;font-size:34.67523575px;line-height:1.25;font-family:Cabin;-inkscape-font-specification:'Cabin Bold Italic';letter-spacing:0px;word-spacing:0px;fill:#ffffff;fill-opacity:1;stroke:none;stroke-width:2.5;stroke-miterlimit:4;stroke-dasharray:none"
             aria-label="Linux">
            <path
               id="path925-5-5"
               style="stroke:none;stroke-width:2.5;stroke-miterlimit:4;stroke-dasharray:none;fill:#ffffff"
               d="m 279.02753,194.05785 4.26506,-24.27267 h 4.43843 l -3.5022,19.97294 h 8.53011 l -0.76286,4.29973 z"
               inkscape:connector-curvature="0" />
            <path
               id="path927-3-9"
               style="stroke:none;stroke-width:2.5;stroke-miterlimit:4;stroke-dasharray:none;fill:#ffffff"
               d="m 298.89644,174.08491 0.72818,-4.29973 h 4.3344 l -0.76286,4.29973 z m -3.53688,19.97294 3.05142,-17.33762 h 4.33441 l -3.05142,17.33762 z"
               inkscape:connector-curvature="0" />
            <path
               id="path929-5-2"
               style="stroke:none;stroke-width:2.5;stroke-miterlimit:4;stroke-dasharray:none;fill:#ffffff"
               d="m 313.18259,194.05785 1.62973,-9.32764 q 0.20805,-1.17896 0.20805,-2.08052 0,-2.66999 -2.08051,-2.66999 -0.83221,0 -1.42168,0.4161 -0.58948,0.38143 -1.21364,1.07494 l -2.21921,12.58711 h -4.33441 l 3.05142,-17.33762 h 4.23038 l -0.20805,1.04026 q 0.48545,-0.55481 1.31766,-0.93624 0.83221,-0.38142 1.62974,-0.38142 1.52571,0 2.56596,0.4161 1.07494,0.38143 1.73376,1.10961 0.69351,0.72818 1.00559,1.76843 0.31207,1.04026 0.31207,2.32324 0,0.62416 -0.0693,1.31766 -0.0347,0.65883 -0.17337,1.35234 l -1.62974,9.32764 z"
               inkscape:connector-curvature="0" />
            <path
               id="path931-6-2"
               style="stroke:none;stroke-width:2.5;stroke-miterlimit:4;stroke-dasharray:none;fill:#ffffff"
               d="m 332.1152,194.05785 0.20806,-1.04026 q -0.76286,0.58948 -1.73377,1.00558 -0.93623,0.38143 -1.62973,0.38143 -1.62974,0 -2.73935,-0.38143 -1.1096,-0.4161 -1.80311,-1.14428 -0.65883,-0.72818 -0.9709,-1.73376 -0.31208,-1.04026 -0.31208,-2.28857 0,-1.21363 0.2774,-2.80869 l 1.62974,-9.32764 h 4.3344 l -1.62974,9.32764 q -0.20805,1.14428 -0.20805,2.04584 0,2.70466 2.25389,2.70466 0.90156,0 1.56039,-0.38142 0.6935,-0.38143 1.35233,-1.07494 l 2.25389,-12.62178 h 4.29973 l -3.05142,17.33762 z"
               inkscape:connector-curvature="0" />
            <path
               id="path933-2-8"
               style="stroke:none;stroke-width:2.5;stroke-miterlimit:4;stroke-dasharray:none;fill:#ffffff"
               d="m 349.93822,194.05785 -1.87246,-5.13194 -3.57155,5.13194 h -5.16661 l 6.83102,-8.66881 -3.7796,-8.66881 h 5.16661 l 1.80311,5.58271 3.67558,-5.58271 h 5.16661 l -6.93505,8.66881 3.84895,8.66881 z"
               inkscape:connector-curvature="0" />
          </g>
        </g>
        <g
           aria-label="inside"
           transform="matrix(0.40142631,0,0,0.40142631,-29.48062,-116.56896)"
           style="font-style:italic;font-variant:normal;font-weight:bold;font-stretch:normal;font-size:40px;line-height:1.25;font-family:Cabin;-inkscape-font-specification:'Cabin Bold Italic';letter-spacing:0px;word-spacing:0px;fill:#ffffff;fill-opacity:1;stroke:none;stroke-width:0.74982631;stroke-miterlimit:4;stroke-dasharray:none"
           id="flowRoot2012">
          <path
             d="m 250.83656,847.34478 0.84,-4.96 h 5 l -0.88,4.96 z m -4.08,23.04 3.52,-20 h 5 l -3.52,20 z"
             style=""
             id="path3675" />
          <path
             d="m 267.31651,870.38478 1.88,-10.76 q 0.24,-1.36 0.24,-2.4 0,-3.08 -2.4,-3.08 -0.96,0 -1.64,0.48 -0.68,0.44 -1.4,1.24 l -2.56,14.52 h -5 l 3.52,-20 h 4.88 l -0.24,1.2 q 0.56,-0.64 1.52,-1.08 0.96,-0.44 1.88,-0.44 1.76,0 2.96,0.48 1.24,0.44 2,1.28 0.8,0.84 1.16,2.04 0.36,1.2 0.36,2.68 0,0.72 -0.08,1.52 -0.04,0.76 -0.2,1.56 l -1.88,10.76 z"
             style=""
             id="path3677" />
          <path
             d="m 282.91648,870.78478 q -2.04,0 -3.56,-0.44 -1.52,-0.48 -2.28,-1.04 l 1.16,-4.24 q 0.4,0.36 1,0.72 0.64,0.36 1.36,0.64 0.72,0.28 1.44,0.48 0.76,0.16 1.4,0.16 1.6,0 2.2,-0.76 0.6,-0.8 0.6,-1.84 0,-1.04 -0.8,-1.52 -0.76,-0.48 -1.96,-0.92 -0.8,-0.28 -1.56,-0.6 -0.72,-0.32 -1.32,-0.84 -0.56,-0.52 -0.92,-1.24 -0.36,-0.76 -0.36,-1.88 0,-1.04 0.36,-2.32 0.36,-1.32 1.24,-2.44 0.92,-1.12 2.44,-1.88 1.52,-0.76 3.8,-0.76 0.88,0 1.76,0.16 0.92,0.12 1.68,0.32 0.8,0.2 1.4,0.48 0.6,0.24 0.92,0.52 l -1.16,4.24 q -0.24,-0.36 -0.76,-0.76 -0.52,-0.4 -1.2,-0.68 -0.64,-0.32 -1.4,-0.52 -0.72,-0.2 -1.44,-0.2 -0.56,0 -1.16,0.16 -0.56,0.12 -1.04,0.44 -0.44,0.28 -0.76,0.76 -0.28,0.48 -0.28,1.16 0,0.6 0.32,1 0.32,0.4 0.8,0.68 0.52,0.28 1.16,0.48 0.68,0.2 1.36,0.44 0.84,0.28 1.56,0.64 0.72,0.36 1.24,0.92 0.56,0.52 0.84,1.32 0.32,0.8 0.32,1.96 0,1.4 -0.4,2.72 -0.4,1.28 -1.36,2.28 -0.96,1 -2.6,1.6 -1.6,0.6 -4.04,0.6 z"
             style=""
             id="path3679" />
          <path
             d="m 298.59642,847.34478 0.84,-4.96 h 5 l -0.88,4.96 z m -4.08,23.04 3.52,-20 h 5 l -3.52,20 z"
             style=""
             id="path3681" />
          <path
             d="m 316.19637,870.38478 0.24,-1.12 q -0.48,0.36 -0.92,0.64 -0.44,0.28 -0.92,0.48 -0.44,0.2 -1.04,0.28 -0.56,0.12 -1.36,0.12 -2,0 -3.44,-0.64 -1.4,-0.68 -2.32,-1.8 -0.92,-1.12 -1.36,-2.6 -0.44,-1.52 -0.44,-3.2 0,-2.4 0.76,-4.64 0.76,-2.24 2.2,-3.96 1.44,-1.76 3.52,-2.8 2.08,-1.08 4.76,-1.08 1.48,0 2.12,0.36 0.68,0.32 1.32,0.96 l 1.96,-11 h 5 l -5.32,30 z m -0.76,-16.24 q -1.28,0 -2.32,0.64 -1.04,0.6 -1.8,1.68 -0.72,1.08 -1.12,2.52 -0.4,1.44 -0.4,3.04 0,2.08 0.84,3.4 0.88,1.28 2.6,1.28 2.24,0 3.6,-2.04 1.4,-2.08 1.4,-6.72 0,-1.68 -0.6,-2.72 -0.6,-1.08 -2.2,-1.08 z"
             style=""
             id="path3683" />
          <path
             d="m 344.87632,855.86478 q 0,1.84 -0.8,3.08 -0.8,1.24 -2.12,2.04 -1.32,0.76 -3.04,1.12 -1.72,0.32 -3.6,0.32 -1,0 -1.84,-0.08 -0.8,-0.08 -1.2,-0.16 0.08,1.24 0.48,2.12 0.44,0.84 1.08,1.4 0.64,0.52 1.4,0.76 0.8,0.24 1.64,0.24 0.68,0 1.48,-0.12 0.84,-0.16 1.68,-0.36 0.84,-0.24 1.64,-0.52 0.84,-0.32 1.48,-0.64 l -0.56,4.2 q -1.2,0.6 -2.96,1.08 -1.72,0.44 -3.72,0.44 -2.28,0 -3.96,-0.64 -1.64,-0.68 -2.76,-1.84 -1.08,-1.2 -1.6,-2.76 -0.52,-1.56 -0.52,-3.36 0,-2.28 0.8,-4.44 0.8,-2.2 2.28,-3.88 1.48,-1.72 3.56,-2.76 2.08,-1.04 4.64,-1.04 3.2,0 4.84,1.6 1.68,1.56 1.68,4.2 z m -6.72,-1.72 q -1.16,0 -2.12,0.52 -0.92,0.48 -1.6,1.24 -0.68,0.72 -1.12,1.6 -0.44,0.84 -0.64,1.52 0.64,0.16 1.84,0.16 1.84,0 3.04,-0.24 1.2,-0.28 1.88,-0.72 0.72,-0.44 1,-1 0.28,-0.56 0.28,-1.12 0,-0.68 -0.32,-1.04 -0.28,-0.4 -0.72,-0.6 -0.4,-0.2 -0.84,-0.24 -0.4,-0.08 -0.68,-0.08 z"
             style=""
             id="path3685" />
        </g>
      </g>
    </g>
  </g>
</svg>
