<?xml version="1.0" encoding="UTF-8" standalone="no"?>
<!-- Created with Inkscape (http://www.inkscape.org/) -->

<svg
   xmlns:dc="http://purl.org/dc/elements/1.1/"
   xmlns:cc="http://creativecommons.org/ns#"
   xmlns:rdf="http://www.w3.org/1999/02/22-rdf-syntax-ns#"
   xmlns:svg="http://www.w3.org/2000/svg"
   xmlns="http://www.w3.org/2000/svg"
   xmlns:xlink="http://www.w3.org/1999/xlink"
   xmlns:sodipodi="http://sodipodi.sourceforge.net/DTD/sodipodi-0.dtd"
   xmlns:inkscape="http://www.inkscape.org/namespaces/inkscape"
   width="92.740997mm"
   height="155.285mm"
   viewBox="0 0 92.740997 155.285"
   version="1.1"
   id="svg2604"
   inkscape:version="0.92.5 (2060ec1f9f, 2020-04-08)"
   sodipodi:docname="gnulinux2.svg">
  <defs
     id="defs2598">
    <linearGradient
       y2="363.42557"
       x2="189.87849"
       y1="300.14343"
       x1="104.28743"
       gradientUnits="userSpaceOnUse"
       id="linearGradient2535-29"
       xlink:href="#linearGradient2359"
       inkscape:collect="always" />
    <linearGradient
       inkscape:collect="always"
       id="linearGradient2359">
      <stop
         style="stop-color:#ebc80e;stop-opacity:1"
         offset="0"
         id="stop2355" />
      <stop
         style="stop-color:#d4aa00;stop-opacity:1"
         offset="1"
         id="stop2357" />
    </linearGradient>
    <inkscape:path-effect
       effect="spiro"
       id="path-effect4669-1-5-2-6"
       is_visible="true" />
  </defs>
  <sodipodi:namedview
     id="base"
     pagecolor="#ffffff"
     bordercolor="#666666"
     borderopacity="1.0"
     inkscape:pageopacity="0.0"
     inkscape:pageshadow="2"
     inkscape:zoom="0.49497475"
     inkscape:cx="159.99985"
     inkscape:cy="259.41548"
     inkscape:document-units="mm"
     inkscape:current-layer="layer1"
     showgrid="false"
     inkscape:snap-page="true"
     inkscape:snap-bbox="true"
     inkscape:bbox-paths="true"
     inkscape:bbox-nodes="true"
     inkscape:snap-bbox-edge-midpoints="true"
     inkscape:snap-bbox-midpoints="true"
     inkscape:window-width="1280"
     inkscape:window-height="650"
     inkscape:window-x="0"
     inkscape:window-y="0"
     inkscape:window-maximized="1" />
  <metadata
     id="metadata2601">
    <rdf:RDF>
      <cc:Work
         rdf:about="">
        <dc:format>image/svg+xml</dc:format>
        <dc:type
           rdf:resource="http://purl.org/dc/dcmitype/StillImage" />
        <dc:title></dc:title>
      </cc:Work>
    </rdf:RDF>
  </metadata>
  <g
     inkscape:label="Layer 1"
     inkscape:groupmode="layer"
     id="layer1"
     transform="translate(0,-141.715)">
    <g
       id="g3205"
       transform="translate(142.37638,137.80398)">
      <g
         inkscape:label="Layer 1"
         id="layer1-3"
         transform="matrix(1.7494688,0,0,1.7494688,-134.0222,-327.3321)">
        <g
           id="g4590"
           transform="translate(-139.04793,-32.169968)">
          <g
             transform="translate(-4.3512314,-32.657509)"
             id="text1190-5"
             style="font-style:normal;font-variant:normal;font-weight:bold;font-stretch:normal;font-size:16.97732353px;line-height:1.25;font-family:BPreplay;-inkscape-font-specification:'BPreplay Bold';letter-spacing:0px;word-spacing:0px;fill:#000000;fill-opacity:1;stroke:none;stroke-width:0.42443308"
             aria-label="GNU/ Linux">
            <g
               transform="translate(-0.05093074,-2.6458054)"
               id="g1243">
              <path
                 inkscape:connector-curvature="0"
                 d="m 149.54419,326.08332 c -2.07123,0 -3.08987,-1.91844 -3.08987,-3.88781 0,-2.37683 1.05259,-4.38015 3.20871,-4.38015 0.66212,0 1.46005,0.13582 2.20705,0.81491 0.32257,0.30559 0.69607,0.44141 1.03562,0.44141 0.64514,0 1.20539,-0.49234 1.20539,-1.34121 0,-1.57889 -2.41078,-2.73335 -4.39713,-2.73335 -4.09153,0 -6.12881,3.48036 -6.12881,7.21537 0,3.36151 1.91844,6.65511 5.90811,6.65511 3.36151,0 5.48367,-2.44474 5.48367,-5.87416 0,-1.13748 -0.16977,-2.19007 -1.78262,-2.19007 h -3.41244 c -1.01864,0 -1.52796,0.44141 -1.52796,1.37516 0,0.88282 0.49234,1.35819 1.47703,1.35819 h 2.46171 c -0.16977,1.61284 -1.10352,2.5466 -2.64846,2.5466 z"
                 style="font-style:normal;font-variant:normal;font-weight:bold;font-stretch:normal;font-family:BPreplay;-inkscape-font-specification:'BPreplay Bold';stroke-width:0.42443308"
                 id="path1215" />
              <path
                 inkscape:connector-curvature="0"
                 d="m 155.80879,327.28871 c 0,0.93375 0.44141,1.39214 1.35819,1.39214 0.89979,0 1.35818,-0.45839 1.35818,-1.39214 v -6.33255 l 4.7197,6.92675 c 0.3735,0.5263 0.86584,0.79794 1.42609,0.79794 0.8998,0 1.35819,-0.49235 1.35819,-1.47703 v -10.35617 c 0,-0.91677 -0.44141,-1.37516 -1.37516,-1.37516 -0.88282,0 -1.34121,0.45839 -1.34121,1.37516 v 6.45139 l -4.66877,-6.94373 c -0.40745,-0.59421 -0.89979,-0.8998 -1.494,-0.8998 -0.88282,0 -1.34121,0.49234 -1.34121,1.47703 z"
                 style="font-style:normal;font-variant:normal;font-weight:bold;font-stretch:normal;font-family:BPreplay;-inkscape-font-specification:'BPreplay Bold';stroke-width:0.42443308"
                 id="path1217" />
              <path
                 inkscape:connector-curvature="0"
                 d="m 167.20054,323.41788 c 0,4.0406 2.30892,5.44972 5.17809,5.44972 2.83521,0 5.29692,-1.39214 5.29692,-5.44972 v -6.48534 c 0,-1.00166 -0.47536,-1.46005 -1.42609,-1.46005 -0.95073,0 -1.4261,0.45839 -1.4261,1.46005 v 6.3665 c 0,2.13914 -0.98468,2.71637 -2.29194,2.71637 -1.32423,0 -2.49566,-0.61119 -2.49566,-2.71637 v -6.3665 c 0,-1.00166 -0.45839,-1.46005 -1.40912,-1.46005 -0.95073,0 -1.4261,0.45839 -1.4261,1.46005 z"
                 style="font-style:normal;font-variant:normal;font-weight:bold;font-stretch:normal;font-family:BPreplay;-inkscape-font-specification:'BPreplay Bold';stroke-width:0.42443308"
                 id="path1219" />
              <path
                 inkscape:connector-curvature="0"
                 d="m 181.03705,327.11893 c -0.0679,0.1528 -0.10186,0.35653 -0.10186,0.5263 0,0.78096 0.54327,1.2733 1.15446,1.2733 0.66211,0 1.10352,-0.45839 1.17143,-0.71305 l 4.22736,-10.6278 c 0.0849,-0.22071 0.13581,-0.44141 0.13581,-0.69607 0,-0.66212 -0.47536,-1.23935 -1.20539,-1.23935 -0.57723,0 -1.03561,0.30559 -1.30725,0.93376 z"
                 style="font-style:normal;font-variant:normal;font-weight:bold;font-stretch:normal;font-family:BPreplay;-inkscape-font-specification:'BPreplay Bold';stroke-width:0.42443308"
                 id="path1221" />
              <path
                 d="m 143.58515,343.43582 c 0,1.2408 0.57268,1.88983 1.75623,1.88983 h 6.08949 c 1.04992,0 1.54624,-0.49632 1.54624,-1.54623 0,-0.99264 -0.49632,-1.50806 -1.54624,-1.50806 h -4.79142 v -10.27005 c 0,-1.04991 -0.49631,-1.54623 -1.54624,-1.54623 -0.99264,0 -1.50806,0.49632 -1.50806,1.54623 z"
                 style="font-style:normal;font-variant:normal;font-weight:bold;font-stretch:normal;font-family:BPreplay;-inkscape-font-specification:'BPreplay Bold';stroke-width:0.47723299"
                 id="path1223"
                 inkscape:connector-curvature="0" />
              <path
                 d="m 153.6834,343.83669 c 0,1.01173 0.51541,1.48896 1.48896,1.48896 0.99265,0 1.48897,-0.47723 1.48897,-1.48896 v -7.99843 c 0,-0.99264 -0.5345,-1.46987 -1.50806,-1.46987 -0.95446,0 -1.46987,0.47723 -1.46987,1.46987 z m -0.26724,-12.31261 c 0,0.95446 0.76356,1.69895 1.69894,1.69895 0.97355,0 1.71805,-0.74449 1.71805,-1.69895 0,-0.95447 -0.7445,-1.69896 -1.71805,-1.69896 -0.93538,0 -1.69894,0.74449 -1.69894,1.69896 z"
                 style="font-style:normal;font-variant:normal;font-weight:bold;font-stretch:normal;font-family:BPreplay;-inkscape-font-specification:'BPreplay Bold';stroke-width:0.47723299"
                 id="path1225"
                 inkscape:connector-curvature="0" />
              <path
                 d="m 158.32209,343.85578 c 0,0.97355 0.47724,1.46987 1.43171,1.46987 1.01174,0 1.48897,-0.49632 1.48897,-1.46987 v -5.32593 c 0,-1.12627 0.74446,-1.69895 1.50804,-1.69895 0.68721,0 1.41262,0.55359 1.41262,1.69895 v 5.32593 c 0,0.97355 0.51542,1.46987 1.46986,1.46987 0.99266,0 1.48897,-0.49632 1.48897,-1.46987 v -5.86042 c 0,-2.80614 -1.75621,-3.77969 -3.22609,-3.77969 -1.14536,0 -1.9853,0.61085 -2.65341,1.37444 0,-0.59178 -0.47722,-1.31717 -1.48897,-1.31717 -0.95446,0 -1.4317,0.72539 -1.4317,1.52715 z"
                 style="font-style:normal;font-variant:normal;font-weight:bold;font-stretch:normal;font-family:BPreplay;-inkscape-font-specification:'BPreplay Bold';stroke-width:0.47723299"
                 id="path1227"
                 inkscape:connector-curvature="0" />
              <path
                 d="m 171.22647,335.81917 c 0,-1.01173 -0.45815,-1.46987 -1.4699,-1.46987 -0.97354,0 -1.45078,0.45814 -1.45078,1.46987 v 5.09685 c 0,2.88249 1.66078,4.52418 3.41699,4.52418 1.04991,0 2.13801,-0.57268 2.93977,-1.64169 v 0.57268 c 0.0191,0.85901 0.61084,1.20263 1.12627,1.20263 0.99263,0 1.46987,-0.49632 1.46987,-1.41262 v -8.3993 c 0,-1.01173 -0.47724,-1.50806 -1.46987,-1.50806 -1.06901,0 -1.41261,0.5536 -1.41261,1.50806 v 4.00876 c 0,1.83257 -0.91631,2.82522 -1.81349,2.82522 -0.66813,0 -1.31716,-0.34361 -1.31716,-2.21436 z"
                 style="font-style:normal;font-variant:normal;font-weight:bold;font-stretch:normal;font-family:BPreplay;-inkscape-font-specification:'BPreplay Bold';stroke-width:0.47723299"
                 id="path1229"
                 inkscape:connector-curvature="0" />
              <path
                 d="m 178.69036,342.67224 c -0.30543,0.40088 -0.45815,0.85902 -0.45815,1.2599 0,0.91628 0.45815,1.35534 1.33626,1.35534 0.5536,0 1.04991,-0.26726 1.41262,-0.82085 0.62994,-0.85902 1.2408,-1.7753 1.85166,-2.63432 l 1.87074,2.61523 c 0.3627,0.59177 0.93538,0.87811 1.54625,0.87811 0.91628,0 1.37442,-0.47723 1.37442,-1.39351 0,-0.45815 -0.13362,-0.91629 -0.47723,-1.33626 l -2.61523,-3.09247 2.27162,-2.82522 c 0.26725,-0.32451 0.3818,-0.66812 0.3818,-1.03082 0,-0.83993 -0.68723,-1.45079 -1.50806,-1.45079 -0.55359,0 -1.01174,0.24817 -1.33625,0.7254 l -1.41262,2.38617 -1.35534,-2.348 c -0.32452,-0.49632 -0.78266,-0.74448 -1.37443,-0.74448 -0.78266,0 -1.48897,0.61085 -1.48897,1.46987 0,0.34362 0.0955,0.70631 0.34361,0.99265 l 2.25254,2.92066 z"
                 style="font-style:normal;font-variant:normal;font-weight:bold;font-stretch:normal;font-family:BPreplay;-inkscape-font-specification:'BPreplay Bold';stroke-width:0.47723299"
                 id="path1231"
                 inkscape:connector-curvature="0" />
            </g>
          </g>
        </g>
      </g>
      <path
         transform="matrix(0.97314497,0,0,0.97314497,-236.75986,-268.94337)"
         style="fill:url(#linearGradient2535-29);fill-opacity:1;stroke:none"
         d="m 137.57703,281.0191 c 1.59929,-0.66295 3.3982,-0.78361 5.10074,-0.46963 1.70253,0.31398 3.31141,1.04948 4.74342,2.02239 2.86402,1.94583 4.98821,4.77774 7.02263,7.57952 4.67189,6.43406 9.16868,13.00227 13.24488,19.8293 3.30635,5.53766 6.34352,11.25685 10.16415,16.45304 2.49398,3.3919 5.3066,6.53947 7.813,9.92221 2.50639,3.38273 4.72794,7.05586 5.83931,11.11662 1.44411,5.27653 0.88463,11.09291 -1.62666,15.95302 -1.76663,3.41896 -4.47646,6.35228 -7.77242,8.33898 -3.29595,1.9867 -7.17064,3.01444 -11.01635,2.87021 -6.11413,-0.2293 -11.69944,-3.28515 -17.38362,-5.54906 -11.58097,-4.6125 -24.15978,-6.0594 -36.09666,-9.65174 -3.66859,-1.10404 -7.27582,-2.4107 -10.96988,-3.42629 -1.64125,-0.45122 -3.30866,-0.8482 -4.85875,-1.55144 -1.55008,-0.70325 -2.999548,-1.7491 -3.86171,-3.21675 -0.666391,-1.13439 -0.948386,-2.47002 -0.930187,-3.78554 0.0182,-1.31552 0.325889,-2.61453 0.773815,-3.85158 0.895851,-2.47409 2.343262,-4.71374 3.320162,-7.15696 1.59511,-3.98935 1.88169,-8.38839 1.66657,-12.67942 -0.21511,-4.29103 -0.91078,-8.54478 -1.20454,-12.83115 -0.13118,-1.91406 -0.18066,-3.85256 0.18479,-5.73598 0.36545,-1.88343 1.17577,-3.72459 2.55771,-5.05541 1.27406,-1.22693 2.96492,-1.95531 4.69643,-2.31651 1.73151,-0.3612 3.51533,-0.37747 5.28367,-0.33762 1.76833,0.0399 3.54067,0.13425 5.30351,-0.0106 1.76284,-0.14488 3.53347,-0.54055 5.06911,-1.41828 1.45996,-0.83447 2.65433,-2.0745 3.64374,-3.43424 0.9894,-1.35974 1.78909,-2.84573 2.60891,-4.31396 0.81983,-1.46823 1.66834,-2.93151 2.74157,-4.22611 1.07324,-1.2946 2.38923,-2.42304 3.94266,-3.06698 z"
         id="path4635-1-3-7-8"
         inkscape:connector-curvature="0"
         sodipodi:nodetypes="ssssssssssssssss"
         inkscape:path-effect="#path-effect4669-1-5-2-6"
         inkscape:original-d="m 137.57703,281.0191 c 6.32494,-1.3585 11.99755,4.87308 16.86679,9.13228 6.42572,5.62067 -8.54781,26.01622 13.24488,19.8293 5.86081,-1.66388 6.89528,11.31183 10.16415,16.45304 4.09971,6.44793 11.58575,13.6827 13.65231,21.03883 1.58383,5.63779 1.34339,10.90606 -1.62666,15.95302 -3.57124,6.06857 -11.7907,10.42929 -18.78877,11.20919 -5.73056,0.63864 -11.87822,-3.8351 -17.38362,-5.54906 -12.31617,-3.83432 -23.77946,-5.82074 -36.09666,-9.65174 -2.50091,-0.77785 -8.28361,-2.638 -10.96988,-3.42629 -4.51043,-1.3236 -6.46556,-0.99271 -8.72046,-4.76819 -2.68251,-4.49147 0.68051,-9.72669 3.16379,-14.79408 4.06995,-8.30524 1.91195,-17.82603 0.46203,-25.51057 -0.92235,-4.8884 -0.66071,-7.92707 2.7425,-10.79139 4.99476,-4.20385 14.53027,-1.53186 20.35272,-4.08305 5.82246,-2.55119 6.66365,-13.6939 12.93688,-15.04129 z" />
    </g>
  </g>
</svg>
