<?xml version="1.0" encoding="UTF-8" standalone="no"?>
<!-- Created with Inkscape (http://www.inkscape.org/) -->

<svg
   xmlns:dc="http://purl.org/dc/elements/1.1/"
   xmlns:cc="http://creativecommons.org/ns#"
   xmlns:rdf="http://www.w3.org/1999/02/22-rdf-syntax-ns#"
   xmlns:svg="http://www.w3.org/2000/svg"
   xmlns="http://www.w3.org/2000/svg"
   xmlns:xlink="http://www.w3.org/1999/xlink"
   xmlns:sodipodi="http://sodipodi.sourceforge.net/DTD/sodipodi-0.dtd"
   xmlns:inkscape="http://www.inkscape.org/namespaces/inkscape"
   width="210.00101mm"
   height="148.16299mm"
   viewBox="0 0 210.00101 148.163"
   version="1.1"
   id="svg1877"
   inkscape:version="0.92.5 (2060ec1f9f, 2020-04-08)"
   sodipodi:docname="linuxinside.svg">
  <defs
     id="defs1871">
    <linearGradient
       y2="363.42557"
       x2="189.87849"
       y1="300.14343"
       x1="104.28743"
       gradientUnits="userSpaceOnUse"
       id="linearGradient2535"
       xlink:href="#linearGradient2359"
       inkscape:collect="always" />
    <linearGradient
       inkscape:collect="always"
       id="linearGradient2359">
      <stop
         style="stop-color:#ebc80e;stop-opacity:1"
         offset="0"
         id="stop2355" />
      <stop
         style="stop-color:#d4aa00;stop-opacity:1"
         offset="1"
         id="stop2357" />
    </linearGradient>
    <inkscape:path-effect
       effect="spiro"
       id="path-effect4669-1-5-2-7"
       is_visible="true" />
    <inkscape:path-effect
       effect="spiro"
       id="path-effect4669-1-5-26"
       is_visible="true" />
  </defs>
  <sodipodi:namedview
     id="base"
     pagecolor="#ffffff"
     bordercolor="#666666"
     borderopacity="1.0"
     inkscape:pageopacity="0.0"
     inkscape:pageshadow="2"
     inkscape:zoom="0.12374369"
     inkscape:cx="-1027.4881"
     inkscape:cy="264.77681"
     inkscape:document-units="mm"
     inkscape:current-layer="layer1"
     showgrid="false"
     inkscape:snap-page="true"
     inkscape:snap-bbox="true"
     inkscape:bbox-paths="true"
     inkscape:bbox-nodes="true"
     inkscape:snap-bbox-edge-midpoints="true"
     inkscape:snap-bbox-midpoints="true"
     inkscape:window-width="1280"
     inkscape:window-height="650"
     inkscape:window-x="0"
     inkscape:window-y="0"
     inkscape:window-maximized="1" />
  <metadata
     id="metadata1874">
    <rdf:RDF>
      <cc:Work
         rdf:about="">
        <dc:format>image/svg+xml</dc:format>
        <dc:type
           rdf:resource="http://purl.org/dc/dcmitype/StillImage" />
        <dc:title></dc:title>
      </cc:Work>
    </rdf:RDF>
  </metadata>
  <g
     inkscape:label="Layer 1"
     inkscape:groupmode="layer"
     id="layer1"
     transform="translate(0,-148.837)">
    <g
       transform="translate(6.7085469e-4,-1.3603839e-5)"
       id="layer1-6"
       inkscape:label="Layer 1">
      <g
         id="g2081"
         transform="matrix(2.6544802,0,0,2.6544802,-131.96057,-354.04254)">
        <rect
           style="fill:#000000;fill-opacity:1;stroke:none;stroke-width:4.1700635;stroke-linecap:round;stroke-miterlimit:4;stroke-dasharray:none;stroke-opacity:1"
           id="rect1813"
           width="79.111786"
           height="55.8162"
           x="49.712143"
           y="189.44559"
           rx="6.8922634"
           ry="6.8922634" />
      </g>
    </g>
    <g
       id="g2496"
       transform="matrix(0.51460389,0,0,0.51460389,114.20674,157.33534)">
      <path
         inkscape:original-d="m 137.57703,281.0191 c 6.32494,-1.3585 11.99755,4.87308 16.86679,9.13228 6.42572,5.62067 -8.54781,26.01622 13.24488,19.8293 5.86081,-1.66388 6.89528,11.31183 10.16415,16.45304 4.09971,6.44793 3.29922,21.89745 5.85154,25.31842 3.50183,4.69365 9.14416,6.62647 6.17411,11.67343 -3.57124,6.06857 -11.7907,10.42929 -18.78877,11.20919 -5.73056,0.63864 -11.87822,-3.8351 -17.38362,-5.54906 -12.31617,-3.83432 -23.77946,-5.82074 -36.09666,-9.65174 -2.50091,-0.77785 -8.28361,-2.638 -10.96988,-3.42629 -4.51043,-1.3236 -6.46556,-0.99271 -8.72046,-4.76819 -2.68251,-4.49147 0.68051,-9.72669 3.16379,-14.79408 4.06995,-8.30524 1.91195,-17.82603 0.46203,-25.51057 -0.92235,-4.8884 -0.66071,-7.92707 2.7425,-10.79139 4.99476,-4.20385 14.53027,-1.53186 20.35272,-4.08305 5.82246,-2.55119 6.66365,-13.6939 12.93688,-15.04129 z"
         inkscape:path-effect="#path-effect4669-1-5-2-7"
         sodipodi:nodetypes="ssssssssssssssss"
         inkscape:connector-curvature="0"
         id="path4635-1-3-7"
         d="m 137.57703,281.0191 c 1.59948,-0.67648 3.40247,-0.814 5.11292,-0.51343 1.71044,0.30058 3.33058,1.02641 4.77087,1.99675 2.88056,1.94067 5.00585,4.7933 6.983,7.64896 4.5251,6.53575 8.58413,13.38959 13.24488,19.8293 3.79536,5.24401 8.05428,10.33317 10.16415,16.45304 1.41901,4.11596 1.7929,8.50391 2.35421,12.82127 0.5613,4.31737 1.35403,8.70757 3.49733,12.49715 1.09592,1.9377 2.51852,3.66872 3.73836,5.5309 1.21985,1.86218 2.25645,3.92361 2.43575,6.14253 0.16993,2.10297 -0.46156,4.23881 -1.63353,5.99319 -1.17196,1.75439 -2.86403,3.13414 -4.75961,4.06051 -3.79116,1.85274 -8.23909,1.88263 -12.39563,1.15549 -5.99985,-1.04961 -11.62689,-3.5591 -17.38362,-5.54906 -11.77552,-4.07051 -24.18782,-5.98957 -36.09666,-9.65174 -3.66191,-1.1261 -7.27421,-2.41646 -10.96988,-3.42629 -1.64216,-0.44871 -3.30996,-0.8453 -4.86006,-1.54902 -1.5501,-0.70373 -2.998967,-1.75085 -3.8604,-3.21917 -0.6657,-1.13469 -0.947201,-2.47026 -0.92877,-3.78569 0.01843,-1.31542 0.326116,-2.61431 0.773913,-3.85131 0.895592,-2.47399 2.342277,-4.71384 3.318647,-7.15708 1.59432,-3.9896 1.88052,-8.38851 1.66544,-12.67949 -0.21508,-4.29097 -0.91033,-8.54472 -1.20341,-12.83108 -0.13087,-1.914 -0.18,-3.8524 0.18553,-5.73573 0.36554,-1.88333 1.1756,-3.72437 2.55697,-5.05566 1.27357,-1.2274 2.96386,-1.95681 4.6951,-2.31912 1.73125,-0.3623 3.51504,-0.37971 5.28336,-0.34051 1.76831,0.0392 3.54058,0.13345 5.30345,-0.0106 1.76287,-0.14407 3.53361,-0.53787 5.07081,-1.41279 1.46103,-0.83156 2.65822,-2.06792 3.65078,-3.42473 0.99256,-1.3568 1.79559,-2.84043 2.61707,-4.30716 0.82147,-1.46672 1.6698,-2.92919 2.7402,-4.22547 1.0704,-1.29629 2.38051,-2.42909 3.92883,-3.08393 z"
         style="fill:url(#linearGradient2535);fill-opacity:1;stroke:none"
         transform="matrix(1.2556082,0,0,1.2556082,-256.84539,-304.60499)" />
      <g
         id="text999"
         style="font-style:italic;font-variant:normal;font-weight:bold;font-stretch:normal;font-size:24.91216469px;line-height:1.25;font-family:BPreplay;-inkscape-font-specification:'BPreplay Bold Italic';letter-spacing:0px;word-spacing:0px;fill:#ffffff;fill-opacity:1;stroke:#ffffff;stroke-width:4.95451641;stroke-miterlimit:4;stroke-dasharray:none"
         aria-label="GNU/ Linux"
         transform="matrix(2.2572662,0,0,2.2572662,-164.64426,13.743941)">
        <path
           id="path1701"
           style="font-size:19.92973137px;fill:#ffffff;stroke:#ffffff;stroke-width:4.95451641;stroke-miterlimit:4;stroke-dasharray:none"
           d="m 62.405187,31.429889 c -2.192271,0 -3.208687,-1.833536 -3.208687,-3.886298 0,-2.391568 1.335292,-5.819482 4.364611,-5.819482 0.77726,0 1.694027,0.159438 2.491216,0.956627 0.338806,0.358736 0.75733,0.518173 1.155925,0.518173 0.936697,0 1.594378,-0.856978 1.594378,-1.773746 0,-1.753816 -2.590865,-3.009389 -4.842924,-3.009389 -5.022293,0 -8.131331,4.743276 -8.131331,9.546341 0,3.547492 1.913254,6.736249 6.158287,6.736249 4.304822,0 7.214563,-3.388054 7.214563,-7.633087 0,-1.016416 -0.338805,-1.833535 -1.873395,-1.833535 h -4.005876 c -1.096135,0 -1.973043,0.637751 -1.973043,1.893325 0,0.856978 0.518173,1.315362 1.574449,1.315362 h 2.889811 c -0.398595,1.893324 -1.594379,2.98946 -3.407984,2.98946 z"
           inkscape:connector-curvature="0" />
        <path
           id="path1703"
           style="font-size:19.92973137px;fill:#ffffff;stroke:#ffffff;stroke-width:4.95451641;stroke-miterlimit:4;stroke-dasharray:none"
           d="m 70.875287,20.687763 c -1.295432,12.276715 -1.295432,12.376363 -1.295432,12.476012 0,0.876908 0.478313,1.315362 1.45487,1.315362 1.056276,0 1.634238,-0.538102 1.753816,-1.634238 l 0.77726,-7.433789 4.683487,8.13133 c 0.358735,0.617822 0.936697,0.936697 1.594378,0.936697 1.056276,0 1.654168,-0.577962 1.773746,-1.733886 1.275503,-12.256785 1.295433,-12.356434 1.295433,-12.436153 0,-0.896837 -0.478314,-1.335292 -1.4748,-1.335292 -1.036346,0 -1.614309,0.538103 -1.733887,1.614309 l -0.797189,7.573298 -4.623698,-8.151261 c -0.398594,-0.69754 -0.956627,-1.056275 -1.654168,-1.056275 -1.036346,0 -1.634238,0.577962 -1.753816,1.733886 z"
           inkscape:connector-curvature="0" />
        <path
           id="path1705"
           style="font-size:19.92973137px;fill:#ffffff;stroke:#ffffff;stroke-width:4.95451641;stroke-miterlimit:4;stroke-dasharray:none"
           d="m 84.248101,20.687763 c -0.837049,8.011752 -0.856978,8.390417 -0.856978,8.749152 0,3.866368 2.371638,5.261449 5.460746,5.261449 3.328265,0 6.397444,-1.634238 6.895687,-6.397443 0.817119,-7.732736 0.817119,-7.832385 0.817119,-7.932033 0,-0.956627 -0.498243,-1.395082 -1.514659,-1.395082 -1.116065,0 -1.733887,0.538103 -1.853466,1.713957 l -0.777259,7.47365 c -0.259087,2.511146 -1.49473,3.188757 -3.029319,3.188757 -1.415011,0 -2.630725,-0.597892 -2.630725,-2.590865 0,-0.159438 0.01993,-0.338806 0.03986,-0.597892 0.797189,-7.593228 0.797189,-7.712806 0.797189,-7.812455 0,-0.936697 -0.498243,-1.375152 -1.49473,-1.375152 -1.116065,0 -1.733886,0.538103 -1.853465,1.713957 z"
           inkscape:connector-curvature="0" />
        <path
           id="path1707"
           style="font-size:19.92973137px;fill:#ffffff;stroke:#ffffff;stroke-width:4.95451641;stroke-miterlimit:4;stroke-dasharray:none"
           d="m 99.235249,32.645602 c -0.139509,0.219227 -0.199298,0.538103 -0.199298,0.817119 0,0.797189 0.558033,1.295433 1.215709,1.295433 0.77726,0 1.35523,-0.538103 1.45488,-0.837049 l 6.27786,-12.476012 c 0.13951,-0.259086 0.21923,-0.518173 0.25909,-0.976557 0,-0.69754 -0.47832,-1.295432 -1.27551,-1.295432 -0.67761,0 -1.25557,0.358735 -1.65416,1.096135 z"
           inkscape:connector-curvature="0" />
        <path
           id="path1709"
           style="fill:#ffffff;stroke:#ffffff;stroke-width:4.95451641;stroke-miterlimit:4;stroke-dasharray:none"
           d="m 56.625564,43.522842 c -1.594378,15.096772 -1.594378,15.246245 -1.594378,15.395718 0,1.320344 0.672628,1.992973 2.06771,1.992973 h 7.94698 c 1.395081,0 2.242095,-0.896838 2.242095,-2.341744 0,-1.071223 -0.597892,-1.644202 -1.8435,-1.644202 h -6.252954 c 1.444906,-13.527306 1.444906,-13.676779 1.444906,-13.80134 0,-1.096135 -0.597892,-1.61929 -1.8435,-1.61929 -1.295433,0 -2.017886,0.647716 -2.167359,2.017885 z"
           inkscape:connector-curvature="0" />
        <path
           id="path1711"
           style="fill:#ffffff;stroke:#ffffff;stroke-width:4.95451641;stroke-miterlimit:4;stroke-dasharray:none"
           d="m 69.156369,48.530187 c -0.946663,8.893643 -0.946663,9.068028 -0.946663,9.267325 0,2.042798 1.245609,3.313318 4.010859,3.313318 1.27052,0 2.291919,-0.772277 2.291919,-2.142446 0,-1.046311 -0.672628,-1.594379 -1.918237,-1.594379 -0.34877,0 -0.398594,-0.323858 -0.398594,-0.597891 v -0.174386 c 0.847013,-8.196102 0.871926,-8.29575 0.871926,-8.395399 0,-1.096135 -0.622805,-1.594379 -1.793676,-1.594379 -1.245609,0 -1.992974,0.622804 -2.117534,1.918237 z m 0.224209,-5.40594 c 0,1.121048 0.847014,1.992973 1.992973,1.992973 1.395082,0 2.491217,-1.220696 2.491217,-2.491216 0,-1.121047 -0.847014,-1.943149 -2.017886,-1.943149 -1.220696,0 -2.316831,0.971575 -2.466304,2.441392 z"
           inkscape:connector-curvature="0" />
        <path
           id="path1713"
           style="fill:#ffffff;stroke:#ffffff;stroke-width:4.95451641;stroke-miterlimit:4;stroke-dasharray:none"
           d="m 76.754545,48.480363 c -1.121048,10.637494 -1.121048,10.762055 -1.121048,10.886616 0,1.021398 0.57298,1.544554 1.694027,1.544554 1.320345,0 2.017886,-0.647716 2.142447,-1.918237 l 0.722452,-6.950494 c 0.149473,-1.469817 1.195784,-2.217182 2.192271,-2.217182 0.822101,0 1.644203,0.622804 1.644203,1.893324 0,0.09965 -0.02491,0.199297 -0.747365,7.274352 -0.02491,0.124561 -0.02491,0.22421 -0.02491,0.348771 0,1.04631 0.622804,1.569466 1.743851,1.569466 1.295433,0 2.017886,-0.647716 2.142446,-1.918237 0.822102,-7.922068 0.847014,-8.196102 0.847014,-8.445224 0,-3.039284 -1.968061,-4.135419 -3.736825,-4.135419 -1.49473,0 -2.690514,0.797189 -3.662088,1.793676 v -0.149473 c 0,-0.747365 -0.523155,-1.569466 -1.768764,-1.569466 -1.245608,0 -1.968061,0.946662 -2.067709,1.992973 z"
           inkscape:connector-curvature="0" />
        <path
           id="path1715"
           style="fill:#ffffff;stroke:#ffffff;stroke-width:4.95451641;stroke-miterlimit:4;stroke-dasharray:none"
           d="m 92.997261,54.608755 c 0.647717,-6.551899 0.647717,-6.67646 0.647717,-6.801021 0,-1.046311 -0.57298,-1.519642 -1.743852,-1.519642 -1.27052,0 -1.943149,0.597892 -2.092622,1.918237 -0.747365,7.274352 -0.772277,7.623122 -0.772277,7.922068 0,3.163845 1.793676,4.932609 3.886298,4.932609 1.370169,0 2.864899,-0.747365 4.060683,-2.142446 l -0.07474,0.747365 v 0.199297 c 0,0.971574 0.672629,1.370169 1.295433,1.370169 1.295432,0 1.992979,-0.647716 2.117539,-1.8435 1.19578,-11.409772 1.19578,-11.534332 1.19578,-11.658893 0,-1.046311 -0.57298,-1.569467 -1.718941,-1.569467 -1.395081,0 -1.943149,0.722453 -2.067709,1.968061 l -0.57298,5.530501 c -0.249122,2.391568 -1.569467,3.687 -2.740338,3.687 -0.747365,0 -1.469818,-0.34877 -1.469818,-2.017885 0,-0.199297 0.02491,-0.448419 0.04982,-0.722453 z"
           inkscape:connector-curvature="0" />
        <path
           id="path1717"
           style="fill:#ffffff;stroke:#ffffff;stroke-width:4.95451641;stroke-miterlimit:4;stroke-dasharray:none"
           d="m 102.38911,57.448742 c -0.44842,0.548068 -0.79719,1.195784 -0.79719,1.968061 0,0.971574 0.54807,1.444906 1.59438,1.444906 0.72245,0 1.39508,-0.348771 1.96806,-1.046311 0.92175,-1.14596 1.8435,-2.341744 2.76525,-3.462791 l 2.06771,3.412966 c 0.3986,0.772277 1.12105,1.14596 1.91824,1.14596 1.19578,0 1.99297,-0.847014 1.99297,-2.167358 0,-0.473332 -0.12456,-0.971575 -0.44842,-1.395082 l -2.98946,-4.03577 3.33823,-3.687001 c 0.3986,-0.423507 0.59789,-0.871925 0.64772,-1.519642 0,-0.996486 -0.74737,-1.718939 -1.76877,-1.718939 -0.72245,0 -1.39508,0.298946 -1.8435,0.946662 l -2.16735,3.114021 -1.44491,-3.064197 c -0.37368,-0.647716 -0.92175,-0.971574 -1.69403,-0.971574 -1.12104,0 -2.16736,0.971574 -2.16736,2.142446 0,0.373683 0.12457,0.772277 0.32386,1.071223 l 2.54104,3.811561 z"
           inkscape:connector-curvature="0" />
      </g>
      <path
         sodipodi:nodetypes="ssscsssssssssscs"
         inkscape:connector-curvature="0"
         id="path1720"
         style="font-style:italic;font-variant:normal;font-weight:bold;font-stretch:normal;font-size:19.92973137px;line-height:1.25;font-family:BPreplay;-inkscape-font-specification:'BPreplay Bold Italic';letter-spacing:0px;word-spacing:0px;fill:#000000;fill-opacity:1;stroke:none;stroke-width:1.40583467"
         d="m -23.779131,84.689582 c -4.94854,0 -7.242861,-4.138785 -7.242861,-8.772418 0,-5.39841 3.01411,-13.136115 9.852092,-13.136115 1.754481,0 3.823869,0.359875 5.623337,2.159345 0.764778,0.809772 1.709495,1.169671 2.609231,1.169671 2.114374,0 3.5989333,-1.934432 3.5989333,-4.003826 0,-3.958838 -5.8482703,-6.792995 -10.9317673,-6.792995 -11.336654,0 -18.354579,10.706846 -18.354579,21.548628 0,8.007632 4.318727,15.205519 13.900896,15.205519 9.717127,0 16.28519,-7.647733 16.28519,-17.229925 0,-2.294305 -0.7647775,-4.138762 -4.228752,-4.138762 h -9.042331 c -2.474265,0 -4.453683,1.439571 -4.453683,4.273725 0,1.93443 1.169657,2.96914 3.553949,2.96914 h 6.523073 c 0,3.812907 -2.241519,6.748013 -7.692728,6.748013 z" />
      <path
         id="path1722"
         style="font-style:italic;font-variant:normal;font-weight:bold;font-stretch:normal;font-size:19.92973137px;line-height:1.25;font-family:BPreplay;-inkscape-font-specification:'BPreplay Bold Italic';letter-spacing:0px;word-spacing:0px;fill:#000000;fill-opacity:1;stroke:none;stroke-width:1.40583467"
         d="m -4.6598584,60.44173 c -2.9241337,27.711827 -2.9241337,27.936736 -2.9241337,28.161673 0,1.979418 1.0796809,2.969126 3.2840288,2.969126 2.3842933,0 3.68891268,-1.214645 3.95883151,-3.688897 L 1.413349,71.103589 11.985226,89.458163 c 0.80976,1.394582 2.114374,2.114366 3.598938,2.114366 2.384294,0 3.733895,-1.30462 4.003817,-3.913834 2.879149,-27.666837 2.924135,-27.891774 2.924135,-28.0717 0,-2.024407 -1.079682,-3.014128 -3.329019,-3.014128 -2.339304,0 -3.643922,1.214657 -3.913843,3.643928 L 13.469785,77.311746 3.0328691,58.912184 c -0.8997342,-1.574533 -2.15936193,-2.384305 -3.73389453,-2.384305 -2.33930867,0 -3.68891127,1.304632 -3.95883297,3.913851 z"
         inkscape:connector-curvature="0" />
      <path
         id="path1724"
         style="font-style:italic;font-variant:normal;font-weight:bold;font-stretch:normal;font-size:19.92973137px;line-height:1.25;font-family:BPreplay;-inkscape-font-specification:'BPreplay Bold Italic';letter-spacing:0px;word-spacing:0px;fill:#000000;fill-opacity:1;stroke:none;stroke-width:1.40583467"
         d="m 25.526144,60.44173 c -1.889442,18.084648 -1.934425,18.939408 -1.934425,19.749168 0,8.727417 5.353418,11.876493 12.326357,11.876493 7.512781,0 14.440731,-3.688925 15.565402,-14.440733 1.844453,-17.454851 1.844453,-17.679788 1.844453,-17.904702 0,-2.159368 -1.124665,-3.149089 -3.418991,-3.149089 -2.519251,0 -3.913842,1.214657 -4.183764,3.868863 l -1.754478,16.870016 c -0.584831,5.668343 -3.374008,7.197887 -6.837981,7.197887 -3.194057,0 -5.93825,-1.349594 -5.93825,-5.848293 0,-0.359899 0.04496,-0.764758 0.08997,-1.349594 C 33.0839,60.171807 33.0839,59.901883 33.0839,59.676968 c 0,-2.11438 -1.124665,-3.104101 -3.374001,-3.104101 -2.519259,0 -3.913843,1.214657 -4.183765,3.868863 z"
         inkscape:connector-curvature="0" />
      <path
         id="path1726"
         style="font-style:italic;font-variant:normal;font-weight:bold;font-stretch:normal;font-size:19.92973137px;line-height:1.25;font-family:BPreplay;-inkscape-font-specification:'BPreplay Bold Italic';letter-spacing:0px;word-spacing:0px;fill:#000000;fill-opacity:1;stroke:none;stroke-width:1.40583467"
         d="m 59.35613,87.433758 c -0.314911,0.494862 -0.449869,1.214632 -0.449869,1.844456 0,1.799468 1.259629,2.924139 2.744177,2.924139 1.754485,0 3.059115,-1.214646 3.284051,-1.889457 L 79.105294,62.151227 c 0.314911,-0.584837 0.494859,-1.169649 0.584831,-2.204357 0,-1.574534 -1.079694,-2.924131 -2.879162,-2.924131 -1.529549,0 -2.834156,0.809772 -3.733878,2.474281 z"
         inkscape:connector-curvature="0" />
      <path
         id="path1728"
         style="font-style:italic;font-variant:normal;font-weight:bold;font-stretch:normal;font-size:24.91216469px;line-height:1.25;font-family:BPreplay;-inkscape-font-specification:'BPreplay Bold Italic';letter-spacing:0px;word-spacing:0px;fill:#000000;fill-opacity:1;stroke:none;stroke-width:1.40583467"
         d="m -36.825277,111.98659 c -3.598938,34.07743 -3.598938,34.41482 -3.598938,34.75224 0,2.98036 1.518303,4.49865 4.667375,4.49865 h 17.93845 c 3.14907,0 5.061004,-2.0244 5.061004,-5.28592 0,-2.41806 -1.349601,-3.7114 -4.16127,-3.7114 h -14.114582 c 3.261538,-30.53474 3.261538,-30.87214 3.261538,-31.15332 0,-2.47425 -1.349601,-3.65517 -4.161271,-3.65517 -2.924135,0 -4.554903,1.46208 -4.892306,4.55492 z"
         inkscape:connector-curvature="0" />
      <path
         id="path1730"
         style="font-style:italic;font-variant:normal;font-weight:bold;font-stretch:normal;font-size:24.91216469px;line-height:1.25;font-family:BPreplay;-inkscape-font-specification:'BPreplay Bold Italic';letter-spacing:0px;word-spacing:0px;fill:#000000;fill-opacity:1;stroke:none;stroke-width:1.40583467"
         d="m -8.5399129,123.28949 c -2.1368741,20.07534 -2.1368741,20.46895 -2.1368741,20.91882 0,4.61116 2.8116768,7.47905 9.0535772,7.47905 2.8679051,0 5.173476,-1.74324 5.173476,-4.83608 0,-2.3618 -1.5183025,-3.59894 -4.32997197,-3.59894 -0.78726843,0 -0.89973413,-0.73101 -0.89973413,-1.34959 v -0.39363 c 1.91193396,-18.5008 1.96817102,-18.72571 1.96817102,-18.95065 0,-2.47428 -1.40583822,-3.59895 -4.04880632,-3.59895 -2.8116695,0 -4.4986734,1.40583 -4.7798377,4.32997 z m 0.5061013,-12.20265 c 0,2.53051 1.911934,4.49868 4.4986664,4.49868 3.14907083,0 5.6233446,-2.75543 5.6233446,-5.62334 0,-2.53051 -1.911941,-4.38621 -4.5549091,-4.38621 -2.7554338,0 -5.2297061,2.19312 -5.5671019,5.51087 z"
         inkscape:connector-curvature="0" />
      <path
         id="path1732"
         style="font-style:italic;font-variant:normal;font-weight:bold;font-stretch:normal;font-size:24.91216469px;line-height:1.25;font-family:BPreplay;-inkscape-font-specification:'BPreplay Bold Italic';letter-spacing:0px;word-spacing:0px;fill:#000000;fill-opacity:1;stroke:none;stroke-width:1.40583467"
         d="m 8.6111954,123.17702 c -2.5305038,24.01165 -2.5305038,24.29282 -2.5305038,24.57398 0,2.30558 1.2933655,3.48648 3.8238693,3.48648 2.9803711,0 4.5549021,-1.46207 4.8360691,-4.32996 l 1.630768,-15.68911 c 0.337402,-3.31778 2.699204,-5.00477 4.948541,-5.00477 1.855698,0 3.711403,1.40582 3.711403,4.27372 0,0.22483 -0.05621,0.44988 -1.687004,16.42016 -0.05621,0.28115 -0.05621,0.50609 -0.05621,0.78726 0,2.3618 1.40583,3.5427 3.936334,3.5427 2.924135,0 4.554909,-1.46207 4.836069,-4.32996 1.855705,-17.88223 1.911941,-18.5008 1.911941,-19.06312 0,-6.86046 -4.442438,-9.33474 -8.435014,-9.33474 -3.374001,0 -6.073206,1.79947 -8.266306,4.04881 v -0.33742 c 0,-1.68698 -1.180902,-3.54268 -3.99257,-3.54268 -2.81167,0 -4.4424382,2.13686 -4.6673752,4.49865 z"
         inkscape:connector-curvature="0" />
      <path
         id="path1734"
         style="font-style:italic;font-variant:normal;font-weight:bold;font-stretch:normal;font-size:24.91216469px;line-height:1.25;font-family:BPreplay;-inkscape-font-specification:'BPreplay Bold Italic';letter-spacing:0px;word-spacing:0px;fill:#000000;fill-opacity:1;stroke:none;stroke-width:1.40583467"
         d="m 45.275328,137.01044 c 1.462067,-14.78939 1.462067,-15.07056 1.462067,-15.35171 0,-2.3618 -1.293366,-3.43024 -3.936334,-3.43024 -2.867906,0 -4.386209,1.3496 -4.723605,4.32998 -1.687004,16.42014 -1.743239,17.20741 -1.743239,17.88222 0,7.14164 4.048807,11.1342 8.772409,11.1342 3.092841,0 6.466845,-1.687 9.166048,-4.83606 l -0.168708,1.68698 v 0.44988 c 0,2.19309 1.518302,3.09284 2.924135,3.09284 2.924134,0 4.498684,-1.46208 4.779851,-4.16127 2.699192,-25.75489 2.699192,-26.03608 2.699192,-26.31725 0,-2.3618 -1.293366,-3.54269 -3.880106,-3.54269 -3.149069,0 -4.386206,1.63077 -4.667372,4.44244 L 54.6663,134.87358 c -0.562334,5.3984 -3.542709,8.32253 -6.185672,8.32253 -1.687004,0 -3.317771,-0.78727 -3.317771,-4.55489 0,-0.44987 0.05625,-1.0122 0.112457,-1.63078 z"
         inkscape:connector-curvature="0" />
      <path
         id="path1736"
         style="font-style:italic;font-variant:normal;font-weight:bold;font-stretch:normal;font-size:24.91216469px;line-height:1.25;font-family:BPreplay;-inkscape-font-specification:'BPreplay Bold Italic';letter-spacing:0px;word-spacing:0px;fill:#000000;fill-opacity:1;stroke:none;stroke-width:1.40583467"
         d="m 66.475229,143.42105 c -1.012198,1.23714 -1.799467,2.6992 -1.799467,4.44243 0,2.1931 1.237142,3.26155 3.598937,3.26155 1.630763,0 3.149073,-0.78727 4.442438,-2.3618 2.080636,-2.58673 4.161271,-5.28595 6.241906,-7.81646 l 4.667375,7.70398 c 0.899747,1.74325 2.530508,2.58673 4.329979,2.58673 2.699191,0 4.498664,-1.91192 4.498664,-4.89229 0,-1.06844 -0.281166,-2.1931 -1.012204,-3.14908 l -6.748009,-9.10981 7.535276,-8.32253 c 0.899746,-0.95598 1.349596,-1.96818 1.462076,-3.43023 0,-2.24935 -1.687014,-3.88011 -3.992589,-3.88011 -1.630762,0 -3.149065,0.67478 -4.161263,2.13686 l -4.89229,7.02917 -3.261546,-6.91669 c -0.8435,-1.46208 -2.080635,-2.19311 -3.823878,-2.19311 -2.53049,0 -4.892307,2.19311 -4.892307,4.83608 0,0.84349 0.281182,1.74322 0.731038,2.41803 l 5.735803,8.6037 z"
         inkscape:connector-curvature="0" />
    </g>
    <text
       xml:space="preserve"
       style="font-style:normal;font-variant:normal;font-weight:bold;font-stretch:normal;font-size:19.75555611px;line-height:1.25;font-family:BPreplay;-inkscape-font-specification:'BPreplay Bold';letter-spacing:0px;word-spacing:0px;fill:#ffffff;fill-opacity:1;stroke:none;stroke-width:0.26458332"
       x="78.685959"
       y="270.28485"
       id="text3530"><tspan
         sodipodi:role="line"
         id="tspan3528"
         x="78.685959"
         y="270.28485"
         style="font-style:normal;font-variant:normal;font-weight:bold;font-stretch:normal;font-size:19.75555611px;font-family:BPreplay;-inkscape-font-specification:'BPreplay Bold';fill:#ffffff;stroke-width:0.26458332">inside</tspan></text>
  </g>
</svg>
