<?xml version="1.0" encoding="UTF-8" standalone="no"?>
<!-- Created with Inkscape (http://www.inkscape.org/) -->

<svg
   xmlns:dc="http://purl.org/dc/elements/1.1/"
   xmlns:cc="http://creativecommons.org/ns#"
   xmlns:rdf="http://www.w3.org/1999/02/22-rdf-syntax-ns#"
   xmlns:svg="http://www.w3.org/2000/svg"
   xmlns="http://www.w3.org/2000/svg"
   xmlns:xlink="http://www.w3.org/1999/xlink"
   xmlns:sodipodi="http://sodipodi.sourceforge.net/DTD/sodipodi-0.dtd"
   xmlns:inkscape="http://www.inkscape.org/namespaces/inkscape"
   width="53.011002mm"
   height="76.606003mm"
   viewBox="0 0 53.011002 76.606003"
   version="1.1"
   id="svg8"
   inkscape:version="0.92.5 (2060ec1f9f, 2020-04-08)"
   sodipodi:docname="linux5.6.svg">
  <defs
     id="defs2">
    <inkscape:path-effect
       effect="spiro"
       id="path-effect4669-1-5"
       is_visible="true" />
    <inkscape:path-effect
       effect="spiro"
       id="path-effect4669-1-5-2"
       is_visible="true" />
    <linearGradient
       y2="363.42557"
       x2="189.87849"
       y1="300.14343"
       x1="104.28743"
       gradientUnits="userSpaceOnUse"
       id="linearGradient2535"
       xlink:href="#linearGradient2359"
       inkscape:collect="always" />
    <linearGradient
       inkscape:collect="always"
       id="linearGradient2359">
      <stop
         style="stop-color:#ebc80e;stop-opacity:1"
         offset="0"
         id="stop2355" />
      <stop
         style="stop-color:#d4aa00;stop-opacity:1"
         offset="1"
         id="stop2357" />
    </linearGradient>
    <inkscape:path-effect
       effect="spiro"
       id="path-effect4669-1-5-2-7"
       is_visible="true" />
    <inkscape:path-effect
       effect="spiro"
       id="path-effect4669-1-5-8"
       is_visible="true" />
    <inkscape:path-effect
       effect="spiro"
       id="path-effect4669-1-5-2-0"
       is_visible="true" />
    <linearGradient
       y2="363.42557"
       x2="189.87849"
       y1="300.14343"
       x1="104.28743"
       gradientUnits="userSpaceOnUse"
       id="linearGradient2535-2"
       xlink:href="#linearGradient2359"
       inkscape:collect="always" />
    <inkscape:path-effect
       effect="spiro"
       id="path-effect4669-1-5-2-7-7"
       is_visible="true" />
    <inkscape:path-effect
       effect="spiro"
       id="path-effect4669-1-5-6"
       is_visible="true" />
    <inkscape:path-effect
       effect="spiro"
       id="path-effect4669-1-5-2-1"
       is_visible="true" />
    <inkscape:path-effect
       effect="spiro"
       id="path-effect4669-1-5-2-6"
       is_visible="true" />
    <inkscape:path-effect
       effect="spiro"
       id="path-effect4669-1-5-2-6-3"
       is_visible="true" />
    <linearGradient
       y2="363.42557"
       x2="189.87849"
       y1="300.14343"
       x1="104.28743"
       gradientUnits="userSpaceOnUse"
       id="linearGradient2535-29-4"
       xlink:href="#linearGradient2359"
       inkscape:collect="always" />
    <inkscape:path-effect
       effect="spiro"
       id="path-effect4669-1-5-2-6-3-6"
       is_visible="true" />
  </defs>
  <sodipodi:namedview
     id="base"
     pagecolor="#ffffff"
     bordercolor="#666666"
     borderopacity="1.0"
     inkscape:pageopacity="0.0"
     inkscape:pageshadow="2"
     inkscape:zoom="2.8"
     inkscape:cx="83.426989"
     inkscape:cy="52.071045"
     inkscape:document-units="mm"
     inkscape:current-layer="g1699"
     showgrid="false"
     inkscape:object-paths="true"
     inkscape:snap-intersection-paths="true"
     inkscape:snap-smooth-nodes="true"
     inkscape:snap-midpoints="true"
     inkscape:snap-bbox="true"
     inkscape:bbox-paths="true"
     inkscape:bbox-nodes="true"
     inkscape:snap-bbox-edge-midpoints="true"
     inkscape:snap-bbox-midpoints="true"
     inkscape:snap-page="true"
     inkscape:window-width="1280"
     inkscape:window-height="650"
     inkscape:window-x="0"
     inkscape:window-y="0"
     inkscape:window-maximized="1" />
  <metadata
     id="metadata5">
    <rdf:RDF>
      <cc:Work
         rdf:about="">
        <dc:format>image/svg+xml</dc:format>
        <dc:type
           rdf:resource="http://purl.org/dc/dcmitype/StillImage" />
        <dc:title></dc:title>
      </cc:Work>
    </rdf:RDF>
  </metadata>
  <g
     inkscape:label="Layer 1"
     inkscape:groupmode="layer"
     id="layer1"
     transform="translate(0,-220.394)">
    <g
       id="g1699"
       transform="translate(-137.43888,100.75898)">
      <path
         transform="matrix(0.55625169,0,0,0.55625169,83.489082,-12.15715)"
         style="fill:url(#linearGradient2535-29-4);fill-opacity:1;stroke:none"
         d="m 137.57703,281.0191 c 1.59929,-0.66295 3.3982,-0.78361 5.10074,-0.46963 1.70253,0.31398 3.31141,1.04948 4.74342,2.02239 2.86402,1.94583 4.98821,4.77774 7.02263,7.57952 4.67189,6.43406 9.16868,13.00227 13.24488,19.8293 3.30635,5.53766 6.34352,11.25685 10.16415,16.45304 2.49398,3.3919 5.3066,6.53947 7.813,9.92221 2.50639,3.38273 4.72794,7.05586 5.83931,11.11662 1.44411,5.27653 0.88463,11.09291 -1.62666,15.95302 -1.76663,3.41896 -4.47646,6.35228 -7.77242,8.33898 -3.29595,1.9867 -7.17064,3.01444 -11.01635,2.87021 -6.11413,-0.2293 -11.69944,-3.28515 -17.38362,-5.54906 -11.58097,-4.6125 -24.15978,-6.0594 -36.09666,-9.65174 -3.66859,-1.10404 -7.27582,-2.4107 -10.96988,-3.42629 -1.64125,-0.45122 -3.30866,-0.8482 -4.85875,-1.55144 -1.55008,-0.70325 -2.999548,-1.7491 -3.86171,-3.21675 -0.666391,-1.13439 -0.948386,-2.47002 -0.930187,-3.78554 0.0182,-1.31552 0.325889,-2.61453 0.773815,-3.85158 0.895851,-2.47409 2.343262,-4.71374 3.320162,-7.15696 1.59511,-3.98935 1.88169,-8.38839 1.66657,-12.67942 -0.21511,-4.29103 -0.91078,-8.54478 -1.20454,-12.83115 -0.13118,-1.91406 -0.18066,-3.85256 0.18479,-5.73598 0.36545,-1.88343 1.17577,-3.72459 2.55771,-5.05541 1.27406,-1.22693 2.96492,-1.95531 4.69643,-2.31651 1.73151,-0.3612 3.51533,-0.37747 5.28367,-0.33762 1.76833,0.0399 3.54067,0.13425 5.30351,-0.0106 1.76284,-0.14488 3.53347,-0.54055 5.06911,-1.41828 1.45996,-0.83447 2.65433,-2.0745 3.64374,-3.43424 0.9894,-1.35974 1.78909,-2.84573 2.60891,-4.31396 0.81983,-1.46823 1.66834,-2.93151 2.74157,-4.22611 1.07324,-1.2946 2.38923,-2.42304 3.94266,-3.06698 z"
         id="path4635-1-3-7-8-6"
         inkscape:connector-curvature="0"
         sodipodi:nodetypes="ssssssssssssssss"
         inkscape:path-effect="#path-effect4669-1-5-2-6-3-6"
         inkscape:original-d="m 137.57703,281.0191 c 6.32494,-1.3585 11.99755,4.87308 16.86679,9.13228 6.42572,5.62067 -8.54781,26.01622 13.24488,19.8293 5.86081,-1.66388 6.89528,11.31183 10.16415,16.45304 4.09971,6.44793 11.58575,13.6827 13.65231,21.03883 1.58383,5.63779 1.34339,10.90606 -1.62666,15.95302 -3.57124,6.06857 -11.7907,10.42929 -18.78877,11.20919 -5.73056,0.63864 -11.87822,-3.8351 -17.38362,-5.54906 -12.31617,-3.83432 -23.77946,-5.82074 -36.09666,-9.65174 -2.50091,-0.77785 -8.28361,-2.638 -10.96988,-3.42629 -4.51043,-1.3236 -6.46556,-0.99271 -8.72046,-4.76819 -2.68251,-4.49147 0.68051,-9.72669 3.16379,-14.79408 4.06995,-8.30524 1.91195,-17.82603 0.46203,-25.51057 -0.92235,-4.8884 -0.66071,-7.92707 2.7425,-10.79139 4.99476,-4.20385 14.53027,-1.53186 20.35272,-4.08305 5.82246,-2.55119 6.66365,-13.6939 12.93688,-15.04129 z" />
      <g
         aria-label="5.6"
         style="font-style:normal;font-variant:normal;font-weight:bold;font-stretch:normal;font-size:25.94375992px;line-height:1.25;font-family:BPreplay;-inkscape-font-specification:'BPreplay Bold';letter-spacing:0px;word-spacing:0px;fill:#ffffff;fill-opacity:1;stroke:none;stroke-width:0.64859396"
         id="text1673">
        <path
           d="m 149.98846,162.60457 c -1.32313,0 -2.17928,0.72642 -2.41277,1.89389 -1.19342,6.12273 -1.21936,6.53783 -1.21936,6.66755 0,1.55662 0.90803,1.99767 2.0755,1.99767 0.77831,0 1.45285,-0.38916 2.309,-0.38916 1.76417,0 2.62032,1.40096 2.62032,2.75004 0,1.37502 -1.01181,2.72409 -2.56844,2.72409 -0.90803,0 -1.99767,-0.46698 -2.51654,-1.14152 -0.4151,-0.57077 -1.06369,-0.88209 -1.63446,-0.88209 -0.95992,0 -1.89389,0.70048 -1.89389,1.99767 0,1.73823 2.59437,4.07317 5.94112,4.07317 4.5661,0 6.84915,-3.5543 6.84915,-6.97887 0,-3.3208 -2.12739,-6.53783 -6.71943,-6.53783 0.1816,-1.06369 0.23349,-1.40096 0.31132,-1.99767 h 4.30667 c 1.37502,0 2.02361,-0.67454 2.02361,-2.02361 0,-1.16747 -0.75237,-2.15333 -2.02361,-2.15333 z"
           style="font-style:normal;font-variant:normal;font-weight:bold;font-stretch:normal;font-family:BPreplay;-inkscape-font-specification:'BPreplay Bold';fill:#ffffff;stroke-width:0.64859396"
           id="path3369" />
        <path
           d="m 159.12064,179.7015 c 0,1.29719 1.03775,2.309 2.309,2.309 1.32313,0 2.33493,-1.01181 2.33493,-2.309 0,-1.29718 -1.0118,-2.30899 -2.33493,-2.30899 -1.27125,0 -2.309,1.01181 -2.309,2.30899 z"
           style="font-style:normal;font-variant:normal;font-weight:bold;font-stretch:normal;font-family:BPreplay;-inkscape-font-specification:'BPreplay Bold';fill:#ffffff;stroke-width:0.64859396"
           id="path3371" />
        <path
           d="m 174.01235,166.02914 c 0.44104,-0.44104 0.62265,-0.88209 0.62265,-1.40096 0,-1.32313 -0.95992,-2.0755 -2.12739,-2.0755 -0.54482,0 -1.08964,0.25944 -1.55662,0.62265 -3.11326,2.9057 -6.20056,7.08264 -6.20056,11.77847 0,3.78778 2.17927,7.34208 6.38216,7.34208 3.94345,0 6.46,-3.34675 6.46,-7.00482 0,-2.85381 -1.63446,-5.70762 -4.95526,-5.70762 -0.67454,0 -1.37502,0 -2.10144,0.38915 0.75236,-1.71228 2.28305,-2.87975 3.47646,-3.94345 z m -5.16281,9.28787 c 0,-1.29719 0.70048,-2.62032 2.23116,-2.62032 1.68635,0 2.43872,1.32313 2.43872,2.64626 0,1.42691 -0.85615,2.80193 -2.38683,2.93165 -1.47879,-0.0519 -2.28305,-1.50474 -2.28305,-2.95759 z"
           style="font-style:normal;font-variant:normal;font-weight:bold;font-stretch:normal;font-family:BPreplay;-inkscape-font-specification:'BPreplay Bold';fill:#ffffff;stroke-width:0.64859396"
           id="path3373" />
      </g>
      <g
         aria-label="Linux"
         style="font-style:normal;font-variant:normal;font-weight:bold;font-stretch:normal;font-size:22.88519287px;line-height:1.25;font-family:BPreplay;-inkscape-font-specification:'BPreplay Bold';letter-spacing:0px;word-spacing:0px;fill:#000000;fill-opacity:1;stroke:none;stroke-width:0.57212985"
         id="text1677">
        <path
           d="m 137.65368,135.95217 c 0,1.48754 0.68656,2.26563 2.10544,2.26563 h 7.30038 c 1.25868,0 1.8537,-0.59501 1.8537,-1.8537 0,-1.19003 -0.59502,-1.80793 -1.8537,-1.80793 h -5.74419 v -12.31223 c 0,-1.25869 -0.59501,-1.8537 -1.8537,-1.8537 -1.19003,0 -1.80793,0.59501 -1.80793,1.8537 z"
           style="font-style:normal;font-variant:normal;font-weight:bold;font-stretch:normal;font-family:BPreplay;-inkscape-font-specification:'BPreplay Bold';stroke-width:0.57212985"
           id="path3358" />
        <path
           d="m 149.75993,136.43276 c 0,1.21291 0.61791,1.78504 1.78505,1.78504 1.19003,0 1.78505,-0.57213 1.78505,-1.78504 v -9.5889 c 0,-1.19003 -0.64079,-1.76216 -1.80794,-1.76216 -1.14425,0 -1.76216,0.57213 -1.76216,1.76216 z m -0.32039,-14.76095 c 0,1.14426 0.91541,2.03678 2.03678,2.03678 1.16715,0 2.05967,-0.89252 2.05967,-2.03678 0,-1.14426 -0.89252,-2.03678 -2.05967,-2.03678 -1.12137,0 -2.03678,0.89252 -2.03678,2.03678 z"
           style="font-style:normal;font-variant:normal;font-weight:bold;font-stretch:normal;font-family:BPreplay;-inkscape-font-specification:'BPreplay Bold';stroke-width:0.57212985"
           id="path3360" />
        <path
           d="m 155.32102,136.45564 c 0,1.16715 0.57213,1.76216 1.71639,1.76216 1.21292,0 1.78505,-0.59501 1.78505,-1.76216 v -6.38496 c 0,-1.35023 0.89252,-2.03679 1.80793,-2.03679 0.82387,0 1.6935,0.66367 1.6935,2.03679 v 6.38496 c 0,1.16715 0.6179,1.76216 1.76216,1.76216 1.19003,0 1.78505,-0.59501 1.78505,-1.76216 v -7.02575 c 0,-3.36412 -2.10544,-4.53127 -3.8676,-4.53127 -1.37311,0 -2.38006,0.73233 -3.18104,1.64774 0,-0.70945 -0.57213,-1.57908 -1.78505,-1.57908 -1.14426,0 -1.71639,0.86963 -1.71639,1.83081 z"
           style="font-style:normal;font-variant:normal;font-weight:bold;font-stretch:normal;font-family:BPreplay;-inkscape-font-specification:'BPreplay Bold';stroke-width:0.57212985"
           id="path3362" />
        <path
           d="m 170.7914,126.82098 c 0,-1.21292 -0.54925,-1.76216 -1.76216,-1.76216 -1.16715,0 -1.73927,0.54924 -1.73927,1.76216 v 6.11034 c 0,3.45567 1.99101,5.4238 4.09644,5.4238 1.25869,0 2.56315,-0.68656 3.52432,-1.96813 v 0.68655 c 0.0229,1.02984 0.73233,1.44177 1.35023,1.44177 1.19003,0 1.76216,-0.59501 1.76216,-1.6935 v -10.06949 c 0,-1.21291 -0.57213,-1.80793 -1.76216,-1.80793 -1.28157,0 -1.6935,0.66367 -1.6935,1.80793 v 4.80589 c 0,2.19698 -1.09849,3.38701 -2.1741,3.38701 -0.80098,0 -1.57908,-0.41193 -1.57908,-2.65468 z"
           style="font-style:normal;font-variant:normal;font-weight:bold;font-stretch:normal;font-family:BPreplay;-inkscape-font-specification:'BPreplay Bold';stroke-width:0.57212985"
           id="path3364" />
        <path
           d="m 179.73948,135.03676 c -0.36617,0.48059 -0.54925,1.02984 -0.54925,1.51042 0,1.09849 0.54925,1.62485 1.60197,1.62485 0.66367,0 1.25868,-0.32039 1.6935,-0.98406 0.75521,-1.02983 1.48754,-2.12832 2.21986,-3.15816 l 2.24275,3.13528 c 0.43482,0.70944 1.12138,1.05271 1.8537,1.05271 1.09849,0 1.64774,-0.57213 1.64774,-1.67062 0,-0.54924 -0.1602,-1.09848 -0.57213,-1.60196 l -3.13527,-3.7074 2.72333,-3.38701 c 0.3204,-0.38905 0.45771,-0.80098 0.45771,-1.2358 0,-1.00695 -0.82387,-1.73927 -1.80793,-1.73927 -0.66367,0 -1.21292,0.2975 -1.60197,0.86963 l -1.6935,2.86065 -1.62485,-2.81488 c -0.38905,-0.59501 -0.93829,-0.89252 -1.64773,-0.89252 -0.9383,0 -1.78505,0.73233 -1.78505,1.76216 0,0.41194 0.11443,0.84675 0.41194,1.19003 l 2.70045,3.50144 z"
           style="font-style:normal;font-variant:normal;font-weight:bold;font-stretch:normal;font-family:BPreplay;-inkscape-font-specification:'BPreplay Bold';stroke-width:0.57212985"
           id="path3366" />
      </g>
    </g>
  </g>
</svg>
