<?xml version="1.0" encoding="UTF-8" standalone="no"?>
<svg xmlns:dc="http://purl.org/dc/elements/1.1/" xmlns:cc="http://creativecommons.org/ns#" xmlns:rdf="http://www.w3.org/1999/02/22-rdf-syntax-ns#" xmlns:svg="http://www.w3.org/2000/svg" xmlns="http://www.w3.org/2000/svg" xmlns:xlink="http://www.w3.org/1999/xlink" xmlns:sodipodi="http://sodipodi.sourceforge.net/DTD/sodipodi-0.dtd" xmlns:inkscape="http://www.inkscape.org/namespaces/inkscape" sodipodi:docname="starticon.svg" inkscape:version="1.0 (4035a4fb49, 2020-05-01)" id="svg2604" version="1.1" viewBox="0 0 92.74086 91.732542" height="91.732544mm" width="92.74086mm">
  <defs id="defs2598">
    <linearGradient inkscape:collect="always" xlink:href="#linearGradient2359" id="linearGradient2535-29" gradientUnits="userSpaceOnUse" x1="104.28743" y1="300.14343" x2="189.87849" y2="363.42557"/>
    <linearGradient id="linearGradient2359" inkscape:collect="always">
      <stop id="stop2355" offset="0" style="stop-color:#ebc80e;stop-opacity:1"/>
      <stop id="stop2357" offset="1" style="stop-color:#d4aa00;stop-opacity:1"/>
    </linearGradient>
    <inkscape:path-effect lpeversion="0" is_visible="true" id="path-effect4669-1-5-2-6" effect="spiro"/>
  </defs>
  <sodipodi:namedview fit-margin-bottom="0" fit-margin-right="0" fit-margin-left="0" fit-margin-top="0" inkscape:document-rotation="0" inkscape:window-maximized="1" inkscape:window-y="0" inkscape:window-x="0" inkscape:window-height="960" inkscape:window-width="1280" inkscape:snap-bbox-midpoints="true" inkscape:snap-bbox-edge-midpoints="true" inkscape:bbox-nodes="true" inkscape:bbox-paths="true" inkscape:snap-bbox="true" inkscape:snap-page="true" showgrid="false" inkscape:current-layer="layer1" inkscape:document-units="mm" inkscape:cy="259.41548" inkscape:cx="159.99985" inkscape:zoom="0.50373353" inkscape:pageshadow="2" inkscape:pageopacity="0.0" borderopacity="1.0" bordercolor="#666666" pagecolor="#ffffff" id="base"/>
  <metadata id="metadata2601">
    <rdf:RDF>
      <cc:Work rdf:about="">
        <dc:format>image/svg+xml</dc:format>
        <dc:type rdf:resource="http://purl.org/dc/dcmitype/StillImage"/>
        <dc:title/>
      </cc:Work>
    </rdf:RDF>
  </metadata>
  <g transform="translate(5.899666e-7,-141.715)" id="layer1" inkscape:groupmode="layer" inkscape:label="Layer 1">
    <g transform="translate(142.37638,137.80398)" id="g3205">
      <g transform="matrix(1.7494688,0,0,1.7494688,-134.0222,-327.3321)" id="layer1-3" inkscape:label="Layer 1">
        <g transform="translate(-139.04793,-32.169968)" id="g4590">
          <g aria-label="GNU/ Linux" style="font-style:normal;font-variant:normal;font-weight:bold;font-stretch:normal;font-size:16.9773px;line-height:1.25;font-family:BPreplay;-inkscape-font-specification:'BPreplay Bold';letter-spacing:0px;word-spacing:0px;fill:#000000;fill-opacity:1;stroke:none;stroke-width:0.424433" id="text1190-5" transform="translate(-4.3512314,-32.657509)">
            <g id="g1243" transform="translate(-0.05093074,-2.6458054)"/>
          </g>
        </g>
      </g>
      <path inkscape:original-d="m 137.57703,281.0191 c 6.32494,-1.3585 11.99755,4.87308 16.86679,9.13228 6.42572,5.62067 -8.54781,26.01622 13.24488,19.8293 5.86081,-1.66388 6.89528,11.31183 10.16415,16.45304 4.09971,6.44793 11.58575,13.6827 13.65231,21.03883 1.58383,5.63779 1.34339,10.90606 -1.62666,15.95302 -3.57124,6.06857 -11.7907,10.42929 -18.78877,11.20919 -5.73056,0.63864 -11.87822,-3.8351 -17.38362,-5.54906 -12.31617,-3.83432 -23.77946,-5.82074 -36.09666,-9.65174 -2.50091,-0.77785 -8.28361,-2.638 -10.96988,-3.42629 -4.51043,-1.3236 -6.46556,-0.99271 -8.72046,-4.76819 -2.68251,-4.49147 0.68051,-9.72669 3.16379,-14.79408 4.06995,-8.30524 1.91195,-17.82603 0.46203,-25.51057 -0.92235,-4.8884 -0.66071,-7.92707 2.7425,-10.79139 4.99476,-4.20385 14.53027,-1.53186 20.35272,-4.08305 5.82246,-2.55119 6.66365,-13.6939 12.93688,-15.04129 z" inkscape:path-effect="#path-effect4669-1-5-2-6" sodipodi:nodetypes="ssssssssssssssss" inkscape:connector-curvature="0" id="path4635-1-3-7-8" d="m 137.57703,281.0191 c 1.59929,-0.66295 3.3982,-0.78361 5.10074,-0.46963 1.70253,0.31398 3.31141,1.04948 4.74342,2.02239 2.86402,1.94583 4.98821,4.77774 7.02263,7.57952 4.67189,6.43406 9.16868,13.00227 13.24488,19.8293 3.30635,5.53766 6.34352,11.25685 10.16415,16.45304 2.49398,3.3919 5.3066,6.53947 7.813,9.92221 2.50639,3.38273 4.72794,7.05586 5.83931,11.11662 1.44411,5.27653 0.88463,11.09291 -1.62666,15.95302 -1.76663,3.41896 -4.47646,6.35228 -7.77242,8.33898 -3.29595,1.9867 -7.17064,3.01444 -11.01635,2.87021 -6.11413,-0.2293 -11.69944,-3.28515 -17.38362,-5.54906 -11.58097,-4.6125 -24.15978,-6.0594 -36.09666,-9.65174 -3.66859,-1.10404 -7.27582,-2.4107 -10.96988,-3.42629 -1.64125,-0.45122 -3.30866,-0.8482 -4.85875,-1.55144 -1.55008,-0.70325 -2.999548,-1.7491 -3.86171,-3.21675 -0.666391,-1.13439 -0.948386,-2.47002 -0.930187,-3.78554 0.0182,-1.31552 0.325889,-2.61453 0.773815,-3.85158 0.895851,-2.47409 2.343262,-4.71374 3.320162,-7.15696 1.59511,-3.98935 1.88169,-8.38839 1.66657,-12.67942 -0.21511,-4.29103 -0.91078,-8.54478 -1.20454,-12.83115 -0.13118,-1.91406 -0.18066,-3.85256 0.18479,-5.73598 0.36545,-1.88343 1.17577,-3.72459 2.55771,-5.05541 1.27406,-1.22693 2.96492,-1.95531 4.69643,-2.31651 1.73151,-0.3612 3.51533,-0.37747 5.28367,-0.33762 1.76833,0.0399 3.54067,0.13425 5.30351,-0.0106 1.76284,-0.14488 3.53347,-0.54055 5.06911,-1.41828 1.45996,-0.83447 2.65433,-2.0745 3.64374,-3.43424 0.9894,-1.35974 1.78909,-2.84573 2.60891,-4.31396 0.81983,-1.46823 1.66834,-2.93151 2.74157,-4.22611 1.07324,-1.2946 2.38923,-2.42304 3.94266,-3.06698 z" style="fill:url(#linearGradient2535-29);fill-opacity:1;stroke:none" transform="matrix(0.97314497,0,0,0.97314497,-236.75986,-268.94337)"/>
    </g>
  </g>
</svg>