<?xml version="1.0" encoding="UTF-8" standalone="no"?>
<!-- Created with Inkscape (http://www.inkscape.org/) -->

<svg
   xmlns:dc="http://purl.org/dc/elements/1.1/"
   xmlns:cc="http://creativecommons.org/ns#"
   xmlns:rdf="http://www.w3.org/1999/02/22-rdf-syntax-ns#"
   xmlns:svg="http://www.w3.org/2000/svg"
   xmlns="http://www.w3.org/2000/svg"
   xmlns:xlink="http://www.w3.org/1999/xlink"
   xmlns:sodipodi="http://sodipodi.sourceforge.net/DTD/sodipodi-0.dtd"
   xmlns:inkscape="http://www.inkscape.org/namespaces/inkscape"
   width="92.072998mm"
   height="119.606mm"
   viewBox="0 0 92.072996 119.60601"
   version="1.1"
   id="svg574"
   sodipodi:docname="flipper2.svg"
   inkscape:version="0.92.5 (2060ec1f9f, 2020-04-08)">
  <defs
     id="defs568">
    <inkscape:path-effect
       is_visible="true"
       id="path-effect4669-1-5-2-3"
       effect="spiro" />
    <inkscape:path-effect
       is_visible="true"
       id="path-effect4669-1-5-2-3-7-8"
       effect="spiro" />
    <linearGradient
       y2="363.42557"
       x2="189.87849"
       y1="300.14343"
       x1="104.28743"
       gradientUnits="userSpaceOnUse"
       id="linearGradient380"
       xlink:href="#linearGradient2359"
       inkscape:collect="always" />
    <linearGradient
       id="linearGradient2359"
       inkscape:collect="always">
      <stop
         id="stop2355"
         offset="0"
         style="stop-color:#ebc80e;stop-opacity:1" />
      <stop
         id="stop2357"
         offset="1"
         style="stop-color:#d4aa00;stop-opacity:1" />
    </linearGradient>
    <inkscape:path-effect
       is_visible="true"
       id="path-effect4669-1-5-2-3-7"
       effect="spiro" />
  </defs>
  <sodipodi:namedview
     id="base"
     pagecolor="#ffffff"
     bordercolor="#666666"
     borderopacity="1.0"
     inkscape:pageopacity="0.0"
     inkscape:pageshadow="2"
     inkscape:zoom="0.7"
     inkscape:cx="85.848158"
     inkscape:cy="192.03923"
     inkscape:document-units="mm"
     inkscape:current-layer="g1005"
     showgrid="false"
     inkscape:snap-page="true"
     inkscape:snap-nodes="false"
     inkscape:snap-bbox="true"
     inkscape:bbox-paths="true"
     inkscape:snap-bbox-edge-midpoints="true"
     inkscape:bbox-nodes="true"
     inkscape:snap-bbox-midpoints="true"
     showguides="false"
     inkscape:window-width="1280"
     inkscape:window-height="650"
     inkscape:window-x="0"
     inkscape:window-y="0"
     inkscape:window-maximized="1" />
  <metadata
     id="metadata571">
    <rdf:RDF>
      <cc:Work
         rdf:about="">
        <dc:format>image/svg+xml</dc:format>
        <dc:type
           rdf:resource="http://purl.org/dc/dcmitype/StillImage" />
        <dc:title></dc:title>
      </cc:Work>
    </rdf:RDF>
  </metadata>
  <g
     inkscape:label="Layer 1"
     inkscape:groupmode="layer"
     id="layer1"
     transform="translate(0,-177.394)">
    <g
       id="g611"
       transform="translate(-12.688684,156.95702)">
      <g
         aria-label="GNU/
LINUX"
         style="font-style:normal;font-variant:normal;font-weight:600;font-stretch:normal;font-size:31.66187286px;line-height:1.25;font-family:'IBM Plex Sans';-inkscape-font-specification:'IBM Plex Sans Semi-Bold';letter-spacing:0px;word-spacing:0px;fill:#000000;fill-opacity:1;stroke:none;stroke-width:0.79154682"
         id="text502-6">
        <g
           id="g1005"
           transform="translate(68.487327,7.5488588)">
          <path
             transform="matrix(0.87207153,0,0,0.87207153,-135.89679,-231.62702)"
             style="fill:url(#linearGradient380);fill-opacity:1;stroke:none"
             d="m 137.57703,281.0191 c 1.59929,-0.66295 3.3982,-0.78361 5.10074,-0.46963 1.70253,0.31398 3.31141,1.04948 4.74342,2.02239 2.86402,1.94583 4.98821,4.77774 7.02263,7.57952 4.67189,6.43406 9.16868,13.00227 13.24488,19.8293 3.30635,5.53766 6.34352,11.25685 10.16415,16.45304 2.49398,3.3919 5.3066,6.53947 7.813,9.92221 2.50639,3.38273 4.72794,7.05586 5.83931,11.11662 1.44411,5.27653 0.88463,11.09291 -1.62666,15.95302 -1.76663,3.41896 -4.47646,6.35228 -7.77242,8.33898 -3.29595,1.9867 -7.17064,3.01444 -11.01635,2.87021 -6.11413,-0.2293 -11.69944,-3.28515 -17.38362,-5.54906 -11.58097,-4.6125 -24.15978,-6.0594 -36.09666,-9.65174 -3.66859,-1.10404 -7.27582,-2.4107 -10.96988,-3.42629 -1.64125,-0.45122 -3.30866,-0.8482 -4.85875,-1.55144 -1.55008,-0.70325 -2.999548,-1.7491 -3.86171,-3.21675 -0.666391,-1.13439 -0.948386,-2.47002 -0.930187,-3.78554 0.0182,-1.31552 0.325889,-2.61453 0.773815,-3.85158 0.895851,-2.47409 2.343262,-4.71374 3.320162,-7.15696 1.59511,-3.98935 1.88169,-8.38839 1.66657,-12.67942 -0.21511,-4.29103 -0.91078,-8.54478 -1.20454,-12.83115 -0.13118,-1.91406 -0.18066,-3.85256 0.18479,-5.73598 0.36545,-1.88343 1.17577,-3.72459 2.55771,-5.05541 1.27406,-1.22693 2.96492,-1.95531 4.69643,-2.31651 1.73151,-0.3612 3.51533,-0.37747 5.28367,-0.33762 1.76833,0.0399 3.54067,0.13425 5.30351,-0.0106 1.76284,-0.14488 3.53347,-0.54055 5.06911,-1.41828 1.45996,-0.83447 2.65433,-2.0745 3.64374,-3.43424 0.9894,-1.35974 1.78909,-2.84573 2.60891,-4.31396 0.81983,-1.46823 1.66834,-2.93151 2.74157,-4.22611 1.07324,-1.2946 2.38923,-2.42304 3.94266,-3.06698 z"
             id="path4635-1-3-7-5-0" />
          <g
             aria-label="LINUX"
             style="font-style:normal;font-variant:normal;font-weight:600;font-stretch:normal;font-size:31.66187096px;line-height:1.25;font-family:'IBM Plex Sans';-inkscape-font-specification:'IBM Plex Sans Semi-Bold';letter-spacing:0px;word-spacing:0px;fill:#000000;fill-opacity:1;stroke:none;stroke-width:0.79154682"
             id="text502-6-0">
            <path
               d="M -55.798265,132.11418 V 110.0142 h 4.179367 v 18.39554 h 8.707014 v 3.70444 z"
               style="font-style:normal;font-variant:normal;font-weight:600;font-stretch:normal;font-family:'IBM Plex Sans';-inkscape-font-specification:'IBM Plex Sans Semi-Bold';stroke-width:0.79154682"
               id="path1053" />
            <path
               d="m -40.220627,132.11418 v -3.35616 h 2.912892 v -15.38767 h -2.912892 v -3.35615 h 10.036813 v 3.35615 h -2.944554 v 15.38767 h 2.944554 v 3.35616 z"
               style="font-style:normal;font-variant:normal;font-weight:600;font-stretch:normal;font-family:'IBM Plex Sans';-inkscape-font-specification:'IBM Plex Sans Semi-Bold';stroke-width:0.79154682"
               id="path1055" />
            <path
               d="m -19.577137,120.77923 -2.279655,-4.59097 h -0.09499 v 15.92592 h -3.957734 V 110.0142 h 4.590972 l 6.648993,11.33495 2.279654,4.59097 h 0.09499 V 110.0142 h 3.9577338 v 22.09998 h -4.5909708 z"
               style="font-style:normal;font-variant:normal;font-weight:600;font-stretch:normal;font-family:'IBM Plex Sans';-inkscape-font-specification:'IBM Plex Sans Semi-Bold';stroke-width:0.79154682"
               id="path1057" />
            <path
               d="m 0.81310153,110.0142 v 13.58294 q 0,2.59627 0.98151797,3.89441 1.0131799,1.29814 3.3878202,1.29814 2.3746403,0 3.3561583,-1.29814 1.0131799,-1.29814 1.0131799,-3.89441 V 110.0142 h 4.1160431 v 13.04469 q 0,2.43796 -0.474928,4.21103 -0.443266,1.77306 -1.456446,2.94455 -1.01318,1.17149 -2.6595972,1.7414 -1.6147554,0.53825 -3.926072,0.53825 -2.3429784,0 -3.9577338,-0.53825 -1.58309357,-0.56991 -2.5962734,-1.7414 -1.0131799,-1.17149 -1.4564461,-2.94455 -0.4432662,-1.77307 -0.4432662,-4.21103 V 110.0142 Z"
               style="font-style:normal;font-variant:normal;font-weight:600;font-stretch:normal;font-family:'IBM Plex Sans';-inkscape-font-specification:'IBM Plex Sans Semi-Bold';stroke-width:0.79154682"
               id="path1059" />
            <path
               d="m 36.274355,132.11418 h -4.875928 l -5.065899,-8.48538 h -0.09499 l -5.002575,8.48538 h -4.55931 L 23.83124,120.77923 16.992276,110.0142 h 4.875928 l 4.685957,7.85214 h 0.09498 l 4.749281,-7.85214 h 4.559309 l -6.902287,10.76503 z"
               style="font-style:normal;font-variant:normal;font-weight:600;font-stretch:normal;font-family:'IBM Plex Sans';-inkscape-font-specification:'IBM Plex Sans Semi-Bold';stroke-width:0.79154682"
               id="path1061" />
          </g>
        </g>
      </g>
    </g>
  </g>
</svg>
