<?xml version="1.0" encoding="UTF-8" standalone="no"?>
<!-- Created with Inkscape (http://www.inkscape.org/) -->

<svg
   xmlns:dc="http://purl.org/dc/elements/1.1/"
   xmlns:cc="http://creativecommons.org/ns#"
   xmlns:rdf="http://www.w3.org/1999/02/22-rdf-syntax-ns#"
   xmlns:svg="http://www.w3.org/2000/svg"
   xmlns="http://www.w3.org/2000/svg"
   xmlns:xlink="http://www.w3.org/1999/xlink"
   xmlns:sodipodi="http://sodipodi.sourceforge.net/DTD/sodipodi-0.dtd"
   xmlns:inkscape="http://www.inkscape.org/namespaces/inkscape"
   width="157.563mm"
   height="82.205002mm"
   viewBox="0 0 157.563 82.205002"
   version="1.1"
   id="svg574"
   sodipodi:docname="gnuflipper1.svg"
   inkscape:version="0.92.5 (2060ec1f9f, 2020-04-08)">
  <defs
     id="defs568">
    <linearGradient
       y2="363.42557"
       x2="189.87849"
       y1="300.14343"
       x1="104.28743"
       gradientUnits="userSpaceOnUse"
       id="linearGradient380"
       xlink:href="#linearGradient2359"
       inkscape:collect="always" />
    <linearGradient
       id="linearGradient2359"
       inkscape:collect="always">
      <stop
         id="stop2355"
         offset="0"
         style="stop-color:#ebc80e;stop-opacity:1" />
      <stop
         id="stop2357"
         offset="1"
         style="stop-color:#d4aa00;stop-opacity:1" />
    </linearGradient>
    <inkscape:path-effect
       is_visible="true"
       id="path-effect4669-1-5-2-3"
       effect="spiro" />
  </defs>
  <sodipodi:namedview
     id="base"
     pagecolor="#ffffff"
     bordercolor="#666666"
     borderopacity="1.0"
     inkscape:pageopacity="0.0"
     inkscape:pageshadow="2"
     inkscape:zoom="0.98994949"
     inkscape:cx="346.2621"
     inkscape:cy="118.87959"
     inkscape:document-units="mm"
     inkscape:current-layer="text502-6"
     showgrid="false"
     inkscape:snap-page="true"
     inkscape:snap-nodes="false"
     inkscape:snap-bbox="true"
     inkscape:bbox-paths="true"
     inkscape:snap-bbox-edge-midpoints="true"
     inkscape:bbox-nodes="true"
     inkscape:snap-bbox-midpoints="true"
     showguides="false"
     inkscape:window-width="1280"
     inkscape:window-height="650"
     inkscape:window-x="0"
     inkscape:window-y="0"
     inkscape:window-maximized="1" />
  <metadata
     id="metadata571">
    <rdf:RDF>
      <cc:Work
         rdf:about="">
        <dc:format>image/svg+xml</dc:format>
        <dc:type
           rdf:resource="http://purl.org/dc/dcmitype/StillImage" />
        <dc:title></dc:title>
      </cc:Work>
    </rdf:RDF>
  </metadata>
  <g
     inkscape:label="Layer 1"
     inkscape:groupmode="layer"
     id="layer1"
     transform="translate(0,-214.795)">
    <g
       id="g611"
       transform="translate(-12.688684,156.95702)">
      <path
         transform="matrix(0.87207153,0,0,0.87207153,-71.891875,-186.67702)"
         style="fill:url(#linearGradient380);fill-opacity:1;stroke:none"
         d="m 137.57703,281.0191 c 1.59929,-0.66295 3.3982,-0.78361 5.10074,-0.46963 1.70253,0.31398 3.31141,1.04948 4.74342,2.02239 2.86402,1.94583 4.98821,4.77774 7.02263,7.57952 4.67189,6.43406 9.16868,13.00227 13.24488,19.8293 3.30635,5.53766 6.34352,11.25685 10.16415,16.45304 2.49398,3.3919 5.3066,6.53947 7.813,9.92221 2.50639,3.38273 4.72794,7.05586 5.83931,11.11662 1.44411,5.27653 0.88463,11.09291 -1.62666,15.95302 -1.76663,3.41896 -4.47646,6.35228 -7.77242,8.33898 -3.29595,1.9867 -7.17064,3.01444 -11.01635,2.87021 -6.11413,-0.2293 -11.69944,-3.28515 -17.38362,-5.54906 -11.58097,-4.6125 -24.15978,-6.0594 -36.09666,-9.65174 -3.66859,-1.10404 -7.27582,-2.4107 -10.96988,-3.42629 -1.64125,-0.45122 -3.30866,-0.8482 -4.85875,-1.55144 -1.55008,-0.70325 -2.999548,-1.7491 -3.86171,-3.21675 -0.666391,-1.13439 -0.948386,-2.47002 -0.930187,-3.78554 0.0182,-1.31552 0.325889,-2.61453 0.773815,-3.85158 0.895851,-2.47409 2.343262,-4.71374 3.320162,-7.15696 1.59511,-3.98935 1.88169,-8.38839 1.66657,-12.67942 -0.21511,-4.29103 -0.91078,-8.54478 -1.20454,-12.83115 -0.13118,-1.91406 -0.18066,-3.85256 0.18479,-5.73598 0.36545,-1.88343 1.17577,-3.72459 2.55771,-5.05541 1.27406,-1.22693 2.96492,-1.95531 4.69643,-2.31651 1.73151,-0.3612 3.51533,-0.37747 5.28367,-0.33762 1.76833,0.0399 3.54067,0.13425 5.30351,-0.0106 1.76284,-0.14488 3.53347,-0.54055 5.06911,-1.41828 1.45996,-0.83447 2.65433,-2.0745 3.64374,-3.43424 0.9894,-1.35974 1.78909,-2.84573 2.60891,-4.31396 0.81983,-1.46823 1.66834,-2.93151 2.74157,-4.22611 1.07324,-1.2946 2.38923,-2.42304 3.94266,-3.06698 z"
         id="path4635-1-3-7-5" />
      <g
         aria-label="GNU/
LINUX"
         style="font-style:normal;font-variant:normal;font-weight:600;font-stretch:normal;font-size:31.66187286px;line-height:1.25;font-family:'IBM Plex Sans';-inkscape-font-specification:'IBM Plex Sans Semi-Bold';letter-spacing:0px;word-spacing:0px;fill:#ffffff;fill-opacity:1;stroke:#ffffff;stroke-width:8.67585087;stroke-miterlimit:4;stroke-dasharray:none"
         id="text502">
        <path
           d="m 81.656142,102.99463 h -0.07902 q -0.1778,1.00753 -1.126066,1.69898 -0.928511,0.67168 -2.4892,0.67168 -1.224844,0 -2.271889,-0.45437 -1.027289,-0.45438 -1.797755,-1.34338 -0.750711,-0.90876 -1.185333,-2.23238 -0.434623,-1.32362 -0.434623,-3.06211 0,-1.738489 0.434623,-3.062111 0.454377,-1.343378 1.264355,-2.252133 0.809978,-0.908756 1.936044,-1.382889 1.126067,-0.474133 2.508956,-0.474133 1.857022,0 3.160888,0.809977 1.303867,0.809978 2.054578,2.331156 l -2.113844,1.2446 q -0.375356,-0.889 -1.126067,-1.481667 -0.730955,-0.592666 -1.975555,-0.592666 -1.540933,0 -2.469445,0.948266 -0.908755,0.928511 -0.908755,2.765778 v 2.212622 q 0,1.81751 0.928511,2.76578 0.928511,0.94826 2.4892,0.94826 0.612422,0 1.145822,-0.13828 0.5334,-0.15805 0.928511,-0.45438 0.395111,-0.29634 0.632178,-0.73096 0.237066,-0.43462 0.237066,-1.02729 v -0.888997 h -2.70651 v -2.192866 h 5.215466 v 7.507113 h -2.252133 z"
           style="font-style:normal;font-variant:normal;font-weight:600;font-stretch:normal;font-size:19.7555542px;font-family:'IBM Plex Sans';-inkscape-font-specification:'IBM Plex Sans Semi-Bold';fill:#ffffff;stroke:#ffffff;stroke-width:8.67585087;stroke-miterlimit:4;stroke-dasharray:none"
           id="path769" />
        <path
           d="m 90.881983,98.055739 -1.4224,-2.864556 h -0.05927 v 9.937047 H 86.930872 V 91.33885 h 2.864556 l 4.148666,7.072489 1.4224,2.864551 h 0.05927 v -9.93704 h 2.469444 v 13.78938 H 95.03065 Z"
           style="font-style:normal;font-variant:normal;font-weight:600;font-stretch:normal;font-size:19.7555542px;font-family:'IBM Plex Sans';-inkscape-font-specification:'IBM Plex Sans Semi-Bold';fill:#ffffff;stroke:#ffffff;stroke-width:8.67585087;stroke-miterlimit:4;stroke-dasharray:none"
           id="path771" />
        <path
           d="m 103.60456,91.33885 v 8.475133 q 0,1.619957 0.61242,2.429937 0.63218,0.80997 2.11384,0.80997 1.48167,0 2.09409,-0.80997 0.63218,-0.80998 0.63218,-2.429937 V 91.33885 h 2.56822 v 8.139289 q 0,1.521181 -0.29633,2.627491 -0.27658,1.10631 -0.90876,1.83726 -0.63217,0.73096 -1.65946,1.08656 -1.00754,0.33584 -2.44969,0.33584 -1.46191,0 -2.46945,-0.33584 -0.98777,-0.3556 -1.61995,-1.08656 -0.63218,-0.73095 -0.90876,-1.83726 -0.27657,-1.10631 -0.27657,-2.627491 V 91.33885 Z"
           style="font-style:normal;font-variant:normal;font-weight:600;font-stretch:normal;font-size:19.7555542px;font-family:'IBM Plex Sans';-inkscape-font-specification:'IBM Plex Sans Semi-Bold';fill:#ffffff;stroke:#ffffff;stroke-width:8.67585087;stroke-miterlimit:4;stroke-dasharray:none"
           id="path773" />
        <path
           d="m 112.57354,108.11132 5.66985,-17.602203 h 2.11384 l -5.66984,17.602203 z"
           style="font-style:normal;font-variant:normal;font-weight:600;font-stretch:normal;font-size:19.7555542px;font-family:'IBM Plex Sans';-inkscape-font-specification:'IBM Plex Sans Semi-Bold';fill:#ffffff;stroke:#ffffff;stroke-width:8.67585087;stroke-miterlimit:4;stroke-dasharray:none"
           id="path775" />
        <path
           d="M 73.841238,135.32509 V 113.2251 h 4.179367 v 18.39555 h 8.707015 v 3.70444 z"
           style="font-style:normal;font-variant:normal;font-weight:600;font-stretch:normal;font-family:'IBM Plex Sans';-inkscape-font-specification:'IBM Plex Sans Semi-Bold';fill:#ffffff;stroke:#ffffff;stroke-width:8.67585087;stroke-miterlimit:4;stroke-dasharray:none"
           id="path777" />
        <path
           d="m 89.418876,135.32509 v -3.35616 h 2.912893 V 116.58126 H 89.418876 V 113.2251 H 99.45569 v 3.35616 h -2.944554 v 15.38767 h 2.944554 v 3.35616 z"
           style="font-style:normal;font-variant:normal;font-weight:600;font-stretch:normal;font-family:'IBM Plex Sans';-inkscape-font-specification:'IBM Plex Sans Semi-Bold';fill:#ffffff;stroke:#ffffff;stroke-width:8.67585087;stroke-miterlimit:4;stroke-dasharray:none"
           id="path779" />
        <path
           d="m 110.06237,123.99014 -2.27966,-4.59097 h -0.095 v 15.92592 h -3.95774 V 113.2251 h 4.59098 l 6.64899,11.33495 2.27965,4.59098 h 0.095 V 113.2251 h 3.95773 v 22.09999 h -4.59097 z"
           style="font-style:normal;font-variant:normal;font-weight:600;font-stretch:normal;font-family:'IBM Plex Sans';-inkscape-font-specification:'IBM Plex Sans Semi-Bold';fill:#ffffff;stroke:#ffffff;stroke-width:8.67585087;stroke-miterlimit:4;stroke-dasharray:none"
           id="path781" />
        <path
           d="m 130.45261,113.2251 v 13.58295 q 0,2.59627 0.98152,3.89441 1.01318,1.29813 3.38782,1.29813 2.37464,0 3.35616,-1.29813 1.01318,-1.29814 1.01318,-3.89441 V 113.2251 h 4.11604 v 13.0447 q 0,2.43796 -0.47493,4.21102 -0.44326,1.77307 -1.45644,2.94456 -1.01318,1.17149 -2.6596,1.7414 -1.61476,0.53825 -3.92607,0.53825 -2.34298,0 -3.95774,-0.53825 -1.58309,-0.56991 -2.59627,-1.7414 -1.01318,-1.17149 -1.45645,-2.94456 -0.44326,-1.77306 -0.44326,-4.21102 v -13.0447 z"
           style="font-style:normal;font-variant:normal;font-weight:600;font-stretch:normal;font-family:'IBM Plex Sans';-inkscape-font-specification:'IBM Plex Sans Semi-Bold';fill:#ffffff;stroke:#ffffff;stroke-width:8.67585087;stroke-miterlimit:4;stroke-dasharray:none"
           id="path783" />
        <path
           d="m 165.91387,135.32509 h -4.87593 l -5.0659,-8.48538 h -0.095 l -5.00257,8.48538 h -4.55931 l 7.15558,-11.33495 -6.83896,-10.76504 h 4.87593 l 4.68595,7.85215 h 0.095 l 4.74928,-7.85215 h 4.55931 l -6.90229,10.76504 z"
           style="font-style:normal;font-variant:normal;font-weight:600;font-stretch:normal;font-family:'IBM Plex Sans';-inkscape-font-specification:'IBM Plex Sans Semi-Bold';fill:#ffffff;stroke:#ffffff;stroke-width:8.67585087;stroke-miterlimit:4;stroke-dasharray:none"
           id="path785" />
      </g>
      <g
         aria-label="GNU/
LINUX"
         style="font-style:normal;font-variant:normal;font-weight:600;font-stretch:normal;font-size:31.66187286px;line-height:1.25;font-family:'IBM Plex Sans';-inkscape-font-specification:'IBM Plex Sans Semi-Bold';letter-spacing:0px;word-spacing:0px;fill:#000000;fill-opacity:1;stroke:none;stroke-width:0.79154682"
         id="text502-6">
        <path
           d="m 81.656142,102.99463 h -0.07902 q -0.1778,1.00753 -1.126066,1.69898 -0.928511,0.67168 -2.4892,0.67168 -1.224844,0 -2.271889,-0.45437 -1.027289,-0.45438 -1.797755,-1.34338 -0.750711,-0.90876 -1.185333,-2.23238 -0.434623,-1.32362 -0.434623,-3.06211 0,-1.738489 0.434623,-3.062111 0.454377,-1.343378 1.264355,-2.252133 0.809978,-0.908756 1.936044,-1.382889 1.126067,-0.474133 2.508956,-0.474133 1.857022,0 3.160888,0.809977 1.303867,0.809978 2.054578,2.331156 l -2.113844,1.2446 q -0.375356,-0.889 -1.126067,-1.481667 -0.730955,-0.592666 -1.975555,-0.592666 -1.540933,0 -2.469445,0.948266 -0.908755,0.928511 -0.908755,2.765778 v 2.212622 q 0,1.81751 0.928511,2.76578 0.928511,0.94826 2.4892,0.94826 0.612422,0 1.145822,-0.13828 0.5334,-0.15805 0.928511,-0.45438 0.395111,-0.29634 0.632178,-0.73096 0.237066,-0.43462 0.237066,-1.02729 v -0.888997 h -2.70651 v -2.192866 h 5.215466 v 7.507113 h -2.252133 z"
           style="font-style:normal;font-variant:normal;font-weight:600;font-stretch:normal;font-size:19.7555542px;font-family:'IBM Plex Sans';-inkscape-font-specification:'IBM Plex Sans Semi-Bold';stroke-width:0.79154682"
           id="path750" />
        <path
           d="m 90.881983,98.055739 -1.4224,-2.864556 h -0.05927 v 9.937047 H 86.930872 V 91.33885 h 2.864556 l 4.148666,7.072489 1.4224,2.864551 h 0.05927 v -9.93704 h 2.469444 v 13.78938 H 95.03065 Z"
           style="font-style:normal;font-variant:normal;font-weight:600;font-stretch:normal;font-size:19.7555542px;font-family:'IBM Plex Sans';-inkscape-font-specification:'IBM Plex Sans Semi-Bold';stroke-width:0.79154682"
           id="path752" />
        <path
           d="m 103.60456,91.33885 v 8.475133 q 0,1.619957 0.61242,2.429937 0.63218,0.80997 2.11384,0.80997 1.48167,0 2.09409,-0.80997 0.63218,-0.80998 0.63218,-2.429937 V 91.33885 h 2.56822 v 8.139289 q 0,1.521181 -0.29633,2.627491 -0.27658,1.10631 -0.90876,1.83726 -0.63217,0.73096 -1.65946,1.08656 -1.00754,0.33584 -2.44969,0.33584 -1.46191,0 -2.46945,-0.33584 -0.98777,-0.3556 -1.61995,-1.08656 -0.63218,-0.73095 -0.90876,-1.83726 -0.27657,-1.10631 -0.27657,-2.627491 V 91.33885 Z"
           style="font-style:normal;font-variant:normal;font-weight:600;font-stretch:normal;font-size:19.7555542px;font-family:'IBM Plex Sans';-inkscape-font-specification:'IBM Plex Sans Semi-Bold';stroke-width:0.79154682"
           id="path754" />
        <path
           d="m 112.57354,108.11132 5.66985,-17.602203 h 2.11384 l -5.66984,17.602203 z"
           style="font-style:normal;font-variant:normal;font-weight:600;font-stretch:normal;font-size:19.7555542px;font-family:'IBM Plex Sans';-inkscape-font-specification:'IBM Plex Sans Semi-Bold';stroke-width:0.79154682"
           id="path756" />
        <path
           d="M 73.841238,135.32509 V 113.2251 h 4.179367 v 18.39555 h 8.707015 v 3.70444 z"
           style="font-style:normal;font-variant:normal;font-weight:600;font-stretch:normal;font-family:'IBM Plex Sans';-inkscape-font-specification:'IBM Plex Sans Semi-Bold';stroke-width:0.79154682"
           id="path758" />
        <path
           d="m 89.418876,135.32509 v -3.35616 h 2.912893 V 116.58126 H 89.418876 V 113.2251 H 99.45569 v 3.35616 h -2.944554 v 15.38767 h 2.944554 v 3.35616 z"
           style="font-style:normal;font-variant:normal;font-weight:600;font-stretch:normal;font-family:'IBM Plex Sans';-inkscape-font-specification:'IBM Plex Sans Semi-Bold';stroke-width:0.79154682"
           id="path760" />
        <path
           d="m 110.06237,123.99014 -2.27966,-4.59097 h -0.095 v 15.92592 h -3.95774 V 113.2251 h 4.59098 l 6.64899,11.33495 2.27965,4.59098 h 0.095 V 113.2251 h 3.95773 v 22.09999 h -4.59097 z"
           style="font-style:normal;font-variant:normal;font-weight:600;font-stretch:normal;font-family:'IBM Plex Sans';-inkscape-font-specification:'IBM Plex Sans Semi-Bold';stroke-width:0.79154682"
           id="path762" />
        <path
           d="m 130.45261,113.2251 v 13.58295 q 0,2.59627 0.98152,3.89441 1.01318,1.29813 3.38782,1.29813 2.37464,0 3.35616,-1.29813 1.01318,-1.29814 1.01318,-3.89441 V 113.2251 h 4.11604 v 13.0447 q 0,2.43796 -0.47493,4.21102 -0.44326,1.77307 -1.45644,2.94456 -1.01318,1.17149 -2.6596,1.7414 -1.61476,0.53825 -3.92607,0.53825 -2.34298,0 -3.95774,-0.53825 -1.58309,-0.56991 -2.59627,-1.7414 -1.01318,-1.17149 -1.45645,-2.94456 -0.44326,-1.77306 -0.44326,-4.21102 v -13.0447 z"
           style="font-style:normal;font-variant:normal;font-weight:600;font-stretch:normal;font-family:'IBM Plex Sans';-inkscape-font-specification:'IBM Plex Sans Semi-Bold';stroke-width:0.79154682"
           id="path764" />
        <path
           d="m 165.91387,135.32509 h -4.87593 l -5.0659,-8.48538 h -0.095 l -5.00257,8.48538 h -4.55931 l 7.15558,-11.33495 -6.83896,-10.76504 h 4.87593 l 4.68595,7.85215 h 0.095 l 4.74928,-7.85215 h 4.55931 l -6.90229,10.76504 z"
           style="font-style:normal;font-variant:normal;font-weight:600;font-stretch:normal;font-family:'IBM Plex Sans';-inkscape-font-specification:'IBM Plex Sans Semi-Bold';stroke-width:0.79154682"
           id="path766" />
      </g>
    </g>
  </g>
</svg>
