<?xml version="1.0" encoding="UTF-8" standalone="no"?>
<!-- Created with Inkscape (http://www.inkscape.org/) -->

<svg
   xmlns:dc="http://purl.org/dc/elements/1.1/"
   xmlns:cc="http://creativecommons.org/ns#"
   xmlns:rdf="http://www.w3.org/1999/02/22-rdf-syntax-ns#"
   xmlns:svg="http://www.w3.org/2000/svg"
   xmlns="http://www.w3.org/2000/svg"
   xmlns:xlink="http://www.w3.org/1999/xlink"
   xmlns:sodipodi="http://sodipodi.sourceforge.net/DTD/sodipodi-0.dtd"
   xmlns:inkscape="http://www.inkscape.org/namespaces/inkscape"
   width="144.871mm"
   height="82.734001mm"
   viewBox="0 0 144.871 82.734004"
   version="1.1"
   id="svg574"
   sodipodi:docname="gnupearl1.svg"
   inkscape:version="0.92.5 (2060ec1f9f, 2020-04-08)">
  <defs
     id="defs568">
    <inkscape:path-effect
       is_visible="true"
       id="path-effect4669-1-5-2-3"
       effect="spiro" />
    <inkscape:path-effect
       is_visible="true"
       id="path-effect4669-1-5-2-3-7-8"
       effect="spiro" />
    <linearGradient
       id="linearGradient2359"
       inkscape:collect="always">
      <stop
         id="stop2355"
         offset="0"
         style="stop-color:#ebc80e;stop-opacity:1" />
      <stop
         id="stop2357"
         offset="1"
         style="stop-color:#d4aa00;stop-opacity:1" />
    </linearGradient>
    <linearGradient
       gradientUnits="userSpaceOnUse"
       y2="-131.60547"
       x2="-54.570549"
       y1="-291.54004"
       x1="-216.9938"
       id="linearGradient1720-5"
       xlink:href="#linearGradient2359"
       inkscape:collect="always"
       gradientTransform="matrix(1.1939954,0,0,1.1939954,-2817.4772,1188.2359)" />
  </defs>
  <sodipodi:namedview
     id="base"
     pagecolor="#ffffff"
     bordercolor="#666666"
     borderopacity="1.0"
     inkscape:pageopacity="0.0"
     inkscape:pageshadow="2"
     inkscape:zoom="0.061871843"
     inkscape:cx="-658.58833"
     inkscape:cy="1990.3252"
     inkscape:document-units="mm"
     inkscape:current-layer="text502-6-6-7"
     showgrid="false"
     inkscape:snap-page="true"
     inkscape:snap-nodes="false"
     inkscape:snap-bbox="true"
     inkscape:bbox-paths="true"
     inkscape:snap-bbox-edge-midpoints="true"
     inkscape:bbox-nodes="true"
     inkscape:snap-bbox-midpoints="true"
     showguides="false"
     inkscape:window-width="1280"
     inkscape:window-height="650"
     inkscape:window-x="0"
     inkscape:window-y="0"
     inkscape:window-maximized="1" />
  <metadata
     id="metadata571">
    <rdf:RDF>
      <cc:Work
         rdf:about="">
        <dc:format>image/svg+xml</dc:format>
        <dc:type
           rdf:resource="http://purl.org/dc/dcmitype/StillImage" />
        <dc:title></dc:title>
      </cc:Work>
    </rdf:RDF>
  </metadata>
  <g
     inkscape:label="Layer 1"
     inkscape:groupmode="layer"
     id="layer1"
     transform="translate(0,-214.266)">
    <g
       id="g611"
       transform="translate(-12.688684,156.95702)">
      <g
         aria-label="GNU/
LINUX"
         style="font-style:normal;font-variant:normal;font-weight:600;font-stretch:normal;font-size:31.66187286px;line-height:1.25;font-family:'IBM Plex Sans';-inkscape-font-specification:'IBM Plex Sans Semi-Bold';letter-spacing:0px;word-spacing:0px;fill:#000000;fill-opacity:1;stroke:none;stroke-width:0.79154682"
         id="text502-6">
        <g
           id="layer1-8"
           inkscape:label="Layer 1"
           transform="translate(865.23479,-279.94677)">
          <g
             transform="translate(-314.67923,-12.714678)"
             inkscape:label="Layer 1"
             id="layer1-3">
            <g
               id="g972"
               transform="translate(-1.0649342e-7,0.85579832)">
              <g
                 inkscape:label="Layer 1"
                 id="layer1-6-4"
                 transform="matrix(0.30083413,0,0,0.30083413,60.550668,61.871704)">
                <g
                   id="g2496"
                   transform="translate(135.06459,130.65513)">
                  <g
                     transform="translate(1010.1675,55.282798)"
                     id="g1252">
                    <g
                       transform="translate(-26.741901,-19.670587)"
                       id="g1197">
                      <path
                         style="fill:url(#linearGradient1720-5);fill-opacity:1;stroke:none;stroke-width:8.52927208;stroke-linecap:round;stroke-miterlimit:4;stroke-dasharray:none;stroke-opacity:1"
                         d="m -2834.4278,926.94122 a 136.62836,136.62836 0 0 1 -136.6284,136.62838 136.62836,136.62836 0 0 1 -136.6283,-136.62838 136.62836,136.62836 0 0 1 136.6283,-136.62835 136.62836,136.62836 0 0 1 136.6284,136.62835 z"
                         id="path1568"
                         inkscape:connector-curvature="0" />
                      <path
                         inkscape:connector-curvature="0"
                         id="path1620"
                         d="m -3078.8754,928.20886 c -1.8719,-68.00568 59.3316,-97.13595 59.3316,-97.13595"
                         style="fill:none;stroke:#ffffff;stroke-width:14.94309425;stroke-linecap:round;stroke-linejoin:miter;stroke-miterlimit:4;stroke-dasharray:none;stroke-opacity:1"
                         inkscape:export-xdpi="604.54645"
                         inkscape:export-ydpi="604.54645" />
                      <path
                         style="fill:#ffffff;fill-opacity:1;stroke:none;stroke-width:23.62656212;stroke-linecap:round;stroke-miterlimit:4;stroke-dasharray:none;stroke-opacity:1"
                         d="m -2984.4318,821.45502 a 7.4715471,7.4715471 0 0 1 -7.4715,7.47154 7.4715471,7.4715471 0 0 1 -7.4716,-7.47154 7.4715471,7.4715471 0 0 1 7.4716,-7.47155 7.4715471,7.4715471 0 0 1 7.4715,7.47155 z"
                         id="path1622"
                         inkscape:connector-curvature="0" />
                    </g>
                  </g>
                </g>
              </g>
            </g>
          </g>
        </g>
        <g
           aria-label="GNU/
LINUX"
           style="font-style:normal;font-variant:normal;font-weight:600;font-stretch:normal;font-size:31.66187286px;line-height:1.25;font-family:'IBM Plex Sans';-inkscape-font-specification:'IBM Plex Sans Semi-Bold';letter-spacing:0px;word-spacing:0px;fill:#ffffff;fill-opacity:1;stroke:#ffffff;stroke-width:8.67585087;stroke-miterlimit:4;stroke-dasharray:none"
           id="text502-63"
           transform="translate(-111.95551,498.44114)">
          <path
             d="m 177.35185,-394.91735 h -0.079 q -0.1778,1.00753 -1.12607,1.69898 -0.92851,0.67168 -2.4892,0.67168 -1.22484,0 -2.27189,-0.45437 -1.02729,-0.45438 -1.79775,-1.34338 -0.75071,-0.90876 -1.18534,-2.23238 -0.43462,-1.32362 -0.43462,-3.06211 0,-1.73849 0.43462,-3.06211 0.45438,-1.34338 1.26436,-2.25213 0.80998,-0.90876 1.93604,-1.38289 1.12607,-0.47414 2.50896,-0.47414 1.85702,0 3.16089,0.80998 1.30387,0.80998 2.05458,2.33116 l -2.11385,1.2446 q -0.37535,-0.889 -1.12606,-1.48167 -0.73096,-0.59267 -1.97556,-0.59267 -1.54093,0 -2.46944,0.94827 -0.90876,0.92851 -0.90876,2.76578 v 2.21262 q 0,1.81751 0.92851,2.76578 0.92851,0.94826 2.4892,0.94826 0.61242,0 1.14582,-0.13828 0.5334,-0.15805 0.92851,-0.45438 0.39512,-0.29634 0.63218,-0.73096 0.23707,-0.43462 0.23707,-1.02729 v -0.889 h -2.70651 v -2.19286 h 5.21546 v 7.50711 h -2.25213 z"
             style="font-style:normal;font-variant:normal;font-weight:600;font-stretch:normal;font-size:19.7555542px;font-family:'IBM Plex Sans';-inkscape-font-specification:'IBM Plex Sans Semi-Bold';fill:#ffffff;stroke:#ffffff;stroke-width:8.67585087;stroke-miterlimit:4;stroke-dasharray:none"
             id="path1352"
             inkscape:connector-curvature="0" />
          <path
             d="m 186.57769,-399.85624 -1.4224,-2.86456 h -0.0593 v 9.93705 h -2.46945 v -13.78938 h 2.86456 l 4.14866,7.07249 1.4224,2.86455 h 0.0593 v -9.93704 h 2.46944 v 13.78938 h -2.86455 z"
             style="font-style:normal;font-variant:normal;font-weight:600;font-stretch:normal;font-size:19.7555542px;font-family:'IBM Plex Sans';-inkscape-font-specification:'IBM Plex Sans Semi-Bold';fill:#ffffff;stroke:#ffffff;stroke-width:8.67585087;stroke-miterlimit:4;stroke-dasharray:none"
             id="path1354"
             inkscape:connector-curvature="0" />
          <path
             d="m 199.30027,-406.57313 v 8.47513 q 0,1.61996 0.61242,2.42994 0.63218,0.80997 2.11384,0.80997 1.48167,0 2.09409,-0.80997 0.63218,-0.80998 0.63218,-2.42994 v -8.47513 h 2.56822 v 8.13929 q 0,1.52118 -0.29633,2.62749 -0.27658,1.10631 -0.90876,1.83726 -0.63217,0.73096 -1.65946,1.08656 -1.00754,0.33584 -2.44969,0.33584 -1.46191,0 -2.46945,-0.33584 -0.98777,-0.3556 -1.61995,-1.08656 -0.63218,-0.73095 -0.90876,-1.83726 -0.27658,-1.10631 -0.27658,-2.62749 v -8.13929 z"
             style="font-style:normal;font-variant:normal;font-weight:600;font-stretch:normal;font-size:19.7555542px;font-family:'IBM Plex Sans';-inkscape-font-specification:'IBM Plex Sans Semi-Bold';fill:#ffffff;stroke:#ffffff;stroke-width:8.67585087;stroke-miterlimit:4;stroke-dasharray:none"
             id="path1356"
             inkscape:connector-curvature="0" />
          <path
             d="m 208.26925,-389.80066 5.66985,-17.6022 h 2.11384 l -5.66984,17.6022 z"
             style="font-style:normal;font-variant:normal;font-weight:600;font-stretch:normal;font-size:19.7555542px;font-family:'IBM Plex Sans';-inkscape-font-specification:'IBM Plex Sans Semi-Bold';fill:#ffffff;stroke:#ffffff;stroke-width:8.67585087;stroke-miterlimit:4;stroke-dasharray:none"
             id="path1358"
             inkscape:connector-curvature="0" />
          <path
             d="m 169.53695,-362.58689 v -22.09999 h 4.17936 v 18.39555 h 8.70702 v 3.70444 z"
             style="font-style:normal;font-variant:normal;font-weight:600;font-stretch:normal;font-family:'IBM Plex Sans';-inkscape-font-specification:'IBM Plex Sans Semi-Bold';fill:#ffffff;stroke:#ffffff;stroke-width:8.67585087;stroke-miterlimit:4;stroke-dasharray:none"
             id="path1360"
             inkscape:connector-curvature="0" />
          <path
             d="m 185.11459,-362.58689 v -3.35616 h 2.91289 v -15.38767 h -2.91289 v -3.35616 h 10.03681 v 3.35616 h -2.94455 v 15.38767 h 2.94455 v 3.35616 z"
             style="font-style:normal;font-variant:normal;font-weight:600;font-stretch:normal;font-family:'IBM Plex Sans';-inkscape-font-specification:'IBM Plex Sans Semi-Bold';fill:#ffffff;stroke:#ffffff;stroke-width:8.67585087;stroke-miterlimit:4;stroke-dasharray:none"
             id="path1362"
             inkscape:connector-curvature="0" />
          <path
             d="m 205.75808,-373.92184 -2.27966,-4.59097 h -0.095 v 15.92592 h -3.95774 v -22.09999 h 4.59097 l 6.649,11.33495 2.27965,4.59098 h 0.095 v -15.92593 h 3.95773 v 22.09999 h -4.59097 z"
             style="font-style:normal;font-variant:normal;font-weight:600;font-stretch:normal;font-family:'IBM Plex Sans';-inkscape-font-specification:'IBM Plex Sans Semi-Bold';fill:#ffffff;stroke:#ffffff;stroke-width:8.67585087;stroke-miterlimit:4;stroke-dasharray:none"
             id="path1364"
             inkscape:connector-curvature="0" />
          <path
             d="m 226.14832,-384.68688 v 13.58295 q 0,2.59627 0.98152,3.89441 1.01318,1.29814 3.38782,1.29814 2.37464,0 3.35616,-1.29814 1.01318,-1.29814 1.01318,-3.89441 v -13.58295 h 4.11604 v 13.0447 q 0,2.43796 -0.47493,4.21103 -0.44327,1.77306 -1.45645,2.94455 -1.01318,1.17149 -2.65959,1.7414 -1.61476,0.53825 -3.92607,0.53825 -2.34298,0 -3.95774,-0.53825 -1.58309,-0.56991 -2.59627,-1.7414 -1.01318,-1.17149 -1.45645,-2.94455 -0.44327,-1.77307 -0.44327,-4.21103 v -13.0447 z"
             style="font-style:normal;font-variant:normal;font-weight:600;font-stretch:normal;font-family:'IBM Plex Sans';-inkscape-font-specification:'IBM Plex Sans Semi-Bold';fill:#ffffff;stroke:#ffffff;stroke-width:8.67585087;stroke-miterlimit:4;stroke-dasharray:none"
             id="path1366"
             inkscape:connector-curvature="0" />
          <path
             d="m 261.60958,-362.58689 h -4.87593 l -5.0659,-8.48538 h -0.095 l -5.00257,8.48538 h -4.55931 l 7.15558,-11.33495 -6.83896,-10.76504 h 4.87592 l 4.68596,7.85215 h 0.095 l 4.74928,-7.85215 h 4.55931 l -6.90229,10.76504 z"
             style="font-style:normal;font-variant:normal;font-weight:600;font-stretch:normal;font-family:'IBM Plex Sans';-inkscape-font-specification:'IBM Plex Sans Semi-Bold';fill:#ffffff;stroke:#ffffff;stroke-width:8.67585087;stroke-miterlimit:4;stroke-dasharray:none"
             id="path1368"
             inkscape:connector-curvature="0" />
        </g>
        <g
           aria-label="GNU/
LINUX"
           style="font-style:normal;font-variant:normal;font-weight:600;font-stretch:normal;font-size:31.66187286px;line-height:1.25;font-family:'IBM Plex Sans';-inkscape-font-specification:'IBM Plex Sans Semi-Bold';letter-spacing:0px;word-spacing:0px;fill:#000000;fill-opacity:1;stroke:none;stroke-width:0.79154682"
           id="text502-6-1"
           transform="translate(-111.95551,498.44114)">
          <path
             d="m 177.35185,-394.91735 h -0.079 q -0.1778,1.00753 -1.12607,1.69898 -0.92851,0.67168 -2.4892,0.67168 -1.22484,0 -2.27189,-0.45437 -1.02729,-0.45438 -1.79775,-1.34338 -0.75071,-0.90876 -1.18534,-2.23238 -0.43462,-1.32362 -0.43462,-3.06211 0,-1.73849 0.43462,-3.06211 0.45438,-1.34338 1.26436,-2.25213 0.80998,-0.90876 1.93604,-1.38289 1.12607,-0.47414 2.50896,-0.47414 1.85702,0 3.16089,0.80998 1.30387,0.80998 2.05458,2.33116 l -2.11385,1.2446 q -0.37535,-0.889 -1.12606,-1.48167 -0.73096,-0.59267 -1.97556,-0.59267 -1.54093,0 -2.46944,0.94827 -0.90876,0.92851 -0.90876,2.76578 v 2.21262 q 0,1.81751 0.92851,2.76578 0.92851,0.94826 2.4892,0.94826 0.61242,0 1.14582,-0.13828 0.5334,-0.15805 0.92851,-0.45438 0.39512,-0.29634 0.63218,-0.73096 0.23707,-0.43462 0.23707,-1.02729 v -0.889 h -2.70651 v -2.19286 h 5.21546 v 7.50711 h -2.25213 z"
             style="font-style:normal;font-variant:normal;font-weight:600;font-stretch:normal;font-size:19.7555542px;font-family:'IBM Plex Sans';-inkscape-font-specification:'IBM Plex Sans Semi-Bold';stroke-width:0.79154682"
             id="path1371"
             inkscape:connector-curvature="0" />
          <path
             d="m 186.57769,-399.85624 -1.4224,-2.86456 h -0.0593 v 9.93705 h -2.46945 v -13.78938 h 2.86456 l 4.14866,7.07249 1.4224,2.86455 h 0.0593 v -9.93704 h 2.46944 v 13.78938 h -2.86455 z"
             style="font-style:normal;font-variant:normal;font-weight:600;font-stretch:normal;font-size:19.7555542px;font-family:'IBM Plex Sans';-inkscape-font-specification:'IBM Plex Sans Semi-Bold';stroke-width:0.79154682"
             id="path1373"
             inkscape:connector-curvature="0" />
          <path
             d="m 199.30027,-406.57313 v 8.47513 q 0,1.61996 0.61242,2.42994 0.63218,0.80997 2.11384,0.80997 1.48167,0 2.09409,-0.80997 0.63218,-0.80998 0.63218,-2.42994 v -8.47513 h 2.56822 v 8.13929 q 0,1.52118 -0.29633,2.62749 -0.27658,1.10631 -0.90876,1.83726 -0.63217,0.73096 -1.65946,1.08656 -1.00754,0.33584 -2.44969,0.33584 -1.46191,0 -2.46945,-0.33584 -0.98777,-0.3556 -1.61995,-1.08656 -0.63218,-0.73095 -0.90876,-1.83726 -0.27658,-1.10631 -0.27658,-2.62749 v -8.13929 z"
             style="font-style:normal;font-variant:normal;font-weight:600;font-stretch:normal;font-size:19.7555542px;font-family:'IBM Plex Sans';-inkscape-font-specification:'IBM Plex Sans Semi-Bold';stroke-width:0.79154682"
             id="path1375"
             inkscape:connector-curvature="0" />
          <path
             d="m 208.26925,-389.80066 5.66985,-17.6022 h 2.11384 l -5.66984,17.6022 z"
             style="font-style:normal;font-variant:normal;font-weight:600;font-stretch:normal;font-size:19.7555542px;font-family:'IBM Plex Sans';-inkscape-font-specification:'IBM Plex Sans Semi-Bold';stroke-width:0.79154682"
             id="path1377"
             inkscape:connector-curvature="0" />
          <path
             d="m 169.53695,-362.58689 v -22.09999 h 4.17936 v 18.39555 h 8.70702 v 3.70444 z"
             style="font-style:normal;font-variant:normal;font-weight:600;font-stretch:normal;font-family:'IBM Plex Sans';-inkscape-font-specification:'IBM Plex Sans Semi-Bold';stroke-width:0.79154682"
             id="path1379"
             inkscape:connector-curvature="0" />
          <path
             d="m 185.11459,-362.58689 v -3.35616 h 2.91289 v -15.38767 h -2.91289 v -3.35616 h 10.03681 v 3.35616 h -2.94455 v 15.38767 h 2.94455 v 3.35616 z"
             style="font-style:normal;font-variant:normal;font-weight:600;font-stretch:normal;font-family:'IBM Plex Sans';-inkscape-font-specification:'IBM Plex Sans Semi-Bold';stroke-width:0.79154682"
             id="path1381"
             inkscape:connector-curvature="0" />
          <path
             d="m 205.75808,-373.92184 -2.27966,-4.59097 h -0.095 v 15.92592 h -3.95774 v -22.09999 h 4.59097 l 6.649,11.33495 2.27965,4.59098 h 0.095 v -15.92593 h 3.95773 v 22.09999 h -4.59097 z"
             style="font-style:normal;font-variant:normal;font-weight:600;font-stretch:normal;font-family:'IBM Plex Sans';-inkscape-font-specification:'IBM Plex Sans Semi-Bold';stroke-width:0.79154682"
             id="path1383"
             inkscape:connector-curvature="0" />
          <path
             d="m 226.14832,-384.68688 v 13.58295 q 0,2.59627 0.98152,3.89441 1.01318,1.29814 3.38782,1.29814 2.37464,0 3.35616,-1.29814 1.01318,-1.29814 1.01318,-3.89441 v -13.58295 h 4.11604 v 13.0447 q 0,2.43796 -0.47493,4.21103 -0.44327,1.77306 -1.45645,2.94455 -1.01318,1.17149 -2.65959,1.7414 -1.61476,0.53825 -3.92607,0.53825 -2.34298,0 -3.95774,-0.53825 -1.58309,-0.56991 -2.59627,-1.7414 -1.01318,-1.17149 -1.45645,-2.94455 -0.44327,-1.77307 -0.44327,-4.21103 v -13.0447 z"
             style="font-style:normal;font-variant:normal;font-weight:600;font-stretch:normal;font-family:'IBM Plex Sans';-inkscape-font-specification:'IBM Plex Sans Semi-Bold';stroke-width:0.79154682"
             id="path1385"
             inkscape:connector-curvature="0" />
          <path
             d="m 261.60958,-362.58689 h -4.87593 l -5.0659,-8.48538 h -0.095 l -5.00257,8.48538 h -4.55931 l 7.15558,-11.33495 -6.83896,-10.76504 h 4.87592 l 4.68596,7.85215 h 0.095 l 4.74928,-7.85215 h 4.55931 l -6.90229,10.76504 z"
             style="font-style:normal;font-variant:normal;font-weight:600;font-stretch:normal;font-family:'IBM Plex Sans';-inkscape-font-specification:'IBM Plex Sans Semi-Bold';stroke-width:0.79154682"
             id="path1387"
             inkscape:connector-curvature="0" />
        </g>
        <g
           aria-label="
LINUX"
           style="font-style:normal;font-variant:normal;font-weight:600;font-stretch:normal;font-size:31.66187286px;line-height:1.25;font-family:'IBM Plex Sans';-inkscape-font-specification:'IBM Plex Sans Semi-Bold';letter-spacing:0px;word-spacing:0px;fill:#000000;fill-opacity:1;stroke:none;stroke-width:0.79154682"
           id="text502-6-6-7" />
      </g>
    </g>
  </g>
</svg>
