<?xml version="1.0" encoding="UTF-8" standalone="no"?>
<!-- Created with Inkscape (http://www.inkscape.org/) -->

<svg
   xmlns:dc="http://purl.org/dc/elements/1.1/"
   xmlns:cc="http://creativecommons.org/ns#"
   xmlns:rdf="http://www.w3.org/1999/02/22-rdf-syntax-ns#"
   xmlns:svg="http://www.w3.org/2000/svg"
   xmlns="http://www.w3.org/2000/svg"
   xmlns:xlink="http://www.w3.org/1999/xlink"
   xmlns:sodipodi="http://sodipodi.sourceforge.net/DTD/sodipodi-0.dtd"
   xmlns:inkscape="http://www.inkscape.org/namespaces/inkscape"
   width="200mm"
   height="160.44901mm"
   viewBox="0 0 200 160.44901"
   version="1.1"
   id="svg1059"
   sodipodi:docname="poweredby2.svg"
   inkscape:version="0.92.5 (2060ec1f9f, 2020-04-08)">
  <defs
     id="defs1053">
    <inkscape:path-effect
       is_visible="true"
       id="path-effect4669-1-5-2-3-1"
       effect="spiro" />
    <inkscape:path-effect
       is_visible="true"
       id="path-effect4669-1-5-2-3-2"
       effect="spiro" />
    <linearGradient
       gradientUnits="userSpaceOnUse"
       y2="-131.60547"
       x2="-54.570549"
       y1="-291.54004"
       x1="-216.9938"
       id="linearGradient1720-5-5"
       xlink:href="#linearGradient2359"
       inkscape:collect="always"
       gradientTransform="matrix(0.39939229,0,0,0.39939229,-135.15356,-236.18871)" />
    <linearGradient
       id="linearGradient2359"
       inkscape:collect="always">
      <stop
         id="stop2355"
         offset="0"
         style="stop-color:#ebc80e;stop-opacity:1" />
      <stop
         id="stop2357"
         offset="1"
         style="stop-color:#d4aa00;stop-opacity:1" />
    </linearGradient>
  </defs>
  <sodipodi:namedview
     id="base"
     pagecolor="#ffffff"
     bordercolor="#666666"
     borderopacity="1.0"
     inkscape:pageopacity="0.0"
     inkscape:pageshadow="2"
     inkscape:zoom="0.49497475"
     inkscape:cx="678.71505"
     inkscape:cy="421.19454"
     inkscape:document-units="mm"
     inkscape:current-layer="g1645"
     showgrid="false"
     inkscape:snap-page="true"
     inkscape:window-width="1280"
     inkscape:window-height="650"
     inkscape:window-x="0"
     inkscape:window-y="0"
     inkscape:window-maximized="1"
     inkscape:snap-bbox="true"
     inkscape:bbox-paths="true"
     inkscape:bbox-nodes="true"
     inkscape:snap-bbox-edge-midpoints="true"
     inkscape:snap-bbox-midpoints="true" />
  <metadata
     id="metadata1056">
    <rdf:RDF>
      <cc:Work
         rdf:about="">
        <dc:format>image/svg+xml</dc:format>
        <dc:type
           rdf:resource="http://purl.org/dc/dcmitype/StillImage" />
        <dc:title></dc:title>
      </cc:Work>
    </rdf:RDF>
  </metadata>
  <g
     inkscape:label="Layer 1"
     inkscape:groupmode="layer"
     id="layer1"
     transform="translate(0,-136.551)">
    <g
       transform="matrix(0.89935279,0,0,0.89935279,-80.116063,802.22192)"
       id="g1024">
      <rect
         ry="23.16593"
         rx="23.16593"
         y="-740.16663"
         x="89.081894"
         height="178.40475"
         width="222.38214"
         id="rect862"
         style="fill:#000000;fill-opacity:1;stroke:none;stroke-width:2.54536963;stroke-linecap:round;stroke-miterlimit:4;stroke-dasharray:none;stroke-opacity:1" />
      <g
         transform="translate(-9.9645549,-6.2145027)"
         id="g1009">
        <g
           id="g983"
           transform="translate(355.63214,-333.16932)">
          <g
             id="g996"
             transform="translate(0,10.583333)">
            <g
               id="g1542"
               transform="translate(0.36235068,7.6091062)">
              <g
                 aria-label="
LINUX"
                 style="font-style:normal;font-variant:normal;font-weight:600;font-stretch:normal;font-size:35.20517731px;line-height:1.25;font-family:'IBM Plex Sans';-inkscape-font-specification:'IBM Plex Sans Semi-Bold';letter-spacing:0px;word-spacing:0px;fill:#000000;fill-opacity:1;stroke:none;stroke-width:0.8801294"
                 id="text502-6-6">
                <g
                   id="g1645"
                   transform="translate(7.6082499,7.8999332)">
                  <circle
                     inkscape:export-ydpi="604.54645"
                     inkscape:export-xdpi="604.54645"
                     style="fill:url(#linearGradient1720-5-5);fill-opacity:1;stroke:none;stroke-width:2.85304737;stroke-linecap:round;stroke-miterlimit:4;stroke-dasharray:none;stroke-opacity:1"
                     id="path1568-4"
                     cx="-186.52573"
                     cy="-323.59201"
                     r="45.702282" />
                  <path
                     inkscape:export-ydpi="604.54645"
                     inkscape:export-xdpi="604.54645"
                     style="fill:none;stroke:#ffffff;stroke-width:4.99847555;stroke-linecap:round;stroke-linejoin:miter;stroke-miterlimit:4;stroke-dasharray:none;stroke-opacity:1"
                     d="m -222.59146,-323.16794 c -0.62614,-22.74795 19.84648,-32.49205 19.84648,-32.49205"
                     id="path1620-7"
                     inkscape:connector-curvature="0" />
                  <circle
                     inkscape:export-ydpi="604.54645"
                     inkscape:export-xdpi="604.54645"
                     style="fill:#ffffff;fill-opacity:1;stroke:none;stroke-width:7.90310144;stroke-linecap:round;stroke-miterlimit:4;stroke-dasharray:none;stroke-opacity:1"
                     id="path1622-4"
                     cx="-193.49911"
                     cy="-358.8772"
                     r="2.4992378" />
                  <text
                     id="text502-9-4"
                     y="-348.57248"
                     x="-184.58919"
                     style="font-style:normal;font-variant:normal;font-weight:600;font-stretch:normal;font-size:35.20517731px;line-height:1.25;font-family:'IBM Plex Sans';-inkscape-font-specification:'IBM Plex Sans Semi-Bold';letter-spacing:0px;word-spacing:0px;fill:none;fill-opacity:1;stroke:#000000;stroke-width:9.64677238;stroke-miterlimit:4;stroke-dasharray:none;"
                     xml:space="preserve"><tspan
                       style="font-style:normal;font-variant:normal;font-weight:600;font-stretch:normal;font-size:21.9664135px;font-family:'IBM Plex Sans';-inkscape-font-specification:'IBM Plex Sans Semi-Bold';fill:none;stroke:#000000;stroke-width:9.64677238;stroke-miterlimit:4;stroke-dasharray:none;"
                       y="-316.71179"
                       x="-184.58919"
                       id="tspan500-7-3"
                       sodipodi:role="line" /><tspan
                       style="font-style:normal;font-variant:normal;font-weight:600;font-stretch:normal;font-family:'IBM Plex Sans';-inkscape-font-specification:'IBM Plex Sans Semi-Bold';fill:none;stroke:#000000;stroke-width:9.64677238;stroke-miterlimit:4;stroke-dasharray:none;"
                       y="-272.70532"
                       x="-184.58919"
                       sodipodi:role="line"
                       id="tspan1396-3-0"
                       dy="-10.430252">LINUX</tspan></text>
                  <text
                     id="text502-6-6-7"
                     y="-348.57248"
                     x="-184.58919"
                     style="font-style:normal;font-variant:normal;font-weight:600;font-stretch:normal;font-size:35.20517731px;line-height:1.25;font-family:'IBM Plex Sans';-inkscape-font-specification:'IBM Plex Sans Semi-Bold';letter-spacing:0px;word-spacing:0px;fill:#ffffff;fill-opacity:1;stroke:none;stroke-width:0.8801294;"
                     xml:space="preserve"><tspan
                       style="font-style:normal;font-variant:normal;font-weight:600;font-stretch:normal;font-size:21.9664135px;font-family:'IBM Plex Sans';-inkscape-font-specification:'IBM Plex Sans Semi-Bold';stroke-width:0.8801294;fill:#ffffff;"
                       y="-316.71179"
                       x="-184.58919"
                       id="tspan500-2-1-8"
                       sodipodi:role="line" /><tspan
                       style="font-style:normal;font-variant:normal;font-weight:600;font-stretch:normal;font-family:'IBM Plex Sans';-inkscape-font-specification:'IBM Plex Sans Semi-Bold';stroke-width:0.8801294;fill:#ffffff;"
                       y="-272.70532"
                       x="-184.58919"
                       sodipodi:role="line"
                       id="tspan1394-2-6"
                       dy="-10.430252">LINUX</tspan></text>
                </g>
              </g>
            </g>
          </g>
          <g
             aria-label="Powered by:"
             style="font-style:normal;font-variant:normal;font-weight:600;font-stretch:normal;font-size:24.23113823px;line-height:1.25;font-family:'IBM Plex Sans';-inkscape-font-specification:'IBM Plex Sans Semi-Bold';letter-spacing:0px;word-spacing:0px;fill:#ffffff;fill-opacity:1;stroke:none;stroke-width:0.60577846"
             id="text987">
            <path
               d="m -213.20526,-351.10184 v -16.91333 h 7.60858 q 1.16309,0 2.08387,0.3877 0.94502,0.36346 1.59926,1.06617 0.65424,0.67847 0.99348,1.64771 0.33923,0.96925 0.33923,2.13234 0,1.18733 -0.33923,2.15658 -0.33924,0.94501 -0.99348,1.64771 -0.65424,0.67847 -1.59926,1.06617 -0.92078,0.36347 -2.08387,0.36347 h -4.41007 v 6.44548 z m 3.19851,-9.20783 h 4.11929 q 0.92079,0 1.45387,-0.48462 0.53309,-0.50886 0.53309,-1.42964 v -1.11463 q 0,-0.92079 -0.53309,-1.40541 -0.53308,-0.48462 -1.45387,-0.48462 h -4.11929 z"
               style="font-style:normal;font-variant:normal;font-weight:600;font-stretch:normal;font-family:'IBM Plex Sans';-inkscape-font-specification:'IBM Plex Sans Semi-Bold';fill:#ffffff;stroke-width:0.60577846"
               id="path1325" />
            <path
               d="m -193.33577,-350.81106 q -1.35694,0 -2.44734,-0.4604 -1.06617,-0.46039 -1.84157,-1.33271 -0.75116,-0.87232 -1.16309,-2.08388 -0.41193,-1.23578 -0.41193,-2.76235 0,-1.52656 0.41193,-2.73811 0.41193,-1.21156 1.16309,-2.05965 0.7754,-0.87232 1.84157,-1.33271 1.0904,-0.46039 2.44734,-0.46039 1.35695,0 2.44735,0.46039 1.0904,0.46039 1.84156,1.33271 0.7754,0.84809 1.18733,2.05965 0.41193,1.21155 0.41193,2.73811 0,1.52657 -0.41193,2.76235 -0.41193,1.21156 -1.18733,2.08388 -0.75116,0.87232 -1.84156,1.33271 -1.0904,0.4604 -2.44735,0.4604 z m 0,-2.49581 q 1.23579,0 1.93849,-0.75117 0.70271,-0.75116 0.70271,-2.20503 v -2.35042 q 0,-1.42964 -0.70271,-2.1808 -0.7027,-0.75117 -1.93849,-0.75117 -1.21155,0 -1.91426,0.75117 -0.7027,0.75116 -0.7027,2.1808 v 2.35042 q 0,1.45387 0.7027,2.20503 0.70271,0.75117 1.91426,0.75117 z"
               style="font-style:normal;font-variant:normal;font-weight:600;font-stretch:normal;font-family:'IBM Plex Sans';-inkscape-font-specification:'IBM Plex Sans Semi-Bold';fill:#ffffff;stroke-width:0.60577846"
               id="path1327" />
            <path
               d="m -186.16338,-363.75049 h 2.98043 l 1.28425,5.20969 0.99348,4.33738 h 0.0969 l 1.16309,-4.33738 1.4781,-5.20969 h 2.81081 l 1.52656,5.20969 1.18733,4.33738 h 0.0969 l 0.99348,-4.33738 1.26002,-5.20969 h 2.88351 l -3.46506,12.64865 h -3.34389 l -1.62349,-5.57316 -0.94502,-3.44082 h -0.0727 l -0.92078,3.44082 -1.59926,5.57316 h -3.29543 z"
               style="font-style:normal;font-variant:normal;font-weight:600;font-stretch:normal;font-family:'IBM Plex Sans';-inkscape-font-specification:'IBM Plex Sans Semi-Bold';fill:#ffffff;stroke-width:0.60577846"
               id="path1329" />
            <path
               d="m -160.18765,-350.81106 q -1.40541,0 -2.52004,-0.4604 -1.0904,-0.48462 -1.8658,-1.33271 -0.75117,-0.87232 -1.1631,-2.08388 -0.41192,-1.23578 -0.41192,-2.76235 0,-1.50233 0.38769,-2.71388 0.41193,-1.21156 1.1631,-2.05965 0.75116,-0.87232 1.84156,-1.33271 1.09041,-0.48462 2.47158,-0.48462 1.4781,0 2.5685,0.50885 1.0904,0.50885 1.79311,1.38117 0.7027,0.87232 1.04193,2.03542 0.36347,1.13886 0.36347,2.44734 v 1.01771 h -8.4082 v 0.31501 q 0,1.38117 0.77539,2.22926 0.7754,0.82386 2.30196,0.82386 1.1631,0 1.89003,-0.48462 0.75117,-0.48463 1.33271,-1.23579 l 1.67195,1.8658 q -0.77539,1.0904 -2.13234,1.72041 -1.33271,0.60578 -3.10158,0.60578 z m -0.0485,-10.90402 q -1.23578,0 -1.96272,0.82386 -0.72693,0.82386 -0.72693,2.13234 v 0.19385 h 5.18546 v -0.21808 q 0,-1.30848 -0.65424,-2.10811 -0.63001,-0.82386 -1.84157,-0.82386 z"
               style="font-style:normal;font-variant:normal;font-weight:600;font-stretch:normal;font-family:'IBM Plex Sans';-inkscape-font-specification:'IBM Plex Sans Semi-Bold';fill:#ffffff;stroke-width:0.60577846"
               id="path1331" />
            <path
               d="m -151.77948,-351.10184 v -12.64865 h 3.10158 v 2.61696 h 0.12116 q 0.12116,-0.50885 0.36347,-0.96924 0.26654,-0.48463 0.67847,-0.84809 0.41193,-0.36347 0.96924,-0.58155 0.58155,-0.21808 1.33272,-0.21808 h 0.67847 v 2.93197 h -0.96925 q -1.57502,0 -2.37465,0.46039 -0.79963,0.46039 -0.79963,1.50233 v 7.75396 z"
               style="font-style:normal;font-variant:normal;font-weight:600;font-stretch:normal;font-family:'IBM Plex Sans';-inkscape-font-specification:'IBM Plex Sans Semi-Bold';fill:#ffffff;stroke-width:0.60577846"
               id="path1333" />
            <path
               d="m -137.26506,-350.81106 q -1.40541,0 -2.52004,-0.4604 -1.0904,-0.48462 -1.8658,-1.33271 -0.75116,-0.87232 -1.16309,-2.08388 -0.41193,-1.23578 -0.41193,-2.76235 0,-1.50233 0.3877,-2.71388 0.41193,-1.21156 1.16309,-2.05965 0.75117,-0.87232 1.84157,-1.33271 1.0904,-0.48462 2.47157,-0.48462 1.4781,0 2.5685,0.50885 1.09041,0.50885 1.79311,1.38117 0.7027,0.87232 1.04194,2.03542 0.36346,1.13886 0.36346,2.44734 v 1.01771 h -8.4082 v 0.31501 q 0,1.38117 0.7754,2.22926 0.77539,0.82386 2.30195,0.82386 1.1631,0 1.89003,-0.48462 0.75117,-0.48463 1.33272,-1.23579 l 1.67194,1.8658 q -0.77539,1.0904 -2.13234,1.72041 -1.33271,0.60578 -3.10158,0.60578 z m -0.0485,-10.90402 q -1.23579,0 -1.96273,0.82386 -0.72693,0.82386 -0.72693,2.13234 v 0.19385 h 5.18546 v -0.21808 q 0,-1.30848 -0.65424,-2.10811 -0.63001,-0.82386 -1.84156,-0.82386 z"
               style="font-style:normal;font-variant:normal;font-weight:600;font-stretch:normal;font-family:'IBM Plex Sans';-inkscape-font-specification:'IBM Plex Sans Semi-Bold';fill:#ffffff;stroke-width:0.60577846"
               id="path1335" />
            <path
               d="m -121.006,-353.20995 h -0.12116 q -0.33923,1.09041 -1.28425,1.74465 -0.94501,0.65424 -2.20503,0.65424 -2.39888,0 -3.68313,-1.72041 -1.26002,-1.72042 -1.26002,-4.91893 0,-3.17427 1.26002,-4.87045 1.28425,-1.72041 3.68313,-1.72041 1.26002,0 2.20503,0.65424 0.94502,0.63001 1.28425,1.72041 h 0.12116 v -7.36627 h 3.10158 v 17.93104 h -3.10158 z m -2.61696,-0.16961 q 1.11463,0 1.86579,-0.53309 0.75117,-0.53308 0.75117,-1.52656 v -4.02237 q 0,-0.92078 -0.75117,-1.4781 -0.75116,-0.55732 -1.86579,-0.55732 -1.21156,0 -1.96273,0.82386 -0.72693,0.79963 -0.72693,2.15657 v 2.18081 q 0,1.35694 0.72693,2.15657 0.75117,0.79963 1.96273,0.79963 z"
               style="font-style:normal;font-variant:normal;font-weight:600;font-stretch:normal;font-family:'IBM Plex Sans';-inkscape-font-specification:'IBM Plex Sans Semi-Bold';fill:#ffffff;stroke-width:0.60577846"
               id="path1337" />
            <path
               d="m -108.59974,-369.03288 h 3.10158 v 7.36627 h 0.0969 q 0.33924,-1.0904 1.28425,-1.72041 0.94501,-0.65424 2.20503,-0.65424 2.423117,0 3.683136,1.72041 1.284251,1.69618 1.284251,4.87045 0,3.19851 -1.284251,4.91893 -1.260019,1.72041 -3.683136,1.72041 -1.26002,0 -2.20503,-0.65424 -0.92078,-0.65424 -1.28425,-1.74465 h -0.0969 v 2.10811 h -3.10158 z m 5.69432,15.65332 q 1.21155,0 1.96272,-0.79963 0.75116,-0.79963 0.75116,-2.15657 v -2.18081 q 0,-1.35694 -0.75116,-2.15657 -0.75117,-0.82386 -1.96272,-0.82386 -1.11464,0 -1.8658,0.55732 -0.72694,0.55732 -0.72694,1.4781 v 4.02237 q 0,0.99348 0.72694,1.52656 0.75116,0.53309 1.8658,0.53309 z"
               style="font-style:normal;font-variant:normal;font-weight:600;font-stretch:normal;font-family:'IBM Plex Sans';-inkscape-font-specification:'IBM Plex Sans Semi-Bold';fill:#ffffff;stroke-width:0.60577846"
               id="path1339" />
            <path
               d="m -86.525228,-363.75049 h 2.907737 l -5.088539,14.90215 q -0.242312,0.67847 -0.557316,1.16309 -0.290774,0.50886 -0.702703,0.82386 -0.41193,0.31501 -0.993477,0.46039 -0.581547,0.14539 -1.356944,0.14539 h -1.865797 v -2.47158 h 2.277727 l 0.581547,-1.76887 -4.531223,-13.25443 h 3.077355 l 2.205033,6.68779 0.823859,3.19851 h 0.145387 l 0.872321,-3.19851 z"
               style="font-style:normal;font-variant:normal;font-weight:600;font-stretch:normal;font-family:'IBM Plex Sans';-inkscape-font-specification:'IBM Plex Sans Semi-Bold';fill:#ffffff;stroke-width:0.60577846"
               id="path1341" />
            <path
               d="m -79.522478,-350.83529 q -0.993477,0 -1.478099,-0.48463 -0.460392,-0.50885 -0.460392,-1.28425 v -0.43616 q 0,-0.77539 0.460392,-1.28425 0.484622,-0.50885 1.478099,-0.50885 1.017708,0 1.4781,0.50885 0.460391,0.50886 0.460391,1.28425 v 0.43616 q 0,0.7754 -0.460391,1.28425 -0.460392,0.48463 -1.4781,0.48463 z m 0,-9.18361 q -0.993477,0 -1.478099,-0.48462 -0.460392,-0.50885 -0.460392,-1.28425 v -0.43616 q 0,-0.7754 0.460392,-1.28425 0.484622,-0.50885 1.478099,-0.50885 1.017708,0 1.4781,0.50885 0.460391,0.50885 0.460391,1.28425 v 0.43616 q 0,0.7754 -0.460391,1.28425 -0.460392,0.48462 -1.4781,0.48462 z"
               style="font-style:normal;font-variant:normal;font-weight:600;font-stretch:normal;font-family:'IBM Plex Sans';-inkscape-font-specification:'IBM Plex Sans Semi-Bold';fill:#ffffff;stroke-width:0.60577846"
               id="path1343" />
          </g>
        </g>
      </g>
    </g>
  </g>
</svg>
