<?xml version="1.0" encoding="UTF-8" standalone="no"?>
<!-- Created with Inkscape (http://www.inkscape.org/) -->

<svg
   xmlns:dc="http://purl.org/dc/elements/1.1/"
   xmlns:cc="http://creativecommons.org/ns#"
   xmlns:rdf="http://www.w3.org/1999/02/22-rdf-syntax-ns#"
   xmlns:svg="http://www.w3.org/2000/svg"
   xmlns="http://www.w3.org/2000/svg"
   xmlns:xlink="http://www.w3.org/1999/xlink"
   xmlns:sodipodi="http://sodipodi.sourceforge.net/DTD/sodipodi-0.dtd"
   xmlns:inkscape="http://www.inkscape.org/namespaces/inkscape"
   width="200mm"
   height="160.44901mm"
   viewBox="0 0 200 160.44901"
   version="1.1"
   id="svg1059"
   inkscape:version="0.92.5 (2060ec1f9f, 2020-04-08)"
   sodipodi:docname="poweredbygnu2.svg">
  <defs
     id="defs1053">
    <linearGradient
       id="linearGradient2359"
       inkscape:collect="always">
      <stop
         id="stop2355"
         offset="0"
         style="stop-color:#ebc80e;stop-opacity:1" />
      <stop
         id="stop2357"
         offset="1"
         style="stop-color:#d4aa00;stop-opacity:1" />
    </linearGradient>
    <inkscape:path-effect
       is_visible="true"
       id="path-effect4669-1-5-2-3-1"
       effect="spiro" />
    <linearGradient
       gradientUnits="userSpaceOnUse"
       y2="-131.60547"
       x2="-54.570549"
       y1="-291.54004"
       x1="-216.9938"
       id="linearGradient1720-5"
       xlink:href="#linearGradient2359"
       inkscape:collect="always"
       gradientTransform="matrix(0.36021562,0,0,0.36021562,315.70811,324.66568)" />
  </defs>
  <sodipodi:namedview
     id="base"
     pagecolor="#ffffff"
     bordercolor="#666666"
     borderopacity="1.0"
     inkscape:pageopacity="0.0"
     inkscape:pageshadow="2"
     inkscape:zoom="0.49497475"
     inkscape:cx="614.83707"
     inkscape:cy="274.30956"
     inkscape:document-units="mm"
     inkscape:current-layer="g1179"
     showgrid="false"
     inkscape:snap-page="true"
     inkscape:window-width="1280"
     inkscape:window-height="650"
     inkscape:window-x="0"
     inkscape:window-y="0"
     inkscape:window-maximized="1"
     inkscape:snap-bbox="true"
     inkscape:bbox-paths="true"
     inkscape:bbox-nodes="true"
     inkscape:snap-bbox-edge-midpoints="true"
     inkscape:snap-bbox-midpoints="true" />
  <metadata
     id="metadata1056">
    <rdf:RDF>
      <cc:Work
         rdf:about="">
        <dc:format>image/svg+xml</dc:format>
        <dc:type
           rdf:resource="http://purl.org/dc/dcmitype/StillImage" />
        <dc:title></dc:title>
      </cc:Work>
    </rdf:RDF>
  </metadata>
  <g
     inkscape:label="Layer 1"
     inkscape:groupmode="layer"
     id="layer1"
     transform="translate(0,-136.551)">
    <g
       transform="matrix(0.89935279,0,0,0.89935279,-80.116063,802.22192)"
       id="g1024">
      <path
         style="fill:#000000;fill-opacity:1;stroke:none;stroke-width:2.54536963;stroke-linecap:round;stroke-miterlimit:4;stroke-dasharray:none;stroke-opacity:1"
         d="m 112.24782,-740.16663 h 176.05029 c 12.83392,0 23.16593,10.33201 23.16593,23.16593 v 132.0729 c 0,12.83392 -10.33201,23.16593 -23.16593,23.16593 H 112.24782 c -12.833921,0 -23.165926,-10.33201 -23.165926,-23.16593 v -132.0729 c 0,-12.83392 10.332005,-23.16593 23.165926,-23.16593 z"
         id="rect862" />
      <g
         transform="translate(-9.9645549,-6.2145027)"
         id="g1009">
        <g
           id="g983"
           transform="translate(355.63214,-333.16932)">
          <g
             aria-label="Powered by:"
             style="font-style:normal;font-variant:normal;font-weight:600;font-stretch:normal;font-size:24.23113823px;line-height:1.25;font-family:'IBM Plex Sans';-inkscape-font-specification:'IBM Plex Sans Semi-Bold';letter-spacing:0px;word-spacing:0px;fill:#ffffff;fill-opacity:1;stroke:none;stroke-width:0.60577846"
             id="text987">
            <path
               d="m -213.20526,-351.10184 v -16.91333 h 7.60858 q 1.16309,0 2.08387,0.3877 0.94502,0.36346 1.59926,1.06617 0.65424,0.67847 0.99348,1.64771 0.33923,0.96925 0.33923,2.13234 0,1.18733 -0.33923,2.15658 -0.33924,0.94501 -0.99348,1.64771 -0.65424,0.67847 -1.59926,1.06617 -0.92078,0.36347 -2.08387,0.36347 h -4.41007 v 6.44548 z m 3.19851,-9.20783 h 4.11929 q 0.92079,0 1.45387,-0.48462 0.53309,-0.50886 0.53309,-1.42964 v -1.11463 q 0,-0.92079 -0.53309,-1.40541 -0.53308,-0.48462 -1.45387,-0.48462 h -4.11929 z"
               style="font-style:normal;font-variant:normal;font-weight:600;font-stretch:normal;font-family:'IBM Plex Sans';-inkscape-font-specification:'IBM Plex Sans Semi-Bold';fill:#ffffff;stroke-width:0.60577846"
               id="path1201" />
            <path
               d="m -193.33577,-350.81106 q -1.35694,0 -2.44734,-0.4604 -1.06617,-0.46039 -1.84157,-1.33271 -0.75116,-0.87232 -1.16309,-2.08388 -0.41193,-1.23578 -0.41193,-2.76235 0,-1.52656 0.41193,-2.73811 0.41193,-1.21156 1.16309,-2.05965 0.7754,-0.87232 1.84157,-1.33271 1.0904,-0.46039 2.44734,-0.46039 1.35695,0 2.44735,0.46039 1.0904,0.46039 1.84156,1.33271 0.7754,0.84809 1.18733,2.05965 0.41193,1.21155 0.41193,2.73811 0,1.52657 -0.41193,2.76235 -0.41193,1.21156 -1.18733,2.08388 -0.75116,0.87232 -1.84156,1.33271 -1.0904,0.4604 -2.44735,0.4604 z m 0,-2.49581 q 1.23579,0 1.93849,-0.75117 0.70271,-0.75116 0.70271,-2.20503 v -2.35042 q 0,-1.42964 -0.70271,-2.1808 -0.7027,-0.75117 -1.93849,-0.75117 -1.21155,0 -1.91426,0.75117 -0.7027,0.75116 -0.7027,2.1808 v 2.35042 q 0,1.45387 0.7027,2.20503 0.70271,0.75117 1.91426,0.75117 z"
               style="font-style:normal;font-variant:normal;font-weight:600;font-stretch:normal;font-family:'IBM Plex Sans';-inkscape-font-specification:'IBM Plex Sans Semi-Bold';fill:#ffffff;stroke-width:0.60577846"
               id="path1203" />
            <path
               d="m -186.16338,-363.75049 h 2.98043 l 1.28425,5.20969 0.99348,4.33738 h 0.0969 l 1.16309,-4.33738 1.4781,-5.20969 h 2.81081 l 1.52656,5.20969 1.18733,4.33738 h 0.0969 l 0.99348,-4.33738 1.26002,-5.20969 h 2.88351 l -3.46506,12.64865 h -3.34389 l -1.62349,-5.57316 -0.94502,-3.44082 h -0.0727 l -0.92078,3.44082 -1.59926,5.57316 h -3.29543 z"
               style="font-style:normal;font-variant:normal;font-weight:600;font-stretch:normal;font-family:'IBM Plex Sans';-inkscape-font-specification:'IBM Plex Sans Semi-Bold';fill:#ffffff;stroke-width:0.60577846"
               id="path1205" />
            <path
               d="m -160.18765,-350.81106 q -1.40541,0 -2.52004,-0.4604 -1.0904,-0.48462 -1.8658,-1.33271 -0.75117,-0.87232 -1.1631,-2.08388 -0.41192,-1.23578 -0.41192,-2.76235 0,-1.50233 0.38769,-2.71388 0.41193,-1.21156 1.1631,-2.05965 0.75116,-0.87232 1.84156,-1.33271 1.09041,-0.48462 2.47158,-0.48462 1.4781,0 2.5685,0.50885 1.0904,0.50885 1.79311,1.38117 0.7027,0.87232 1.04193,2.03542 0.36347,1.13886 0.36347,2.44734 v 1.01771 h -8.4082 v 0.31501 q 0,1.38117 0.77539,2.22926 0.7754,0.82386 2.30196,0.82386 1.1631,0 1.89003,-0.48462 0.75117,-0.48463 1.33271,-1.23579 l 1.67195,1.8658 q -0.77539,1.0904 -2.13234,1.72041 -1.33271,0.60578 -3.10158,0.60578 z m -0.0485,-10.90402 q -1.23578,0 -1.96272,0.82386 -0.72693,0.82386 -0.72693,2.13234 v 0.19385 h 5.18546 v -0.21808 q 0,-1.30848 -0.65424,-2.10811 -0.63001,-0.82386 -1.84157,-0.82386 z"
               style="font-style:normal;font-variant:normal;font-weight:600;font-stretch:normal;font-family:'IBM Plex Sans';-inkscape-font-specification:'IBM Plex Sans Semi-Bold';fill:#ffffff;stroke-width:0.60577846"
               id="path1207" />
            <path
               d="m -151.77948,-351.10184 v -12.64865 h 3.10158 v 2.61696 h 0.12116 q 0.12116,-0.50885 0.36347,-0.96924 0.26654,-0.48463 0.67847,-0.84809 0.41193,-0.36347 0.96924,-0.58155 0.58155,-0.21808 1.33272,-0.21808 h 0.67847 v 2.93197 h -0.96925 q -1.57502,0 -2.37465,0.46039 -0.79963,0.46039 -0.79963,1.50233 v 7.75396 z"
               style="font-style:normal;font-variant:normal;font-weight:600;font-stretch:normal;font-family:'IBM Plex Sans';-inkscape-font-specification:'IBM Plex Sans Semi-Bold';fill:#ffffff;stroke-width:0.60577846"
               id="path1209" />
            <path
               d="m -137.26506,-350.81106 q -1.40541,0 -2.52004,-0.4604 -1.0904,-0.48462 -1.8658,-1.33271 -0.75116,-0.87232 -1.16309,-2.08388 -0.41193,-1.23578 -0.41193,-2.76235 0,-1.50233 0.3877,-2.71388 0.41193,-1.21156 1.16309,-2.05965 0.75117,-0.87232 1.84157,-1.33271 1.0904,-0.48462 2.47157,-0.48462 1.4781,0 2.5685,0.50885 1.09041,0.50885 1.79311,1.38117 0.7027,0.87232 1.04194,2.03542 0.36346,1.13886 0.36346,2.44734 v 1.01771 h -8.4082 v 0.31501 q 0,1.38117 0.7754,2.22926 0.77539,0.82386 2.30195,0.82386 1.1631,0 1.89003,-0.48462 0.75117,-0.48463 1.33272,-1.23579 l 1.67194,1.8658 q -0.77539,1.0904 -2.13234,1.72041 -1.33271,0.60578 -3.10158,0.60578 z m -0.0485,-10.90402 q -1.23579,0 -1.96273,0.82386 -0.72693,0.82386 -0.72693,2.13234 v 0.19385 h 5.18546 v -0.21808 q 0,-1.30848 -0.65424,-2.10811 -0.63001,-0.82386 -1.84156,-0.82386 z"
               style="font-style:normal;font-variant:normal;font-weight:600;font-stretch:normal;font-family:'IBM Plex Sans';-inkscape-font-specification:'IBM Plex Sans Semi-Bold';fill:#ffffff;stroke-width:0.60577846"
               id="path1211" />
            <path
               d="m -121.006,-353.20995 h -0.12116 q -0.33923,1.09041 -1.28425,1.74465 -0.94501,0.65424 -2.20503,0.65424 -2.39888,0 -3.68313,-1.72041 -1.26002,-1.72042 -1.26002,-4.91893 0,-3.17427 1.26002,-4.87045 1.28425,-1.72041 3.68313,-1.72041 1.26002,0 2.20503,0.65424 0.94502,0.63001 1.28425,1.72041 h 0.12116 v -7.36627 h 3.10158 v 17.93104 h -3.10158 z m -2.61696,-0.16961 q 1.11463,0 1.86579,-0.53309 0.75117,-0.53308 0.75117,-1.52656 v -4.02237 q 0,-0.92078 -0.75117,-1.4781 -0.75116,-0.55732 -1.86579,-0.55732 -1.21156,0 -1.96273,0.82386 -0.72693,0.79963 -0.72693,2.15657 v 2.18081 q 0,1.35694 0.72693,2.15657 0.75117,0.79963 1.96273,0.79963 z"
               style="font-style:normal;font-variant:normal;font-weight:600;font-stretch:normal;font-family:'IBM Plex Sans';-inkscape-font-specification:'IBM Plex Sans Semi-Bold';fill:#ffffff;stroke-width:0.60577846"
               id="path1213" />
            <path
               d="m -108.59974,-369.03288 h 3.10158 v 7.36627 h 0.0969 q 0.33924,-1.0904 1.28425,-1.72041 0.94501,-0.65424 2.20503,-0.65424 2.423117,0 3.683136,1.72041 1.284251,1.69618 1.284251,4.87045 0,3.19851 -1.284251,4.91893 -1.260019,1.72041 -3.683136,1.72041 -1.26002,0 -2.20503,-0.65424 -0.92078,-0.65424 -1.28425,-1.74465 h -0.0969 v 2.10811 h -3.10158 z m 5.69432,15.65332 q 1.21155,0 1.96272,-0.79963 0.75116,-0.79963 0.75116,-2.15657 v -2.18081 q 0,-1.35694 -0.75116,-2.15657 -0.75117,-0.82386 -1.96272,-0.82386 -1.11464,0 -1.8658,0.55732 -0.72694,0.55732 -0.72694,1.4781 v 4.02237 q 0,0.99348 0.72694,1.52656 0.75116,0.53309 1.8658,0.53309 z"
               style="font-style:normal;font-variant:normal;font-weight:600;font-stretch:normal;font-family:'IBM Plex Sans';-inkscape-font-specification:'IBM Plex Sans Semi-Bold';fill:#ffffff;stroke-width:0.60577846"
               id="path1215" />
            <path
               d="m -86.525228,-363.75049 h 2.907737 l -5.088539,14.90215 q -0.242312,0.67847 -0.557316,1.16309 -0.290774,0.50886 -0.702703,0.82386 -0.41193,0.31501 -0.993477,0.46039 -0.581547,0.14539 -1.356944,0.14539 h -1.865797 v -2.47158 h 2.277727 l 0.581547,-1.76887 -4.531223,-13.25443 h 3.077355 l 2.205033,6.68779 0.823859,3.19851 h 0.145387 l 0.872321,-3.19851 z"
               style="font-style:normal;font-variant:normal;font-weight:600;font-stretch:normal;font-family:'IBM Plex Sans';-inkscape-font-specification:'IBM Plex Sans Semi-Bold';fill:#ffffff;stroke-width:0.60577846"
               id="path1217" />
            <path
               d="m -79.522478,-350.83529 q -0.993477,0 -1.478099,-0.48463 -0.460392,-0.50885 -0.460392,-1.28425 v -0.43616 q 0,-0.77539 0.460392,-1.28425 0.484622,-0.50885 1.478099,-0.50885 1.017708,0 1.4781,0.50885 0.460391,0.50886 0.460391,1.28425 v 0.43616 q 0,0.7754 -0.460391,1.28425 -0.460392,0.48463 -1.4781,0.48463 z m 0,-9.18361 q -0.993477,0 -1.478099,-0.48462 -0.460392,-0.50885 -0.460392,-1.28425 v -0.43616 q 0,-0.7754 0.460392,-1.28425 0.484622,-0.50885 1.478099,-0.50885 1.017708,0 1.4781,0.50885 0.460391,0.50885 0.460391,1.28425 v 0.43616 q 0,0.7754 -0.460391,1.28425 -0.460392,0.48462 -1.4781,0.48462 z"
               style="font-style:normal;font-variant:normal;font-weight:600;font-stretch:normal;font-family:'IBM Plex Sans';-inkscape-font-specification:'IBM Plex Sans Semi-Bold';fill:#ffffff;stroke-width:0.60577846"
               id="path1219" />
          </g>
        </g>
      </g>
    </g>
    <g
       id="g1179"
       transform="translate(-199.0082,-14.299492)">
      <path
         style="fill:url(#linearGradient1720-5);fill-opacity:1;stroke:none;stroke-width:2.57318974;stroke-linecap:round;stroke-miterlimit:4;stroke-dasharray:none;stroke-opacity:1"
         d="M 310.59431,245.83588 A 41.219311,41.219311 0 0 1 269.375,287.05519 41.219311,41.219311 0 0 1 228.15569,245.83588 41.219311,41.219311 0 0 1 269.375,204.61657 41.219311,41.219311 0 0 1 310.59431,245.83588 Z"
         id="path1568" />
      <path
         inkscape:export-ydpi="604.54645"
         inkscape:export-xdpi="604.54645"
         style="fill:none;stroke:#ffffff;stroke-width:4.50817156;stroke-linecap:round;stroke-linejoin:miter;stroke-miterlimit:4;stroke-dasharray:none;stroke-opacity:1"
         d="m 236.84707,246.2183 c -0.56473,-20.51658 17.8997,-29.30487 17.8997,-29.30487"
         id="path1620"
         inkscape:connector-curvature="0" />
      <path
         style="fill:#ffffff;fill-opacity:1;stroke:none;stroke-width:7.12788057;stroke-linecap:round;stroke-miterlimit:4;stroke-dasharray:none;stroke-opacity:1"
         d="m 265.33969,214.01183 a 2.2540858,2.2540858 0 0 1 -2.25409,2.25408 2.2540858,2.2540858 0 0 1 -2.25408,-2.25408 2.2540858,2.2540858 0 0 1 2.25408,-2.25409 2.2540858,2.2540858 0 0 1 2.25409,2.25409 z"
         id="path1622" />
      <g
         aria-label="GNU/
LINUX"
         style="font-style:normal;font-variant:normal;font-weight:600;font-stretch:normal;font-size:31.75187492px;line-height:1.25;font-family:'IBM Plex Sans';-inkscape-font-specification:'IBM Plex Sans Semi-Bold';letter-spacing:0px;word-spacing:0px;fill:#ffffff;fill-opacity:1;stroke:#000000;stroke-width:8.70051289;stroke-miterlimit:4;stroke-dasharray:none"
         id="text502-63">
        <path
           d="m 281.01319,250.43222 h -0.0793 q -0.1783,1.0104 -1.12926,1.70381 -0.93116,0.67359 -2.49628,0.67359 -1.22833,0 -2.27835,-0.45566 -1.03021,-0.45567 -1.80286,-1.3472 -0.75285,-0.91134 -1.18871,-2.23872 -0.43585,-1.32739 -0.43585,-3.07082 0,-1.74343 0.43585,-3.07081 0.45567,-1.3472 1.26795,-2.25854 0.81228,-0.91134 1.94155,-1.38682 1.12927,-0.47548 2.51609,-0.47548 1.8623,0 3.16987,0.81228 1.30758,0.81228 2.06042,2.33778 l -2.11985,1.24814 q -0.37642,-0.89153 -1.12927,-1.48588 -0.73303,-0.59435 -1.98117,-0.59435 -1.54531,0 -2.47646,0.95096 -0.91134,0.93115 -0.91134,2.77364 v 2.21891 q 0,1.82268 0.93115,2.77364 0.93115,0.95096 2.49627,0.95096 0.61417,0 1.14908,-0.13868 0.53492,-0.15849 0.93115,-0.45567 0.39624,-0.29717 0.63398,-0.73303 0.23774,-0.43586 0.23774,-1.03021 v -0.89153 h -2.71421 v -2.1991 h 5.23029 v 7.52845 h -2.25853 z"
           style="font-style:normal;font-variant:normal;font-weight:600;font-stretch:normal;font-size:19.81171036px;font-family:'IBM Plex Sans';-inkscape-font-specification:'IBM Plex Sans Semi-Bold';fill:#ffffff;stroke:#000000;stroke-width:8.70051289;stroke-miterlimit:4;stroke-dasharray:none"
           id="path1241" />
        <path
           d="m 290.26526,245.47929 -1.42645,-2.8727 h -0.0594 v 9.96529 h -2.47647 v -13.82857 h 2.8727 l 4.16046,7.09259 1.42644,2.8727 h 0.0594 v -9.96529 h 2.47646 v 13.82857 h -2.87269 z"
           style="font-style:normal;font-variant:normal;font-weight:600;font-stretch:normal;font-size:19.81171036px;font-family:'IBM Plex Sans';-inkscape-font-specification:'IBM Plex Sans Semi-Bold';fill:#ffffff;stroke:#000000;stroke-width:8.70051289;stroke-miterlimit:4;stroke-dasharray:none"
           id="path1243" />
        <path
           d="m 303.024,238.74331 v 8.49922 q 0,1.62456 0.61416,2.43684 0.63397,0.81228 2.11985,0.81228 1.48588,0 2.10004,-0.81228 0.63398,-0.81228 0.63398,-2.43684 v -8.49922 h 2.57552 v 8.16242 q 0,1.52551 -0.29718,2.63496 -0.27736,1.10946 -0.91133,1.84249 -0.63398,0.73303 -1.66419,1.08965 -1.0104,0.33679 -2.45665,0.33679 -1.46607,0 -2.47646,-0.33679 -0.99059,-0.35662 -1.62456,-1.08965 -0.63398,-0.73303 -0.91134,-1.84249 -0.27737,-1.10945 -0.27737,-2.63496 v -8.16242 z"
           style="font-style:normal;font-variant:normal;font-weight:600;font-stretch:normal;font-size:19.81171036px;font-family:'IBM Plex Sans';-inkscape-font-specification:'IBM Plex Sans Semi-Bold';fill:#ffffff;stroke:#000000;stroke-width:8.70051289;stroke-miterlimit:4;stroke-dasharray:none"
           id="path1245" />
        <path
           d="m 312.01848,255.56345 5.68596,-17.65223 h 2.11985 l -5.68596,17.65223 z"
           style="font-style:normal;font-variant:normal;font-weight:600;font-stretch:normal;font-size:19.81171036px;font-family:'IBM Plex Sans';-inkscape-font-specification:'IBM Plex Sans Semi-Bold';fill:#ffffff;stroke:#000000;stroke-width:8.70051289;stroke-miterlimit:4;stroke-dasharray:none"
           id="path1247" />
        <path
           d="m 273.17607,282.85459 v -22.16281 h 4.19125 v 18.44784 h 8.73177 v 3.71497 z"
           style="font-style:normal;font-variant:normal;font-weight:600;font-stretch:normal;font-family:'IBM Plex Sans';-inkscape-font-specification:'IBM Plex Sans Semi-Bold';fill:#ffffff;stroke:#000000;stroke-width:8.70051289;stroke-miterlimit:4;stroke-dasharray:none"
           id="path1249" />
        <path
           d="m 288.79799,282.85459 v -3.3657 h 2.92117 v -15.43141 h -2.92117 v -3.3657 h 10.06535 v 3.3657 h -2.95293 v 15.43141 h 2.95293 v 3.3657 z"
           style="font-style:normal;font-variant:normal;font-weight:600;font-stretch:normal;font-family:'IBM Plex Sans';-inkscape-font-specification:'IBM Plex Sans Semi-Bold';fill:#ffffff;stroke:#000000;stroke-width:8.70051289;stroke-miterlimit:4;stroke-dasharray:none"
           id="path1251" />
        <path
           d="m 309.50016,271.48741 -2.28613,-4.60402 h -0.0953 v 15.9712 h -3.96898 v -22.16281 h 4.60402 l 6.66789,11.36717 2.28614,4.60402 h 0.0953 v -15.97119 h 3.96899 v 22.16281 h -4.60402 z"
           style="font-style:normal;font-variant:normal;font-weight:600;font-stretch:normal;font-family:'IBM Plex Sans';-inkscape-font-specification:'IBM Plex Sans Semi-Bold';fill:#ffffff;stroke:#000000;stroke-width:8.70051289;stroke-miterlimit:4;stroke-dasharray:none"
           id="path1253" />
        <path
           d="m 329.94837,260.69178 v 13.62155 q 0,2.60366 0.9843,3.90548 1.01606,1.30183 3.39746,1.30183 2.38139,0 3.36569,-1.30183 1.01606,-1.30182 1.01606,-3.90548 v -13.62155 h 4.12775 v 13.08177 q 0,2.44489 -0.47628,4.223 -0.44453,1.7781 -1.46059,2.95292 -1.01606,1.17482 -2.66715,1.74636 -1.61935,0.53978 -3.93724,0.53978 -2.34964,0 -3.96898,-0.53978 -1.58759,-0.57154 -2.60365,-1.74636 -1.01606,-1.17482 -1.46059,-2.95292 -0.44453,-1.77811 -0.44453,-4.223 v -13.08177 z"
           style="font-style:normal;font-variant:normal;font-weight:600;font-stretch:normal;font-family:'IBM Plex Sans';-inkscape-font-specification:'IBM Plex Sans Semi-Bold';fill:#ffffff;stroke:#000000;stroke-width:8.70051289;stroke-miterlimit:4;stroke-dasharray:none"
           id="path1255" />
        <path
           d="m 365.51042,282.85459 h -4.88979 l -5.0803,-8.50951 h -0.0952 l -5.0168,8.50951 h -4.57227 l 7.17592,-11.36718 -6.8584,-10.79563 h 4.88979 l 4.69928,7.87446 h 0.0952 l 4.76278,-7.87446 h 4.57227 l -6.92191,10.79563 z"
           style="font-style:normal;font-variant:normal;font-weight:600;font-stretch:normal;font-family:'IBM Plex Sans';-inkscape-font-specification:'IBM Plex Sans Semi-Bold';fill:#ffffff;stroke:#000000;stroke-width:8.70051289;stroke-miterlimit:4;stroke-dasharray:none"
           id="path1257" />
      </g>
      <g
         aria-label="GNU/
LINUX"
         style="font-style:normal;font-variant:normal;font-weight:600;font-stretch:normal;font-size:31.75187492px;line-height:1.25;font-family:'IBM Plex Sans';-inkscape-font-specification:'IBM Plex Sans Semi-Bold';letter-spacing:0px;word-spacing:0px;fill:#ffffff;fill-opacity:1;stroke:none;stroke-width:0.79379684"
         id="text502-6-1">
        <path
           d="m 281.01319,250.43222 h -0.0793 q -0.1783,1.0104 -1.12926,1.70381 -0.93116,0.67359 -2.49628,0.67359 -1.22833,0 -2.27835,-0.45566 -1.03021,-0.45567 -1.80286,-1.3472 -0.75285,-0.91134 -1.18871,-2.23872 -0.43585,-1.32739 -0.43585,-3.07082 0,-1.74343 0.43585,-3.07081 0.45567,-1.3472 1.26795,-2.25854 0.81228,-0.91134 1.94155,-1.38682 1.12927,-0.47548 2.51609,-0.47548 1.8623,0 3.16987,0.81228 1.30758,0.81228 2.06042,2.33778 l -2.11985,1.24814 q -0.37642,-0.89153 -1.12927,-1.48588 -0.73303,-0.59435 -1.98117,-0.59435 -1.54531,0 -2.47646,0.95096 -0.91134,0.93115 -0.91134,2.77364 v 2.21891 q 0,1.82268 0.93115,2.77364 0.93115,0.95096 2.49627,0.95096 0.61417,0 1.14908,-0.13868 0.53492,-0.15849 0.93115,-0.45567 0.39624,-0.29717 0.63398,-0.73303 0.23774,-0.43586 0.23774,-1.03021 v -0.89153 h -2.71421 v -2.1991 h 5.23029 v 7.52845 h -2.25853 z"
           style="font-style:normal;font-variant:normal;font-weight:600;font-stretch:normal;font-size:19.81171036px;font-family:'IBM Plex Sans';-inkscape-font-specification:'IBM Plex Sans Semi-Bold';fill:#ffffff;stroke-width:0.79379684"
           id="path1222" />
        <path
           d="m 290.26526,245.47929 -1.42645,-2.8727 h -0.0594 v 9.96529 h -2.47647 v -13.82857 h 2.8727 l 4.16046,7.09259 1.42644,2.8727 h 0.0594 v -9.96529 h 2.47646 v 13.82857 h -2.87269 z"
           style="font-style:normal;font-variant:normal;font-weight:600;font-stretch:normal;font-size:19.81171036px;font-family:'IBM Plex Sans';-inkscape-font-specification:'IBM Plex Sans Semi-Bold';fill:#ffffff;stroke-width:0.79379684"
           id="path1224" />
        <path
           d="m 303.024,238.74331 v 8.49922 q 0,1.62456 0.61416,2.43684 0.63397,0.81228 2.11985,0.81228 1.48588,0 2.10004,-0.81228 0.63398,-0.81228 0.63398,-2.43684 v -8.49922 h 2.57552 v 8.16242 q 0,1.52551 -0.29718,2.63496 -0.27736,1.10946 -0.91133,1.84249 -0.63398,0.73303 -1.66419,1.08965 -1.0104,0.33679 -2.45665,0.33679 -1.46607,0 -2.47646,-0.33679 -0.99059,-0.35662 -1.62456,-1.08965 -0.63398,-0.73303 -0.91134,-1.84249 -0.27737,-1.10945 -0.27737,-2.63496 v -8.16242 z"
           style="font-style:normal;font-variant:normal;font-weight:600;font-stretch:normal;font-size:19.81171036px;font-family:'IBM Plex Sans';-inkscape-font-specification:'IBM Plex Sans Semi-Bold';fill:#ffffff;stroke-width:0.79379684"
           id="path1226" />
        <path
           d="m 312.01848,255.56345 5.68596,-17.65223 h 2.11985 l -5.68596,17.65223 z"
           style="font-style:normal;font-variant:normal;font-weight:600;font-stretch:normal;font-size:19.81171036px;font-family:'IBM Plex Sans';-inkscape-font-specification:'IBM Plex Sans Semi-Bold';fill:#ffffff;stroke-width:0.79379684"
           id="path1228" />
        <path
           d="m 273.17607,282.85459 v -22.16281 h 4.19125 v 18.44784 h 8.73177 v 3.71497 z"
           style="font-style:normal;font-variant:normal;font-weight:600;font-stretch:normal;font-family:'IBM Plex Sans';-inkscape-font-specification:'IBM Plex Sans Semi-Bold';fill:#ffffff;stroke-width:0.79379684"
           id="path1230" />
        <path
           d="m 288.79799,282.85459 v -3.3657 h 2.92117 v -15.43141 h -2.92117 v -3.3657 h 10.06535 v 3.3657 h -2.95293 v 15.43141 h 2.95293 v 3.3657 z"
           style="font-style:normal;font-variant:normal;font-weight:600;font-stretch:normal;font-family:'IBM Plex Sans';-inkscape-font-specification:'IBM Plex Sans Semi-Bold';fill:#ffffff;stroke-width:0.79379684"
           id="path1232" />
        <path
           d="m 309.50016,271.48741 -2.28613,-4.60402 h -0.0953 v 15.9712 h -3.96898 v -22.16281 h 4.60402 l 6.66789,11.36717 2.28614,4.60402 h 0.0953 v -15.97119 h 3.96899 v 22.16281 h -4.60402 z"
           style="font-style:normal;font-variant:normal;font-weight:600;font-stretch:normal;font-family:'IBM Plex Sans';-inkscape-font-specification:'IBM Plex Sans Semi-Bold';fill:#ffffff;stroke-width:0.79379684"
           id="path1234" />
        <path
           d="m 329.94837,260.69178 v 13.62155 q 0,2.60366 0.9843,3.90548 1.01606,1.30183 3.39746,1.30183 2.38139,0 3.36569,-1.30183 1.01606,-1.30182 1.01606,-3.90548 v -13.62155 h 4.12775 v 13.08177 q 0,2.44489 -0.47628,4.223 -0.44453,1.7781 -1.46059,2.95292 -1.01606,1.17482 -2.66715,1.74636 -1.61935,0.53978 -3.93724,0.53978 -2.34964,0 -3.96898,-0.53978 -1.58759,-0.57154 -2.60365,-1.74636 -1.01606,-1.17482 -1.46059,-2.95292 -0.44453,-1.77811 -0.44453,-4.223 v -13.08177 z"
           style="font-style:normal;font-variant:normal;font-weight:600;font-stretch:normal;font-family:'IBM Plex Sans';-inkscape-font-specification:'IBM Plex Sans Semi-Bold';fill:#ffffff;stroke-width:0.79379684"
           id="path1236" />
        <path
           d="m 365.51042,282.85459 h -4.88979 l -5.0803,-8.50951 h -0.0952 l -5.0168,8.50951 h -4.57227 l 7.17592,-11.36718 -6.8584,-10.79563 h 4.88979 l 4.69928,7.87446 h 0.0952 l 4.76278,-7.87446 h 4.57227 l -6.92191,10.79563 z"
           style="font-style:normal;font-variant:normal;font-weight:600;font-stretch:normal;font-family:'IBM Plex Sans';-inkscape-font-specification:'IBM Plex Sans Semi-Bold';fill:#ffffff;stroke-width:0.79379684"
           id="path1238" />
      </g>
    </g>
  </g>
</svg>
